<svg xmlns="http://www.w3.org/2000/svg" xmlns:xlink="http://www.w3.org/1999/xlink" width="51.278" height="85.377" viewBox="0 0 51.278 85.377">
  <defs>
    <clipPath id="clip-path">
      <rect id="Rectangle_73" data-name="Rectangle 73" width="51.278" height="85.377" fill="#0D2C56" stroke="#fff" stroke-linecap="round" stroke-linejoin="round" stroke-width="1"/>
    </clipPath>
  </defs>
  <g id="Group_358" data-name="Group 358" transform="translate(-240.679 -355.401)">
    <rect id="Rectangle_76" data-name="Rectangle 76" width="47" height="80" rx="23.5" transform="translate(243 358)" fill="#fff"/>
    <g id="Group_350" data-name="Group 350" transform="translate(240.679 355.401)">
      <g id="Group_349" data-name="Group 349" clip-path="url(#clip-path)">
        <path id="Path_259" data-name="Path 259" d="M.012,42.244c0-5.255.045-10.51-.011-15.765A24.975,24.975,0,0,1,6.982,8.205C13.767,1.144,22.057-1.4,31.613.734c11.675,2.612,19.767,13.4,19.664,25.23-.1,11.21.063,22.422-.045,33.631-.1,10.632-5.112,18.431-14.521,23.161A25.643,25.643,0,0,1,.01,59.27c.011-5.676,0-11.351,0-17.026m3.3-3.648c0,7.15-.029,14.083.009,21.015A22.045,22.045,0,0,0,8.316,73.737C14.733,81.706,26.3,84.42,35.411,79.756c8.012-4.1,12.235-10.832,12.5-19.823.2-6.581.041-13.172.036-19.758,0-.386-.057-.772-.1-1.325-.319.244-.518.329-.615.479A26.65,26.65,0,0,1,32.817,50.2a34.363,34.363,0,0,0-12.752,7.421c-2.232,2.122-4.431,4.28-6.668,6.4-.77.728-1.729,1.174-2.6.293a1.615,1.615,0,0,1,.16-2.437c3.143-2.983,6.2-6.073,9.521-8.848,3.681-3.077,8.108-4.871,12.6-6.48A22.222,22.222,0,0,0,26.854,3.383C18.966,2.988,12.6,6.13,7.755,12.344,1.639,20.186,1.913,32.21,8.52,39.66A53.6,53.6,0,0,0,14.17,44.6c1.048.889,1.4,1.967.709,2.7a1.745,1.745,0,0,1-2.615.071A51.922,51.922,0,0,1,7.846,43.87c-1.569-1.551-2.9-3.346-4.53-5.273" transform="translate(0 0)" fill="#0D2C56" stroke="#fff" stroke-linecap="round" stroke-linejoin="round" stroke-width="1"/>
        <path id="Path_260" data-name="Path 260" d="M34.918,53.742A18.553,18.553,0,0,1,16.381,35.184a18.374,18.374,0,0,1,18.513-18.8A18.352,18.352,0,0,1,53.86,34.938a18.51,18.51,0,0,1-18.942,18.8M28.388,21.4C20.874,24.542,17,34.882,21.886,42.836c3.031,4.937,7.434,7.547,13.135,7.567A14.72,14.72,0,0,0,48.6,42.482,15.109,15.109,0,0,0,46.172,24.31a15.312,15.312,0,0,0-10.7-4.662,3.507,3.507,0,0,0-3.749,3.19,3.394,3.394,0,0,0,2.831,3.581c1.92.315,3.416-.759,3.963-2.842a5.312,5.312,0,0,1,.346-1.2c.528-.967,2.126-1.169,2.627-.249a3.661,3.661,0,0,1,.269,2.2,6.744,6.744,0,0,1-13.371-1.3c.005-.536,0-1.072,0-1.63" transform="translate(-9.492 -9.493)" fill="#0D2C56" stroke="#fff" stroke-linecap="round" stroke-linejoin="round" stroke-width="1"/>
        <path id="Path_261" data-name="Path 261" d="M41.362,59.344A1.691,1.691,0,1,1,43.179,60.9a1.691,1.691,0,0,1-1.817-1.555" transform="translate(-23.965 -33.332)" fill="#0D2C56" stroke="#fff" stroke-linecap="round" stroke-linejoin="round" stroke-width="1"/>
        <path id="Path_262" data-name="Path 262" d="M74.233,59.285A1.691,1.691,0,1,1,76.05,60.84a1.691,1.691,0,0,1-1.817-1.555" transform="translate(-43.012 -33.298)" fill="#0D2C56" stroke="#fff" stroke-linecap="round" stroke-linejoin="round" stroke-width="1"/>
      </g>
    </g>
  </g>
</svg>