<svg xmlns="http://www.w3.org/2000/svg" width="82.256" height="77.424" viewBox="0 0 82.256 77.424">
  <g id="Group_355" data-name="Group 355" transform="translate(-210.996 -615.344)">
    <g id="Group_351" data-name="Group 351" transform="translate(56.717 5)">
      <g id="Ellipse_61" data-name="Ellipse 61" transform="translate(206 651)" fill="#fff" stroke="#0D2C56" stroke-linecap="round" stroke-linejoin="round" stroke-width="2.2">
        <circle cx="12.12" cy="12.12" r="12.12" stroke="none"/>
        <circle cx="12.12" cy="12.12" r="11.02" fill="none"/>
      </g>
      <line id="Line_19" data-name="Line 19" y1="11.774" transform="translate(218.12 674.894)" fill="none" stroke="#0D2C56" stroke-linecap="round" stroke-width="2.2"/>
      <line id="Line_20" data-name="Line 20" x2="11.081" transform="translate(212.58 681.128)" fill="none" stroke="#0D2C56" stroke-linecap="round" stroke-width="2.2"/>
    </g>
    <g id="Group_352" data-name="Group 352" transform="translate(-77.657 1230.35) rotate(-129)">
      <g id="Ellipse_61-2" data-name="Ellipse 61" transform="translate(230.717 631)" fill="#fff" stroke="#0D2C56" stroke-linecap="round" stroke-linejoin="round" stroke-width="2.2">
        <circle cx="12.12" cy="12.12" r="12.12" stroke="none"/>
        <circle cx="12.12" cy="12.12" r="11.02" fill="none"/>
      </g>
      <line id="Line_19-2" data-name="Line 19" y1="11.774" transform="translate(242.837 654.894)" fill="none" stroke="#0D2C56" stroke-linecap="round" stroke-width="2.2"/>
      <path id="Path_263" data-name="Path 263" d="M4832.046-221.624l5.978,5.491,5.878-5.491" transform="translate(-4595 883)" fill="none" stroke="#0D2C56" stroke-linecap="round" stroke-linejoin="round" stroke-width="2.2"/>
    </g>
    <g id="Group_354" data-name="Group 354" transform="translate(27 19.376)">
      <g id="Group_353" data-name="Group 353" transform="translate(93.747 1319.655) rotate(-150)">
        <g id="Ellipse_61-3" data-name="Ellipse 61" transform="translate(230.717 631)" fill="#fff" stroke="#0D2C56" stroke-linecap="round" stroke-linejoin="round" stroke-width="2.2">
          <circle cx="12.12" cy="12.12" r="12.12" stroke="none"/>
          <circle cx="12.12" cy="12.12" r="11.02" fill="none"/>
        </g>
        <line id="Line_19-3" data-name="Line 19" y1="11.774" transform="translate(238.666 654.144) rotate(17)" fill="none" stroke="#0D2C56" stroke-linecap="round" stroke-width="2.2"/>
        <line id="Line_24" data-name="Line 24" x2="10.197" y2="5.887" transform="translate(265.716 646.985) rotate(163)" fill="none" stroke="#0D2C56" stroke-linecap="round" stroke-width="2.2"/>
        <path id="Path_263-2" data-name="Path 263" d="M4832.046-221.624l5.978,5.491,5.878-5.491" transform="translate(-4454.473 -542.164) rotate(17)" fill="none" stroke="#0D2C56" stroke-linecap="round" stroke-linejoin="round" stroke-width="2.2"/>
        <path id="Path_265" data-name="Path 265" d="M-.465,10.728l-1.3-5.637L3.69,3.831" transform="translate(265.667 652.596) rotate(163)" fill="none" stroke="#0D2C56" stroke-linecap="round" stroke-linejoin="round" stroke-width="2.2"/>
      </g>
      <line id="Line_21" data-name="Line 21" y1="11.774" transform="translate(204.837 652.894)" fill="none" stroke="#0D2C56" stroke-linecap="round" stroke-width="2.2"/>
      <line id="Line_22" data-name="Line 22" x2="11.081" transform="translate(199.296 659.128)" fill="none" stroke="#0D2C56" stroke-linecap="round" stroke-width="2.2"/>
      <path id="Path_266" data-name="Path 266" d="M0,5.9,4.744.6" transform="translate(190.296 628.5)" fill="none" stroke="#0D2C56" stroke-linecap="round" stroke-width="2.2"/>
    </g>
  </g>
</svg>