<svg xmlns="http://www.w3.org/2000/svg" xmlns:xlink="http://www.w3.org/1999/xlink" width="56.616" height="67.568" viewBox="0 0 56.616 67.568">
  <defs>
    <clipPath id="clip-path">
      <rect id="Rectangle_48" data-name="Rectangle 48" width="56.616" height="67.568" fill="#001D4A" stroke="#001D4A" stroke-width="0.5"/>
    </clipPath>
  </defs>
  <g id="Group_229" data-name="Group 229" clip-path="url(#clip-path)">
    <path id="Path_191" data-name="Path 191" d="M24.363,60.914A24.3,24.3,0,1,1,48.737,37.057,24.322,24.322,0,0,1,24.363,60.914m19.777-13.1a1.407,1.407,0,0,0,.206-.219,23.621,23.621,0,0,0,2.718-8.43.815.815,0,0,0-.493-.912c-2.434-1.46-4.853-2.944-7.281-4.416a3.436,3.436,0,0,0-.432-.2L35.307,42.4l8.833,5.414M4.589,25.353a23.034,23.034,0,0,0-2.85,8.48,1.088,1.088,0,0,0,.622,1.255C4.6,36.4,6.8,37.773,9.019,39.119c.244.148.5.273.643.349l3.391-8.914-8.463-5.2m9.961,6.125a39.081,39.081,0,0,0-3.191,8.657.766.766,0,0,0,.336.6c1.114.713,2.252,1.39,3.384,2.076,1.243.753,2.487,1.5,3.8,2.294l4.467-8.228-8.792-5.4M34.559,43.793l-5.527,7.473c2.339,1.425,4.709,2.887,7.108,4.3a1.028,1.028,0,0,0,.931-.075c1.359-1.08,2.733-2.154,3.98-3.355a30.984,30.984,0,0,0,2.384-2.9l-8.876-5.447m-10.474-8.3,4.443-8.189L20.793,22.63A32.148,32.148,0,0,0,15.3,30.108l8.78,5.387m13.4-2.773-7.6-4.6-4.44,8.211,8.52,5.231,3.521-8.844M24.674,37.711l-4.443,8.213,7.411,4.5L33.2,42.958l-8.529-5.247M13.756,29.153l5.48-7.5c-2.164-1.317-4.393-2.688-6.646-4.016a.954.954,0,0,0-.864.076C10.372,18.8,9,19.871,7.75,21.072a31.427,31.427,0,0,0-2.4,2.918l8.408,5.162m25.738-9.625a1.469,1.469,0,0,0-.054.375,23.523,23.523,0,0,1,.012,10.4c-.3,1.589-.292,1.6,1.1,2.446,2.158,1.314,4.322,2.619,6.621,4.012a22.947,22.947,0,0,0-7.684-17.238M9.313,53.752c.041-.2.072-.261.059-.307a24.814,24.814,0,0,1-.092-11.373,1.019,1.019,0,0,0-.58-1.295c-2.136-1.26-4.242-2.571-6.361-3.858-.22-.134-.456-.243-.782-.414A23.208,23.208,0,0,0,9.313,53.752M37.72,31.025a26.355,26.355,0,0,0,.174-10.162,5.5,5.5,0,0,0-2.064-3.735l-5.2,9.588,7.093,4.31M10.9,42.134a27.984,27.984,0,0,0-.242,8.787,11.523,11.523,0,0,0,.744,3.024,15.961,15.961,0,0,0,1.4,2.343l5.3-9.774L10.9,42.134M29.27,25.9l5.1-9.4c-3.71-1.035-9.757,2.1-12.253,5.056L29.27,25.9M27.728,52.334a23.557,23.557,0,0,1-10.238,5.993,22.958,22.958,0,0,0,17.494-1.556l-7.257-4.437m-8.24-5.007-5.17,9.539c5.012.166,8.55-2.374,12-5.394l-6.827-4.145m-5.7-30.841,6.638,4.029c1.679-1.2,3.171-2.456,4.832-3.414s3.492-1.625,5.236-2.414a22.592,22.592,0,0,0-16.706,1.8" transform="translate(0 -8.223)" fill="#001D4A" stroke="#001D4A" stroke-width="0.5"/>
    <path id="Path_192" data-name="Path 192" d="M38.478,65.948V59.78c-1.848-.265-3.655-.462-5.436-.793a28.68,28.68,0,0,1-8.669-3.135c-.543-.3-1.109-.614-.72-1.31.364-.653.926-.363,1.44-.083a28.913,28.913,0,0,0,14.7,3.633c9-.206,16.873-3.244,23.064-9.933A28.808,28.808,0,0,0,70.6,30.815c.743-8.184-1.939-15.3-6.977-21.619a31.593,31.593,0,0,0-8.65-7.512C54.45,1.371,54,1,54.38.377c.4-.661.967-.309,1.444-.019A34.565,34.565,0,0,1,68.835,14.272a29.964,29.964,0,0,1-1.186,30.12c-5.2,8.355-12.825,13.073-22.438,14.753-.842.147-1.694.242-2.544.333-.821.088-1.646.14-2.536.214v6.255h.9q3.652,0,7.3,0c.558,0,1.126.045,1.148.754.022.741-.545.868-1.145.868q-9.046,0-18.092,0c-.564,0-1.13-.116-1.141-.795-.012-.737.566-.83,1.172-.828,2.708.008,5.415,0,8.2,0" transform="translate(-15.712 0)" fill="#001D4A" stroke="#001D4A" stroke-width="0.5"/>
  </g>
</svg>