<svg xmlns="http://www.w3.org/2000/svg" xmlns:xlink="http://www.w3.org/1999/xlink" width="141.404" height="141.404" viewBox="0 0 141.404 141.404">
  <defs>
    <clipPath id="clip-path">
      <path id="Path_216" data-name="Path 216" d="M0,130.059H69.916L68.133,0H0Z" fill="#fff" stroke="#6e95ad" stroke-width="3"/>
    </clipPath>
  </defs>
  <g id="Group_491" data-name="Group 491" transform="translate(0 0)">
    <g id="Group_247" data-name="Group 247" transform="translate(78.867 37.636)">
      <g id="Group_246" data-name="Group 246" transform="translate(0 0)">
        <line id="Line_14" data-name="Line 14" x2="26.249" y2="24.091" fill="none" stroke="#a9253f" stroke-width="3"/>
        <line id="Line_15" data-name="Line 15" x1="26.249" y2="24.091" fill="none" stroke="#a9253f" stroke-width="3"/>
      </g>
    </g>
    <g id="Group_252" data-name="Group 252" transform="translate(49.438 141.404) rotate(-135)">
      <g id="Mask_Group_5" data-name="Mask Group 5" transform="translate(0)" clip-path="url(#clip-path)">
        <path id="Path_212" data-name="Path 212" d="M.153,25.9a25.913,25.913,0,0,0,25.24,25.9,25.906,25.906,0,0,1,0-51.8A25.911,25.911,0,0,0,.153,25.9Z" transform="translate(8.713 69.066)" fill="#fff" stroke="#6e95ad" stroke-miterlimit="10" stroke-width="3"/>
        <path id="Path_213" data-name="Path 213" d="M31.873,70.664A31.873,31.873,0,0,1,28.472,7.1V0h6.8V7.1a31.873,31.873,0,0,1-3.4,63.564Zm.67-57.927c-.225,0-.445-.008-.67-.008-.174,0-.344,0-.517.008a25.906,25.906,0,0,0,0,51.8c.174.008.344.008.517.008.225,0,.445,0,.67-.008a25.906,25.906,0,0,0,0-51.8Z" transform="translate(2.749 56.33)" fill="#fff" stroke="#6e95ad" stroke-miterlimit="10" stroke-width="3"/>
        <path id="Path_215" data-name="Path 215" d="M13.589,50.56V6.794A6.795,6.795,0,0,0,0,6.795V50.56a2.7,2.7,0,0,0,2.7,2.7h8.186A2.7,2.7,0,0,0,13.589,50.56Z" transform="translate(27.828 3.068)" fill="#fff" stroke="#6e95ad" stroke-miterlimit="10" stroke-width="3"/>
      </g>
    </g>
  </g>
</svg>
