<svg xmlns="http://www.w3.org/2000/svg" xmlns:xlink="http://www.w3.org/1999/xlink" width="437.324" height="334.223" viewBox="0 0 437.324 334.223">
  <defs>
    <clipPath id="clip-path">
      <rect id="Rectangle_38" data-name="Rectangle 38" width="42.241" height="108.146" fill="#557996" stroke="#fff" stroke-width="1.25"/>
    </clipPath>
    <clipPath id="clip-path-2">
      <rect id="Rectangle_39" data-name="Rectangle 39" width="54.447" height="118.811" fill="#557996" stroke="#fff" stroke-width="1.25"/>
    </clipPath>
  </defs>
  <g id="Group_138" data-name="Group 138" transform="translate(-397.985 -423)">
    <g id="Group_137" data-name="Group 137" transform="translate(397.985 423)">
      <g id="Ellipse_18" data-name="Ellipse 18" transform="translate(24.441 18.609)" fill="none" stroke="#a9253f" stroke-width="1.5" stroke-dasharray="3">
        <ellipse cx="92.463" cy="93.044" rx="92.463" ry="93.044" stroke="none"/>
        <ellipse cx="92.463" cy="93.044" rx="91.713" ry="92.294" fill="none"/>
      </g>
      <ellipse id="Ellipse_19" data-name="Ellipse 19" cx="26.75" cy="43.033" rx="26.75" ry="43.033" transform="translate(90.735 159.338)" fill="#fff"/>
      <ellipse id="Ellipse_20" data-name="Ellipse 20" cx="31.402" cy="55.245" rx="31.402" ry="55.245" transform="translate(0.017 62.805)" fill="#fff"/>
      <ellipse id="Ellipse_21" data-name="Ellipse 21" cx="31.402" cy="53.5" rx="31.402" ry="53.5" transform="translate(168.66 66.294)" fill="#fff"/>
      <g id="Group_128" data-name="Group 128" transform="translate(180.146 69.277)">
        <g id="Group_127" data-name="Group 127" transform="translate(0 0)" clip-path="url(#clip-path)">
          <path id="Path_151" data-name="Path 151" d="M42.233,63.785a13.656,13.656,0,0,0-2.647-8.307,13.245,13.245,0,0,0-9.874-5.844q-4.255-.208-8.535-.278a.343.343,0,0,1-.114,0q-4.274.066-8.535.278a13.245,13.245,0,0,0-9.874,5.844A13.656,13.656,0,0,0,.007,63.785c.246,6.728.227,13.475,0,20.2a12.048,12.048,0,0,0,2.382,7.726,11.7,11.7,0,0,0,2.2,2.236c.013.006.025.019.038.025.714.467,1.472.91,2.274,1.371.3.139.6.259.91.373.486.171.954.385,1.725.7v3.045c0,6.734-.025,13.469.013,20.21.019,3.683,1.352,5.717,4.252,6.374.114.025.227.051.347.07a.9.9,0,0,1,.126.025c.253.038.512.07.783.095.139.013.284.025.43.032l.278.019c.1,0,.2.006.3.006.291.006.575.006.865.006H17.2q1.744.019,3.487.019h.859q1.744,0,3.487-.019h.272c.291,0,.575,0,.865-.006.1,0,.2-.006.3-.006s.19-.006.278-.019c.145-.006.291-.019.43-.032.272-.025.531-.057.783-.095a.745.745,0,0,0,.126-.025c.12-.019.234-.044.347-.07,2.9-.657,4.233-2.691,4.252-6.374.038-6.741.013-13.475.013-20.21V96.421c.771-.316,1.238-.531,1.725-.7.31-.114.613-.234.91-.373.8-.461,1.56-.9,2.274-1.371.013-.006.025-.019.038-.025a11.7,11.7,0,0,0,2.2-2.236,12.048,12.048,0,0,0,2.382-7.726c-.227-6.728-.246-13.475,0-20.2m-13.582,2.18c-.158,18.63.139,37.1-.076,55.777H27.419a6.734,6.734,0,0,1-3.285,0H23.35v-.12c-.057-.006-.114-.019-.171-.025V99.232H19.061V121.6c-.057.006-.114.019-.171.025v.12h-.783a6.734,6.734,0,0,1-3.285,0H13.666c-.215-18.674.082-37.147-.076-55.777H9.484V91.67c-.051-.025-.1-.057-.152-.082-3.677-1.958-5-3.557-5.06-7.082-.126-7.025.032-14.056.171-21.081v-.057a10.285,10.285,0,0,1,.284-2.249v-.006a8.817,8.817,0,0,1,5.85-6.741,11.3,11.3,0,0,1,2.211-.537,11.173,11.173,0,0,1,2.255-.19c.556.006,1.106.013,1.661.013h.284c1.263-.006,2.533-.006,3.8,0h.67c1.263-.006,2.533-.006,3.8,0,.095.006.19,0,.284,0,.556,0,1.106-.006,1.661-.013a11.173,11.173,0,0,1,2.255.19,11.3,11.3,0,0,1,2.211.537,8.817,8.817,0,0,1,5.85,6.741v.006a10.285,10.285,0,0,1,.284,2.249v.057c.139,7.025.3,14.056.171,21.081-.063,3.525-1.384,5.123-5.06,7.082-.051.025-.1.057-.152.082V65.965Z" transform="translate(0 -18.176)" fill="#557996" stroke="#fff" stroke-width="1.25"/>
          <path id="Path_152" data-name="Path 152" d="M23.062,0A13.515,13.515,0,0,0,9.524,13.938,13.664,13.664,0,1,0,23.062,0m.14,22.932a8.866,8.866,0,0,1-9.261-9.015A9.1,9.1,0,0,1,23.3,4.291a9.167,9.167,0,0,1,9.141,9.255A8.957,8.957,0,0,1,23.2,22.934" transform="translate(-1.767 0)" fill="#557996" stroke="#fff" stroke-width="1.25"/>
        </g>
      </g>
      <g id="Group_130" data-name="Group 130" transform="translate(0 64.117)">
        <g id="Group_129" data-name="Group 129" transform="translate(0 0)" clip-path="url(#clip-path-2)">
          <path id="Path_153" data-name="Path 153" d="M52.2,102.022c2.764-2.324,2.552-7.227,1.636-11.081-1.061-4.473-1.769-9.034-2.66-13.545L48.545,65.716l-.006-.006V65.7c-2.154-6.728-6.76-10.759-13.033-11-5.673-.221-11.365-.069-17.038.114-5.073.171-8.623,2.963-11.011,7.265a35.4,35.4,0,0,0-1.813,4.157v.006l-2.445,12-.36,1.769c-.512,2.533-1.042,5.067-1.567,7.6L.33,92.2.077,93.986c-.227,2.773-.074,5.782,2.2,8.042L6.1,104.8c.613.36,1.289.758,1.958,1.15-.246,1.421-.436,2.66-.67,3.892s-.531,2.47-.758,3.708c-.777,4.3,1.068,6.93,5.345,7.625.79.126,1.592.164,2.571.265,0,3.677-.057,7.139.013,10.6.082,4.549,2.293,6.766,6.8,6.842,3.582.063,7.158.025,10.74.013,5.692-.019,7.827-2.116,7.853-7.739.013-3.235.006-6.469.006-9.735.752-.1,1.15-.171,1.56-.208,5.262-.524,7.082-2.988,6.128-8.263-.423-2.35-.8-4.707-1.207-7.044a4.26,4.26,0,0,1,1.289-.872ZM25.132,134.184a7.911,7.911,0,0,1-1.232.341c-4.8.31-4.953.171-4.953-4.624v-8.434h6.185Zm10.209.114c-1.87.1-3.683.2-5.749.31V121.316h5.749Zm10.2-33.141c-1.87-9.786-3.67-19.237-5.509-28.89-1.459.2-2.66.366-4.195.581,2.514,14.675,5.49,28.991,8.055,43.7H11.044a15.248,15.248,0,0,1,.025-2.748q3.563-19.047,7.189-38.075c.152-.821.145-1.661.246-2.837-1.245-.221-2.42-.423-4.018-.7-1.845,9.659-3.67,19.186-5.5,28.776a8.324,8.324,0,0,1-2.957-2,5.759,5.759,0,0,1-1.276-5.288Q5.33,90.812,5.9,87.94q1.886-9.429,3.74-18.864c1.453-7.36,5.06-10.335,12.685-10.329,4.1,0,8.206.114,12.306.126,4.827.013,8.977,4.043,9.836,8.6.979,5.237,2.066,10.449,3.159,15.667.745,3.582,1.5,7.164,2.224,10.752.569,2.8-.284,4.681-3.127,6.545-.36.24-.758.48-1.188.72" transform="translate(0 -20.102)" fill="#557996" stroke="#fff" stroke-width="1.25"/>
          <path id="Path_154" data-name="Path 154" d="M46.9,15.184c.255,7-6.091,14.895-15.232,14.615A14.9,14.9,0,0,1,17.174,14.681,15.052,15.052,0,0,1,32.5,0c7.674.159,14.754,7.045,14.4,15.18m-14.835,10.2c5.152.413,10.544-4.357,10.471-10.165C42.459,9.149,38.186,4.5,32.268,4.41a10.613,10.613,0,0,0-10.738,10.4c-.187,5.526,4.846,10.841,10.535,10.57" transform="translate(-4.581 0)" fill="#557996" stroke="#fff" stroke-width="1.25"/>
        </g>
      </g>
      <ellipse id="Ellipse_22" data-name="Ellipse 22" cx="16.283" cy="26.75" rx="16.283" ry="26.75" transform="translate(101.203)" fill="#fff"/>
      <g id="Group_131" data-name="Group 131" transform="translate(89.814 148.34)">
        <g id="Group_129-2" data-name="Group 129" transform="translate(0 0)" clip-path="url(#clip-path-2)">
          <path id="Path_153-2" data-name="Path 153" d="M52.2,102.022c2.764-2.324,2.552-7.227,1.636-11.081-1.061-4.473-1.769-9.034-2.66-13.545L48.545,65.716l-.006-.006V65.7c-2.154-6.728-6.76-10.759-13.033-11-5.673-.221-11.365-.069-17.038.114-5.073.171-8.623,2.963-11.011,7.265a35.4,35.4,0,0,0-1.813,4.157v.006l-2.445,12-.36,1.769c-.512,2.533-1.042,5.067-1.567,7.6L.33,92.2.077,93.986c-.227,2.773-.074,5.782,2.2,8.042L6.1,104.8c.613.36,1.289.758,1.958,1.15-.246,1.421-.436,2.66-.67,3.892s-.531,2.47-.758,3.708c-.777,4.3,1.068,6.93,5.345,7.625.79.126,1.592.164,2.571.265,0,3.677-.057,7.139.013,10.6.082,4.549,2.293,6.766,6.8,6.842,3.582.063,7.158.025,10.74.013,5.692-.019,7.827-2.116,7.853-7.739.013-3.235.006-6.469.006-9.735.752-.1,1.15-.171,1.56-.208,5.262-.524,7.082-2.988,6.128-8.263-.423-2.35-.8-4.707-1.207-7.044a4.26,4.26,0,0,1,1.289-.872ZM25.132,134.184a7.911,7.911,0,0,1-1.232.341c-4.8.31-4.953.171-4.953-4.624v-8.434h6.185Zm10.209.114c-1.87.1-3.683.2-5.749.31V121.316h5.749Zm10.2-33.141c-1.87-9.786-3.67-19.237-5.509-28.89-1.459.2-2.66.366-4.195.581,2.514,14.675,5.49,28.991,8.055,43.7H11.044a15.248,15.248,0,0,1,.025-2.748q3.563-19.047,7.189-38.075c.152-.821.145-1.661.246-2.837-1.245-.221-2.42-.423-4.018-.7-1.845,9.659-3.67,19.186-5.5,28.776a8.324,8.324,0,0,1-2.957-2,5.759,5.759,0,0,1-1.276-5.288Q5.33,90.812,5.9,87.94q1.886-9.429,3.74-18.864c1.453-7.36,5.06-10.335,12.685-10.329,4.1,0,8.206.114,12.306.126,4.827.013,8.977,4.043,9.836,8.6.979,5.237,2.066,10.449,3.159,15.667.745,3.582,1.5,7.164,2.224,10.752.569,2.8-.284,4.681-3.127,6.545-.36.24-.758.48-1.188.72" transform="translate(0 -20.102)" fill="#557996" stroke="#fff" stroke-width="1.25"/>
          <path id="Path_154-2" data-name="Path 154" d="M46.9,15.184c.255,7-6.091,14.895-15.232,14.615A14.9,14.9,0,0,1,17.174,14.681,15.052,15.052,0,0,1,32.5,0c7.674.159,14.754,7.045,14.4,15.18m-14.835,10.2c5.152.413,10.544-4.357,10.471-10.165C42.459,9.149,38.186,4.5,32.268,4.41a10.613,10.613,0,0,0-10.738,10.4c-.187,5.526,4.846,10.841,10.535,10.57" transform="translate(-4.581 0)" fill="#557996" stroke="#fff" stroke-width="1.25"/>
        </g>
      </g>
      <g id="Group_132" data-name="Group 132" transform="translate(89.815 5.002)">
        <g id="Group_129-3" data-name="Group 129" transform="translate(0)" clip-path="url(#clip-path-2)">
          <path id="Path_153-3" data-name="Path 153" d="M52.2,102.022c2.764-2.324,2.552-7.227,1.636-11.081-1.061-4.473-1.769-9.034-2.66-13.545L48.545,65.716l-.006-.006V65.7c-2.154-6.728-6.76-10.759-13.033-11-5.673-.221-11.365-.069-17.038.114-5.073.171-8.623,2.963-11.011,7.265a35.4,35.4,0,0,0-1.813,4.157v.006l-2.445,12-.36,1.769c-.512,2.533-1.042,5.067-1.567,7.6L.33,92.2.077,93.986c-.227,2.773-.074,5.782,2.2,8.042L6.1,104.8c.613.36,1.289.758,1.958,1.15-.246,1.421-.436,2.66-.67,3.892s-.531,2.47-.758,3.708c-.777,4.3,1.068,6.93,5.345,7.625.79.126,1.592.164,2.571.265,0,3.677-.057,7.139.013,10.6.082,4.549,2.293,6.766,6.8,6.842,3.582.063,7.158.025,10.74.013,5.692-.019,7.827-2.116,7.853-7.739.013-3.235.006-6.469.006-9.735.752-.1,1.15-.171,1.56-.208,5.262-.524,7.082-2.988,6.128-8.263-.423-2.35-.8-4.707-1.207-7.044a4.26,4.26,0,0,1,1.289-.872ZM25.132,134.184a7.911,7.911,0,0,1-1.232.341c-4.8.31-4.953.171-4.953-4.624v-8.434h6.185Zm10.209.114c-1.87.1-3.683.2-5.749.31V121.316h5.749Zm10.2-33.141c-1.87-9.786-3.67-19.237-5.509-28.89-1.459.2-2.66.366-4.195.581,2.514,14.675,5.49,28.991,8.055,43.7H11.044a15.248,15.248,0,0,1,.025-2.748q3.563-19.047,7.189-38.075c.152-.821.145-1.661.246-2.837-1.245-.221-2.42-.423-4.018-.7-1.845,9.659-3.67,19.186-5.5,28.776a8.324,8.324,0,0,1-2.957-2,5.759,5.759,0,0,1-1.276-5.288Q5.33,90.812,5.9,87.94q1.886-9.429,3.74-18.864c1.453-7.36,5.06-10.335,12.685-10.329,4.1,0,8.206.114,12.306.126,4.827.013,8.977,4.043,9.836,8.6.979,5.237,2.066,10.449,3.159,15.667.745,3.582,1.5,7.164,2.224,10.752.569,2.8-.284,4.681-3.127,6.545-.36.24-.758.48-1.188.72" transform="translate(0 -20.102)" fill="#557996" stroke="#fff" stroke-width="1.25"/>
          <path id="Path_154-3" data-name="Path 154" d="M46.9,15.184c.255,7-6.091,14.895-15.232,14.615A14.9,14.9,0,0,1,17.174,14.681,15.052,15.052,0,0,1,32.5,0c7.674.159,14.754,7.045,14.4,15.18m-14.835,10.2c5.152.413,10.544-4.357,10.471-10.165C42.459,9.149,38.186,4.5,32.268,4.41a10.613,10.613,0,0,0-10.738,10.4c-.187,5.526,4.846,10.841,10.535,10.57" transform="translate(-4.581 0)" fill="#557996" stroke="#fff" stroke-width="1.25"/>
        </g>
      </g>
    </g>
    <g id="Group_136" data-name="Group 136" transform="translate(664.341 556.576)">
      <g id="Ellipse_14" data-name="Ellipse 14" transform="translate(4.652 16.705)" fill="none" stroke="#a9253f" stroke-width="1.5" stroke-dasharray="3">
        <ellipse cx="83.158" cy="83.74" rx="83.158" ry="83.74" stroke="none"/>
        <ellipse cx="83.158" cy="83.74" rx="82.408" ry="82.99" fill="none"/>
      </g>
      <ellipse id="Ellipse_15" data-name="Ellipse 15" cx="16.283" cy="26.75" rx="16.283" ry="26.75" transform="translate(71.75 0.423)" fill="#fff"/>
      <ellipse id="Ellipse_16" data-name="Ellipse 16" cx="31.402" cy="43.033" rx="31.402" ry="43.033" transform="translate(0 108.586)" fill="#fff"/>
      <ellipse id="Ellipse_17" data-name="Ellipse 17" cx="27.332" cy="43.033" rx="27.332" ry="43.033" transform="translate(116.305 108.586)" fill="#fff"/>
      <g id="Group_134" data-name="Group 134" transform="translate(121.316 86.997)">
        <g id="Group_127-2" data-name="Group 127" transform="translate(0 0)" clip-path="url(#clip-path)">
          <path id="Path_151-2" data-name="Path 151" d="M42.233,63.785a13.656,13.656,0,0,0-2.647-8.307,13.245,13.245,0,0,0-9.874-5.844q-4.255-.208-8.535-.278a.343.343,0,0,1-.114,0q-4.274.066-8.535.278a13.245,13.245,0,0,0-9.874,5.844A13.656,13.656,0,0,0,.007,63.785c.246,6.728.227,13.475,0,20.2a12.048,12.048,0,0,0,2.382,7.726,11.7,11.7,0,0,0,2.2,2.236c.013.006.025.019.038.025.714.467,1.472.91,2.274,1.371.3.139.6.259.91.373.486.171.954.385,1.725.7v3.045c0,6.734-.025,13.469.013,20.21.019,3.683,1.352,5.717,4.252,6.374.114.025.227.051.347.07a.9.9,0,0,1,.126.025c.253.038.512.07.783.095.139.013.284.025.43.032l.278.019c.1,0,.2.006.3.006.291.006.575.006.865.006H17.2q1.744.019,3.487.019h.859q1.744,0,3.487-.019h.272c.291,0,.575,0,.865-.006.1,0,.2-.006.3-.006s.19-.006.278-.019c.145-.006.291-.019.43-.032.272-.025.531-.057.783-.095a.745.745,0,0,0,.126-.025c.12-.019.234-.044.347-.07,2.9-.657,4.233-2.691,4.252-6.374.038-6.741.013-13.475.013-20.21V96.421c.771-.316,1.238-.531,1.725-.7.31-.114.613-.234.91-.373.8-.461,1.56-.9,2.274-1.371.013-.006.025-.019.038-.025a11.7,11.7,0,0,0,2.2-2.236,12.048,12.048,0,0,0,2.382-7.726c-.227-6.728-.246-13.475,0-20.2m-13.582,2.18c-.158,18.63.139,37.1-.076,55.777H27.419a6.734,6.734,0,0,1-3.285,0H23.35v-.12c-.057-.006-.114-.019-.171-.025V99.232H19.061V121.6c-.057.006-.114.019-.171.025v.12h-.783a6.734,6.734,0,0,1-3.285,0H13.666c-.215-18.674.082-37.147-.076-55.777H9.484V91.67c-.051-.025-.1-.057-.152-.082-3.677-1.958-5-3.557-5.06-7.082-.126-7.025.032-14.056.171-21.081v-.057a10.285,10.285,0,0,1,.284-2.249v-.006a8.817,8.817,0,0,1,5.85-6.741,11.3,11.3,0,0,1,2.211-.537,11.173,11.173,0,0,1,2.255-.19c.556.006,1.106.013,1.661.013h.284c1.263-.006,2.533-.006,3.8,0h.67c1.263-.006,2.533-.006,3.8,0,.095.006.19,0,.284,0,.556,0,1.106-.006,1.661-.013a11.173,11.173,0,0,1,2.255.19,11.3,11.3,0,0,1,2.211.537,8.817,8.817,0,0,1,5.85,6.741v.006a10.285,10.285,0,0,1,.284,2.249v.057c.139,7.025.3,14.056.171,21.081-.063,3.525-1.384,5.123-5.06,7.082-.051.025-.1.057-.152.082V65.965Z" transform="translate(0 -18.176)" fill="#557996" stroke="#fff" stroke-width="1.25"/>
          <path id="Path_152-2" data-name="Path 152" d="M23.062,0A13.515,13.515,0,0,0,9.524,13.938,13.664,13.664,0,1,0,23.062,0m.14,22.932a8.866,8.866,0,0,1-9.261-9.015A9.1,9.1,0,0,1,23.3,4.291a9.167,9.167,0,0,1,9.141,9.255A8.957,8.957,0,0,1,23.2,22.934" transform="translate(-1.767 0)" fill="#557996" stroke="#fff" stroke-width="1.25"/>
        </g>
      </g>
      <g id="Group_135" data-name="Group 135" transform="translate(67.086 0)">
        <g id="Group_127-3" data-name="Group 127" transform="translate(0 0)" clip-path="url(#clip-path)">
          <path id="Path_151-3" data-name="Path 151" d="M42.233,63.785a13.656,13.656,0,0,0-2.647-8.307,13.245,13.245,0,0,0-9.874-5.844q-4.255-.208-8.535-.278a.343.343,0,0,1-.114,0q-4.274.066-8.535.278a13.245,13.245,0,0,0-9.874,5.844A13.656,13.656,0,0,0,.007,63.785c.246,6.728.227,13.475,0,20.2a12.048,12.048,0,0,0,2.382,7.726,11.7,11.7,0,0,0,2.2,2.236c.013.006.025.019.038.025.714.467,1.472.91,2.274,1.371.3.139.6.259.91.373.486.171.954.385,1.725.7v3.045c0,6.734-.025,13.469.013,20.21.019,3.683,1.352,5.717,4.252,6.374.114.025.227.051.347.07a.9.9,0,0,1,.126.025c.253.038.512.07.783.095.139.013.284.025.43.032l.278.019c.1,0,.2.006.3.006.291.006.575.006.865.006H17.2q1.744.019,3.487.019h.859q1.744,0,3.487-.019h.272c.291,0,.575,0,.865-.006.1,0,.2-.006.3-.006s.19-.006.278-.019c.145-.006.291-.019.43-.032.272-.025.531-.057.783-.095a.745.745,0,0,0,.126-.025c.12-.019.234-.044.347-.07,2.9-.657,4.233-2.691,4.252-6.374.038-6.741.013-13.475.013-20.21V96.421c.771-.316,1.238-.531,1.725-.7.31-.114.613-.234.91-.373.8-.461,1.56-.9,2.274-1.371.013-.006.025-.019.038-.025a11.7,11.7,0,0,0,2.2-2.236,12.048,12.048,0,0,0,2.382-7.726c-.227-6.728-.246-13.475,0-20.2m-13.582,2.18c-.158,18.63.139,37.1-.076,55.777H27.419a6.734,6.734,0,0,1-3.285,0H23.35v-.12c-.057-.006-.114-.019-.171-.025V99.232H19.061V121.6c-.057.006-.114.019-.171.025v.12h-.783a6.734,6.734,0,0,1-3.285,0H13.666c-.215-18.674.082-37.147-.076-55.777H9.484V91.67c-.051-.025-.1-.057-.152-.082-3.677-1.958-5-3.557-5.06-7.082-.126-7.025.032-14.056.171-21.081v-.057a10.285,10.285,0,0,1,.284-2.249v-.006a8.817,8.817,0,0,1,5.85-6.741,11.3,11.3,0,0,1,2.211-.537,11.173,11.173,0,0,1,2.255-.19c.556.006,1.106.013,1.661.013h.284c1.263-.006,2.533-.006,3.8,0h.67c1.263-.006,2.533-.006,3.8,0,.095.006.19,0,.284,0,.556,0,1.106-.006,1.661-.013a11.173,11.173,0,0,1,2.255.19,11.3,11.3,0,0,1,2.211.537,8.817,8.817,0,0,1,5.85,6.741v.006a10.285,10.285,0,0,1,.284,2.249v.057c.139,7.025.3,14.056.171,21.081-.063,3.525-1.384,5.123-5.06,7.082-.051.025-.1.057-.152.082V65.965Z" transform="translate(0 -18.176)" fill="#557996" stroke="#fff" stroke-width="1.25"/>
          <path id="Path_152-3" data-name="Path 152" d="M23.062,0A13.515,13.515,0,0,0,9.524,13.938,13.664,13.664,0,1,0,23.062,0m.14,22.932a8.866,8.866,0,0,1-9.261-9.015A9.1,9.1,0,0,1,23.3,4.291a9.167,9.167,0,0,1,9.141,9.255A8.957,8.957,0,0,1,23.2,22.934" transform="translate(-1.767 0)" fill="#557996" stroke="#fff" stroke-width="1.25"/>
        </g>
      </g>
      <g id="Group_133" data-name="Group 133" transform="translate(4.95 81.836)">
        <g id="Group_129-4" data-name="Group 129" transform="translate(0 0)" clip-path="url(#clip-path-2)">
          <path id="Path_153-4" data-name="Path 153" d="M52.2,102.022c2.764-2.324,2.552-7.227,1.636-11.081-1.061-4.473-1.769-9.034-2.66-13.545L48.545,65.716l-.006-.006V65.7c-2.154-6.728-6.76-10.759-13.033-11-5.673-.221-11.365-.069-17.038.114-5.073.171-8.623,2.963-11.011,7.265a35.4,35.4,0,0,0-1.813,4.157v.006l-2.445,12-.36,1.769c-.512,2.533-1.042,5.067-1.567,7.6L.33,92.2.077,93.986c-.227,2.773-.074,5.782,2.2,8.042L6.1,104.8c.613.36,1.289.758,1.958,1.15-.246,1.421-.436,2.66-.67,3.892s-.531,2.47-.758,3.708c-.777,4.3,1.068,6.93,5.345,7.625.79.126,1.592.164,2.571.265,0,3.677-.057,7.139.013,10.6.082,4.549,2.293,6.766,6.8,6.842,3.582.063,7.158.025,10.74.013,5.692-.019,7.827-2.116,7.853-7.739.013-3.235.006-6.469.006-9.735.752-.1,1.15-.171,1.56-.208,5.262-.524,7.082-2.988,6.128-8.263-.423-2.35-.8-4.707-1.207-7.044a4.26,4.26,0,0,1,1.289-.872ZM25.132,134.184a7.911,7.911,0,0,1-1.232.341c-4.8.31-4.953.171-4.953-4.624v-8.434h6.185Zm10.209.114c-1.87.1-3.683.2-5.749.31V121.316h5.749Zm10.2-33.141c-1.87-9.786-3.67-19.237-5.509-28.89-1.459.2-2.66.366-4.195.581,2.514,14.675,5.49,28.991,8.055,43.7H11.044a15.248,15.248,0,0,1,.025-2.748q3.563-19.047,7.189-38.075c.152-.821.145-1.661.246-2.837-1.245-.221-2.42-.423-4.018-.7-1.845,9.659-3.67,19.186-5.5,28.776a8.324,8.324,0,0,1-2.957-2,5.759,5.759,0,0,1-1.276-5.288Q5.33,90.812,5.9,87.94q1.886-9.429,3.74-18.864c1.453-7.36,5.06-10.335,12.685-10.329,4.1,0,8.206.114,12.306.126,4.827.013,8.977,4.043,9.836,8.6.979,5.237,2.066,10.449,3.159,15.667.745,3.582,1.5,7.164,2.224,10.752.569,2.8-.284,4.681-3.127,6.545-.36.24-.758.48-1.188.72" transform="translate(0 -20.102)" fill="#557996" stroke="#fff" stroke-width="1.25"/>
          <path id="Path_154-4" data-name="Path 154" d="M46.9,15.184c.255,7-6.091,14.895-15.232,14.615A14.9,14.9,0,0,1,17.174,14.681,15.052,15.052,0,0,1,32.5,0c7.674.159,14.754,7.045,14.4,15.18m-14.835,10.2c5.152.413,10.544-4.357,10.471-10.165C42.459,9.149,38.186,4.5,32.268,4.41a10.613,10.613,0,0,0-10.738,10.4c-.187,5.526,4.846,10.841,10.535,10.57" transform="translate(-4.581 0)" fill="#557996" stroke="#fff" stroke-width="1.25"/>
        </g>
      </g>
    </g>
    <path id="Path_155" data-name="Path 155" d="M0,0H120.568" transform="translate(618.464 511.968) rotate(23)" fill="none" stroke="#a9253f" stroke-width="1.5" stroke-dasharray="3"/>
  </g>
</svg>
