<svg xmlns="http://www.w3.org/2000/svg" width="480" height="480" viewBox="0 0 480 480">
  <g id="Group_328" data-name="Group 328" transform="translate(-1381 -312)">
    <g id="Rectangle_72" data-name="Rectangle 72" transform="translate(1491.089 771.132) rotate(-135)" fill="none" stroke="#1d3c64" stroke-width="1.5" stroke-dasharray="3">
      <rect width="120" height="480" rx="60" stroke="none"/>
      <rect x="0.75" y="0.75" width="118.5" height="478.5" rx="59.25" fill="none"/>
    </g>
    <g id="Rectangle_69" data-name="Rectangle 69" transform="translate(1381 612) rotate(-90)" fill="none" stroke="#a9253f" stroke-width="1.5" stroke-dasharray="3">
      <rect width="120" height="480" rx="60" stroke="none"/>
      <rect x="0.75" y="0.75" width="118.5" height="478.5" rx="59.25" fill="none"/>
    </g>
    <g id="Rectangle_71" data-name="Rectangle 71" transform="translate(1408.868 431.721) rotate(-45)" fill="none" stroke="#1d3c64" stroke-width="1.5" stroke-dasharray="3">
      <rect width="120" height="480" rx="60" stroke="none"/>
      <rect x="0.75" y="0.75" width="118.5" height="478.5" rx="59.25" fill="none"/>
    </g>
    <g id="Rectangle_70" data-name="Rectangle 70" transform="translate(1561 312)" fill="none" stroke="#a9253f" stroke-width="1.5" stroke-dasharray="3">
      <rect width="120" height="480" rx="60" stroke="none"/>
      <rect x="0.75" y="0.75" width="118.5" height="478.5" rx="59.25" fill="none"/>
    </g>
    <g id="Ellipse_55" data-name="Ellipse 55" transform="translate(1521 451)" fill="#fff" stroke="#707070" stroke-width="1">
      <circle cx="100.5" cy="100.5" r="100.5" stroke="none"/>
      <circle cx="100.5" cy="100.5" r="100" fill="none"/>
    </g>
    <text id="Intersecting_Self" data-name="Intersecting
Self" transform="translate(1622 570)" fill="#a9253f" font-size="19" font-family="LibreBaskerville-Regular, Libre Baskerville" letter-spacing="0.03em"><tspan x="-86.602" y="0">INTERSECTING</tspan><tspan x="-27.151" y="23">SELF</tspan></text>
    <text id="Gender" transform="translate(1392 540)" fill="#707070" font-size="20" font-family="Montserrat"><tspan x="-37.36" y="19">Gender</tspan></text>
    <text id="Ability" transform="translate(1697 414)" fill="#707070" font-size="20" font-family="Montserrat"><tspan x="-31.4" y="19">Ability</tspan></text>
    <text id="Race" transform="translate(1568 347)" fill="#707070" font-size="20" font-family="Montserrat"><tspan x="-24.66" y="19">Race</tspan></text>
    <text id="Income" transform="translate(1440 686)" fill="#707070" font-size="20" font-family="Montserrat"><tspan x="-38.24" y="19">Income</tspan></text>
    <text id="Education" transform="translate(1738 541)" fill="#707070" font-size="20" font-family="Montserrat"><tspan x="1.58" y="19">Education</tspan></text>
    <text id="Religion" transform="translate(1697 686)" fill="#707070" font-size="20" font-family="Montserrat"><tspan x="-41.22" y="19">Religion</tspan></text>
    <text id="Sexuality" transform="translate(1568 728)" fill="#707070" font-size="20" font-family="Montserrat"><tspan x="-44.66" y="19">Sexuality</tspan></text>
    <text id="Family_Values" data-name="Family Values" transform="translate(1440 402)" fill="#707070" font-size="20" font-family="Montserrat"><tspan x="-33.43" y="19">Family </tspan><tspan x="-32.66" y="44">Values</tspan></text>
  </g>
</svg>
