<svg xmlns="http://www.w3.org/2000/svg" xmlns:xlink="http://www.w3.org/1999/xlink" width="452.632" height="343.685" viewBox="0 0 452.632 343.685">
  <defs>
    <clipPath id="clip-path">
      <rect id="Rectangle_34" data-name="Rectangle 34" width="107.315" height="76.074" fill="#1d3c64" stroke="#fff" stroke-linecap="round" stroke-linejoin="round" stroke-width="1.5"/>
    </clipPath>
    <clipPath id="clip-path-2">
      <rect id="Rectangle_38" data-name="Rectangle 38" width="33.101" height="84.746" fill="#1d3c64" stroke="#fff" stroke-width="1.25"/>
    </clipPath>
    <clipPath id="clip-path-4">
      <rect id="Rectangle_39" data-name="Rectangle 39" width="39.078" height="85.273" fill="#1d3c64" stroke="#fff" stroke-width="1.25"/>
    </clipPath>
  </defs>
  <g id="Group_495" data-name="Group 495" transform="translate(-735.19 -486.389)">
    <g id="Group_104" data-name="Group 104" transform="translate(906 774.001)">
      <g id="Group_103" data-name="Group 103" transform="translate(0 -20.001)" clip-path="url(#clip-path)">
        <path id="Path_66" data-name="Path 66" d="M53.646,76.059q-11.969,0-23.939,0a14.9,14.9,0,0,1-1.972-.035c-1.223-.164-1.67-.686-1.749-1.957-.041-.656-.01-1.316-.01-1.974q0-19.5,0-38.993c0-2.807.285-2.49-2.5-2.5q-6.786-.02-13.573,0c-1.6.006-1.636.037-1.641,1.624-.015,5.594-.006,11.188-.006,16.782q0,10.489,0,20.977c0,.494.033.989,0,1.48-.064.856.318,1.153,1.155,1.146,3.208-.026,6.416-.009,9.624-.007a16.105,16.105,0,0,1,1.727.018c1.181.129,2.047.928,2.009,1.782-.043.95-.8,1.6-2.094,1.639-1.808.052-3.619.014-5.429.014-2.632,0-5.265.023-7.9-.008C5.53,76.029,5,75.533,4.825,73.77,4.761,73.118,4.8,72.455,4.8,71.8q0-19,0-38.006c0-.411,0-.823,0-1.234.012-1.789.16-2.024-1.826-1.962-.328.011-.658,0-.986,0A1.667,1.667,0,0,1,.128,29C0,26.791-.027,24.569.027,22.355.049,21.43.8,20.934,1.69,20.8a12.091,12.091,0,0,1,1.725-.03H23.4c.494,0,.989-.035,1.48,0,.9.066,1.131-.417,1.094-1.2-.027-.575,0-1.152,0-1.727,0-12.916,0-1.13,0-14.046,0-.576-.038-1.155.012-1.727C26.123.56,26.623.1,28.158.019c.492-.025.987-.005,1.48-.005H77.515c.577,0,1.156-.038,1.727.013,1.519.134,1.985.632,2.061,2.166.028.575.005,1.151.005,1.727v13.8c0,.494-.011.988,0,1.481.041,1.536.045,1.538,1.7,1.574.494.01.987,0,1.481,0h19c.576,0,1.155-.034,1.727.01,1.286.1,1.893.5,1.978,1.749a61.455,61.455,0,0,1,.066,6.4c-.038,1.071-.771,1.539-2.082,1.656-.8.072-2.075-.145-2.313.256a5.825,5.825,0,0,0-.37,2.811q-.028,19.126-.012,38.252c0,.576.028,1.154-.006,1.727-.1,1.7-.723,2.384-2.437,2.4-4.443.046-8.884.014-13.327.013-.082,0-.165,0-.247-.007-1.153-.1-1.947-.663-2.022-1.43a2,2,0,0,1,2.075-1.977c3.289-.064,6.581-.018,9.87-.039,3-.02,2.632.354,2.635-2.607q.019-18.386.005-36.772c0-.494-.034-.989,0-1.48.063-.852-.307-1.171-1.15-1.151-1.562.037-3.126.007-4.688.007-3.537,0-7.075.022-10.612-.013-.944-.01-1.375.294-1.284,1.274.053.571.009,1.151.009,1.727q0,19.25,0,38.5c0,.411.008.822,0,1.234-.055,2.347-.409,2.731-2.735,2.735q-11.476.023-22.951.006H53.646M77.854,25.835c0-14.881,0-5.062,0-19.944,0-2.79.171-2.531-2.512-2.532q-21.582-.007-43.165,0c-3.027,0-2.743-.342-2.744,2.789,0,29.516,0,34.332,0,63.848,0,.494.033.989,0,1.48-.06.871.364,1.138,1.179,1.131,2.8-.024,5.591.009,8.386-.011,1.7-.012,1.727-.039,1.731-1.807q.019-9.743,0-19.486a5.512,5.512,0,0,0-.145-2.417c-.227-.418-1.3-.334-1.964-.569-.747-.266-1.37-.855-1.19-1.646a2.524,2.524,0,0,1,1.2-1.355,3.551,3.551,0,0,1,1.674-.257q13.32-.021,26.639,0a4.474,4.474,0,0,1,1.909.331c.445.218,1,.829.977,1.23a3.215,3.215,0,0,1-.925,1.594,1.236,1.236,0,0,1-.934.185c-1.335-.156-1.421.618-1.416,1.657.028,6.906.006,13.813.019,20.719,0,1.778.032,1.8,1.726,1.818,2.3.023,4.6.019,6.906,0,2.986-.021,2.638.333,2.64-2.615q.016-22.076,0-44.152M43.848,60.393c0,3.532-.014,7.065.007,10.6.009,1.567.041,1.587,1.677,1.609,1.725.024,3.45.031,5.175,0,1.319-.027,1.362-.061,1.368-1.42.02-4.846.008-9.693.009-14.54,0-.575-.036-1.154.017-1.724a1.545,1.545,0,0,1,1.528-1.585c.945-.065,1.334.573,1.485,1.328a10.184,10.184,0,0,1,.084,1.963c.005,4.846-.009,9.693.011,14.54.005,1.376.048,1.412,1.35,1.437q2.71.053,5.421,0c1.382-.025,1.436-.056,1.441-1.348q.028-10.721,0-21.441c0-1.321-.05-1.369-1.4-1.374q-8.379-.03-16.758,0c-1.357,0-1.4.052-1.408,1.364-.024,3.532-.008,7.065-.009,10.6M14.5,27.19c3.372,0,6.744.017,10.115-.008,1.342-.01,1.342-.052,1.355-1.418.015-1.441-.033-1.567-1.2-1.571q-10.115-.032-20.23,0c-1.2,0-1.238.114-1.231,1.538.008,1.4.009,1.444,1.319,1.453,3.289.022,6.578.007,9.867.007m77.993,0c3.371,0,6.742.014,10.114-.007,1.342-.008,1.342-.043,1.355-1.419.015-1.441-.033-1.567-1.2-1.571q-10.116-.032-20.231,0c-1.2,0-1.238.114-1.23,1.538.007,1.395.006,1.44,1.319,1.451,3.289.027,6.579.009,9.868.009" transform="translate(0 0)" fill="#1d3c64" stroke="#fff" stroke-linecap="round" stroke-linejoin="round" stroke-width="1.5"/>
        <path id="Path_67" data-name="Path 67" d="M108.268,30.889c0,1.4.043,2.793-.011,4.186-.066,1.692-.559,2.181-2.232,2.226-1.641.044-3.284.027-4.925.011-.73-.007-1.017.318-1.011,1.036.015,1.724.033,3.449-.025,5.172-.051,1.517-.169,1.62-1.677,1.892a10.029,10.029,0,0,1-1.709.127c-2.217.014-4.434.021-6.65,0-2.483-.021-2.891-.421-2.924-2.82-.018-1.314.017-2.628-.009-3.941-.029-1.419-.047-1.438-1.558-1.462-1.559-.025-3.12.021-4.679-.015-1.362-.032-1.857-.385-1.892-1.688q-.123-4.676-.007-9.357c.034-1.321.69-1.819,2.088-1.87,1.312-.047,2.627,0,3.94-.014,2.07-.025,2.079-.033,2.11-2.011.022-1.4-.024-2.793.033-4.186s.5-2,1.9-2.045c3.034-.1,6.076-.1,9.111,0,1.369.043,1.9.807,1.943,2.326.038,1.394-.016,2.791.016,4.186.038,1.648.072,1.686,1.648,1.725,1.395.035,2.792-.016,4.187.015,1.919.041,2.259.369,2.326,2.32.048,1.394.009,2.791.009,4.187m-3.348.384c0-1.036-.024-1.694.006-2.35.038-.838-.335-1.18-1.165-1.152-.985.033-1.972-.016-2.958.006-3.262.073-4.173.135-4.118-4.246.015-1.225-.08-2.45-.125-3.676-1.287-.1-2.572-.27-3.86-.3-2.327-.056-2.2-.1-2.2,2.073,0,.986.011,1.973,0,2.959-.035,2.534-.5,3.03-2.956,3.183-.246.015-.494-.009-.739.007-1.445.093-2.889.193-4.333.291-.066,1.545-.106,3.092-.207,4.635-.064.981.377,1.3,1.3,1.275,1.56-.037,3.126-.069,4.683.015,1.421.077,1.853.512,2.1,1.9a12.65,12.65,0,0,1,.146,1.955c.024,1.068.037,2.137,0,3.2-.027.846.344,1.171,1.168,1.151,1.232-.03,2.466.024,3.7-.013,1.27-.038,1.293-.067,1.323-1.466.031-1.478-.05-2.962.029-4.437.082-1.523.542-2.006,2.079-2.211a26.032,26.032,0,0,1,2.947-.107c3.644-.067,3.132.509,3.18-2.7" transform="translate(-39.955 -8.131)" fill="#1d3c64" stroke="#fff" stroke-linecap="round" stroke-linejoin="round" stroke-width="1.5"/>
      </g>
    </g>
    <path id="Path_254" data-name="Path 254" d="M0,0H54.532" transform="translate(1022.759 764.528) rotate(-34)" fill="none" stroke="#a9253f" stroke-width="1.5" stroke-dasharray="3"/>
    <path id="Path_255" data-name="Path 255" d="M0,0H52.828" transform="translate(903.763 759.386) rotate(-146)" fill="none" stroke="#a9253f" stroke-width="1.5" stroke-dasharray="3"/>
    <path id="Path_256" data-name="Path 256" d="M0,0H100.12" transform="translate(960.5 744.616) rotate(-90)" fill="none" stroke="#a9253f" stroke-width="1.5" stroke-dasharray="3"/>
    <g id="Group_134" data-name="Group 134" transform="translate(943.949 523.069)">
      <g id="Group_127" data-name="Group 127" transform="translate(0 0)" clip-path="url(#clip-path-2)">
        <path id="Path_151" data-name="Path 151" d="M33.095,60.663a10.7,10.7,0,0,0-2.074-6.51,10.379,10.379,0,0,0-7.738-4.579q-3.334-.163-6.688-.218a.269.269,0,0,1-.089,0q-3.349.052-6.688.218A10.379,10.379,0,0,0,2.08,54.153a10.7,10.7,0,0,0-2.074,6.51c.193,5.272.178,10.559,0,15.832a9.441,9.441,0,0,0,1.866,6.054A9.168,9.168,0,0,0,3.595,84.3c.01,0,.02.015.03.02.559.366,1.153.713,1.782,1.074.233.109.47.2.713.292.381.134.748.3,1.351.55v2.386c0,5.277-.02,10.555.01,15.837.015,2.886,1.059,4.48,3.332,5,.089.02.178.04.272.054a.7.7,0,0,1,.1.02c.2.03.4.054.614.074.109.01.223.02.337.025l.218.015c.079,0,.158,0,.238,0,.228,0,.45,0,.678,0h.213q1.366.015,2.733.015h.673q1.366,0,2.733-.015h.213c.228,0,.45,0,.678,0,.079,0,.158,0,.238,0s.149,0,.218-.015c.114,0,.228-.015.337-.025.213-.02.416-.045.614-.074a.584.584,0,0,0,.1-.02c.094-.015.183-.035.272-.054,2.272-.515,3.317-2.109,3.332-5,.03-5.282.01-10.559.01-15.837V86.237c.6-.248.97-.416,1.351-.55.243-.089.48-.183.713-.292.629-.361,1.223-.708,1.782-1.074.01,0,.02-.015.03-.02a9.169,9.169,0,0,0,1.723-1.752,9.441,9.441,0,0,0,1.866-6.054c-.178-5.272-.193-10.559,0-15.832M22.451,62.371c-.124,14.6.109,29.074-.059,43.708h-.906a5.277,5.277,0,0,1-2.574,0H18.3v-.094c-.045,0-.089-.015-.134-.02V88.44H14.937v17.525c-.045,0-.089.015-.134.02v.094h-.614a5.277,5.277,0,0,1-2.574,0h-.906c-.168-14.634.064-29.109-.059-43.708H7.432V82.515c-.04-.02-.079-.045-.119-.064C4.432,80.916,3.4,79.663,3.347,76.9c-.1-5.5.025-11.015.134-16.52v-.045A8.06,8.06,0,0,1,3.7,58.574v0a6.909,6.909,0,0,1,4.584-5.282,8.854,8.854,0,0,1,1.733-.421,8.755,8.755,0,0,1,1.767-.149c.436,0,.866.01,1.3.01h.223c.99,0,1.985,0,2.975,0h.525c.99,0,1.985,0,2.975,0,.074,0,.149,0,.223,0,.436,0,.866,0,1.3-.01a8.755,8.755,0,0,1,1.767.149,8.854,8.854,0,0,1,1.733.421A6.909,6.909,0,0,1,29.4,58.569v0a8.059,8.059,0,0,1,.223,1.762v.045c.109,5.5.233,11.015.134,16.52-.05,2.762-1.084,4.015-3.965,5.55-.04.02-.079.045-.119.064V62.371Z" transform="translate(0 -24.922)" fill="#1d3c64" stroke="#fff" stroke-width="1.25"/>
        <path id="Path_152" data-name="Path 152" d="M20.132,0A10.59,10.59,0,0,0,9.524,10.922,10.707,10.707,0,1,0,20.132,0m.109,17.97a6.948,6.948,0,0,1-7.257-7.064,7.25,7.25,0,1,1,14.495-.292,7.019,7.019,0,0,1-7.237,7.356" transform="translate(-3.445 0)" fill="#1d3c64" stroke="#fff" stroke-width="1.25"/>
      </g>
    </g>
    <g id="Group_330" data-name="Group 330" transform="translate(1092.276 626.185)">
      <g id="Group_127-2" data-name="Group 127" transform="translate(0 0)" clip-path="url(#clip-path-2)">
        <path id="Path_151-2" data-name="Path 151" d="M33.095,60.663a10.7,10.7,0,0,0-2.074-6.51,10.379,10.379,0,0,0-7.738-4.579q-3.334-.163-6.688-.218a.269.269,0,0,1-.089,0q-3.349.052-6.688.218A10.379,10.379,0,0,0,2.08,54.153a10.7,10.7,0,0,0-2.074,6.51c.193,5.272.178,10.559,0,15.832a9.441,9.441,0,0,0,1.866,6.054A9.168,9.168,0,0,0,3.595,84.3c.01,0,.02.015.03.02.559.366,1.153.713,1.782,1.074.233.109.47.2.713.292.381.134.748.3,1.351.55v2.386c0,5.277-.02,10.555.01,15.837.015,2.886,1.059,4.48,3.332,5,.089.02.178.04.272.054a.7.7,0,0,1,.1.02c.2.03.4.054.614.074.109.01.223.02.337.025l.218.015c.079,0,.158,0,.238,0,.228,0,.45,0,.678,0h.213q1.366.015,2.733.015h.673q1.366,0,2.733-.015h.213c.228,0,.45,0,.678,0,.079,0,.158,0,.238,0s.149,0,.218-.015c.114,0,.228-.015.337-.025.213-.02.416-.045.614-.074a.584.584,0,0,0,.1-.02c.094-.015.183-.035.272-.054,2.272-.515,3.317-2.109,3.332-5,.03-5.282.01-10.559.01-15.837V86.237c.6-.248.97-.416,1.351-.55.243-.089.48-.183.713-.292.629-.361,1.223-.708,1.782-1.074.01,0,.02-.015.03-.02a9.169,9.169,0,0,0,1.723-1.752,9.441,9.441,0,0,0,1.866-6.054c-.178-5.272-.193-10.559,0-15.832M22.451,62.371c-.124,14.6.109,29.074-.059,43.708h-.906a5.277,5.277,0,0,1-2.574,0H18.3v-.094c-.045,0-.089-.015-.134-.02V88.44H14.937v17.525c-.045,0-.089.015-.134.02v.094h-.614a5.277,5.277,0,0,1-2.574,0h-.906c-.168-14.634.064-29.109-.059-43.708H7.432V82.515c-.04-.02-.079-.045-.119-.064C4.432,80.916,3.4,79.663,3.347,76.9c-.1-5.5.025-11.015.134-16.52v-.045A8.06,8.06,0,0,1,3.7,58.574v0a6.909,6.909,0,0,1,4.584-5.282,8.854,8.854,0,0,1,1.733-.421,8.755,8.755,0,0,1,1.767-.149c.436,0,.866.01,1.3.01h.223c.99,0,1.985,0,2.975,0h.525c.99,0,1.985,0,2.975,0,.074,0,.149,0,.223,0,.436,0,.866,0,1.3-.01a8.755,8.755,0,0,1,1.767.149,8.854,8.854,0,0,1,1.733.421A6.909,6.909,0,0,1,29.4,58.569v0a8.059,8.059,0,0,1,.223,1.762v.045c.109,5.5.233,11.015.134,16.52-.05,2.762-1.084,4.015-3.965,5.55-.04.02-.079.045-.119.064V62.371Z" transform="translate(0 -24.922)" fill="#1d3c64" stroke="#fff" stroke-width="1.25"/>
        <path id="Path_152-2" data-name="Path 152" d="M20.132,0A10.59,10.59,0,0,0,9.524,10.922,10.707,10.707,0,1,0,20.132,0m.109,17.97a6.948,6.948,0,0,1-7.257-7.064,7.25,7.25,0,1,1,14.495-.292,7.019,7.019,0,0,1-7.237,7.356" transform="translate(-3.445 0)" fill="#1d3c64" stroke="#fff" stroke-width="1.25"/>
      </g>
    </g>
    <g id="Group_133" data-name="Group 133" transform="translate(794.647 625.658)">
      <g id="Group_129" data-name="Group 129" transform="translate(0 0)" clip-path="url(#clip-path-4)">
        <path id="Path_153" data-name="Path 153" d="M37.462,88.632c1.984-1.668,1.832-5.187,1.174-7.953-.762-3.21-1.27-6.484-1.909-9.721l-1.886-8.384,0,0v0c-1.546-4.829-4.852-7.722-9.354-7.9-4.072-.159-8.157-.05-12.229.082-3.641.122-6.189,2.127-7.9,5.214a25.405,25.405,0,0,0-1.3,2.983v0L2.3,71.566l-.258,1.27C1.67,74.653,1.289,76.472.912,78.29l-.676,3.3L.056,82.865c-.163,1.99-.053,4.15,1.582,5.772l2.739,1.986c.44.258.925.544,1.406.825-.177,1.02-.313,1.909-.481,2.793s-.381,1.773-.544,2.662c-.558,3.083.766,4.974,3.836,5.473.567.091,1.143.118,1.845.19,0,2.639-.041,5.124.009,7.608.059,3.265,1.646,4.856,4.883,4.91,2.571.045,5.137.018,7.708.009,4.085-.014,5.618-1.519,5.636-5.554.009-2.321,0-4.643,0-6.987.54-.073.825-.122,1.12-.15,3.777-.376,5.083-2.145,4.4-5.931-.3-1.687-.576-3.378-.866-5.056a3.058,3.058,0,0,1,.925-.626ZM18.038,111.716a5.678,5.678,0,0,1-.884.245c-3.446.222-3.555.122-3.555-3.319v-6.053h4.439Zm7.327.082c-1.342.073-2.643.141-4.126.222v-9.54h4.126Zm7.318-23.786c-1.342-7.023-2.634-13.806-3.954-20.735-1.047.145-1.909.263-3.011.417,1.8,10.533,3.94,20.807,5.781,31.367H7.927a10.943,10.943,0,0,1,.018-1.972Q10.5,83.418,13.1,69.761c.109-.589.1-1.192.177-2.036-.893-.159-1.737-.3-2.884-.5-1.324,6.933-2.634,13.77-3.949,20.653a5.974,5.974,0,0,1-2.122-1.433,4.133,4.133,0,0,1-.916-3.8q.415-2.061.825-4.122Q5.589,71.758,6.92,64.987c1.043-5.282,3.632-7.418,9.1-7.413,2.943,0,5.89.082,8.832.091a7.582,7.582,0,0,1,7.06,6.171c.7,3.759,1.483,7.5,2.267,11.245.535,2.571,1.079,5.142,1.6,7.717.408,2.013-.2,3.36-2.244,4.7-.258.172-.544.345-.852.517" transform="translate(0 -29.837)" fill="#1d3c64" stroke="#fff" stroke-width="1.25"/>
        <path id="Path_154" data-name="Path 154" d="M38.507,10.9a10.669,10.669,0,1,1-21.335-.361,10.669,10.669,0,1,1,21.335.361M27.86,18.217a7.373,7.373,0,0,0,7.515-7.3c-.055-4.355-3.122-7.692-7.369-7.756A7.617,7.617,0,0,0,20.3,10.63a7.566,7.566,0,0,0,7.561,7.587" transform="translate(-8.134 0)" fill="#1d3c64" stroke="#fff" stroke-width="1.25"/>
      </g>
    </g>
    <g id="Ellipse_56" data-name="Ellipse 56" transform="translate(1029.831 589.504)" fill="none" stroke="#a9253f" stroke-width="1.5" stroke-dasharray="3">
      <ellipse cx="78.996" cy="79.053" rx="78.996" ry="79.053" stroke="none"/>
      <ellipse cx="78.996" cy="79.053" rx="78.246" ry="78.303" fill="none"/>
    </g>
    <g id="Ellipse_57" data-name="Ellipse 57" transform="translate(881.409 486.389)" fill="none" stroke="#a9253f" stroke-width="1.5" stroke-dasharray="3">
      <ellipse cx="78.996" cy="79.053" rx="78.996" ry="79.053" stroke="none"/>
      <ellipse cx="78.996" cy="79.053" rx="78.246" ry="78.303" fill="none"/>
    </g>
    <g id="Ellipse_58" data-name="Ellipse 58" transform="translate(735.19 589.504)" fill="none" stroke="#a9253f" stroke-width="1.5" stroke-dasharray="3">
      <ellipse cx="78.996" cy="79.053" rx="78.996" ry="79.053" stroke="none"/>
      <ellipse cx="78.996" cy="79.053" rx="78.246" ry="78.303" fill="none"/>
    </g>
  </g>
</svg>
