<svg xmlns="http://www.w3.org/2000/svg" xmlns:xlink="http://www.w3.org/1999/xlink" width="985.307" height="90.889" viewBox="0 0 985.307 90.889">
  <defs>
    <clipPath id="clip-path">
      <rect id="Rectangle_39" data-name="Rectangle 39" width="41.651" height="90.889" fill="#395c7e" stroke="#fff" stroke-linecap="round" stroke-linejoin="round" stroke-width="0.25"/>
    </clipPath>
    <clipPath id="clip-path-2">
      <rect id="Rectangle_34" data-name="Rectangle 34" width="93.019" height="65.939" fill="#395c7e"/>
    </clipPath>
  </defs>
  <g id="Group_303" data-name="Group 303" transform="translate(877 19.889)">
    <g id="Rectangle_58" data-name="Rectangle 58" transform="translate(7 0)" fill="#fff" stroke="#395c7e" stroke-width="3">
      <rect width="94" height="55" rx="5" stroke="none"/>
      <rect x="1.5" y="1.5" width="91" height="52" rx="3.5" fill="none"/>
    </g>
    <g id="Path_227" data-name="Path 227" transform="translate(3.332 56)" fill="#fff">
      <path d="M 99.55552673339844 13.5 L 2.008369445800781 13.5 C 0.6576462984085083 13.5 -0.4349229037761688 13.13992309570312 -1.068107485771179 12.48612308502197 C -1.544244408607483 11.99445724487305 -1.799435496330261 11.29655265808105 -1.82878577709198 10.40816020965576 L 1.371193528175354 4.939443111419678 C 1.692280173301697 4.527612686157227 1.940929889678955 4.106894493103027 2.181969404220581 3.699092388153076 C 2.913649082183838 2.461138963699341 3.398552179336548 1.640623807907104 5.606353282928467 1.5 L 95.20939636230469 1.5 C 97.29240417480469 1.5 98.80622100830078 3.013895273208618 100.8520126342773 5.809349060058594 L 103.4528961181641 10.49833106994629 C 103.5358047485352 11.1633358001709 103.3868103027344 11.71662998199463 103.0001525878906 12.18447685241699 C 102.3396759033203 12.9836311340332 100.9875869750977 13.5 99.55552673339844 13.5 Z" stroke="none"/>
      <path d="M 5.656997680664062 3 C 5.174468994140625 3.034235954284668 4.566047668457031 3.129786491394043 4.242790222167969 3.385066986083984 C 3.993705749511719 3.581783294677734 3.764045715332031 3.97035026550293 3.473274230957031 4.462300300598145 C 3.234092712402344 4.867000579833984 2.967025756835938 5.318854331970215 2.618171691894531 5.778469085693359 L -0.293121337890625 10.75381565093994 C -0.2422027587890625 11.05660152435303 -0.14111328125 11.28716850280762 0.00940704345703125 11.44260025024414 C 0.3474273681640625 11.79163360595703 1.094696044921875 12 2.00836181640625 12 L 99.55552673339844 12 C 100.6394958496094 12 101.527229309082 11.61208343505859 101.8439254760742 11.22889995574951 C 101.8923950195312 11.17025279998779 101.9570999145508 11.0919771194458 101.9722518920898 10.9213981628418 L 99.58635711669922 6.619998931884766 C 97.59999084472656 3.917460441589355 96.48529815673828 3 95.20939636230469 3 L 5.656997680664062 3 M 5.560310363769531 0 L 95.20939636230469 0 C 98.15652465820312 0 100.0985260009766 2.230466842651367 102.1183776855469 5 L 104.8917770385742 10 C 105.5171279907227 13.26123332977295 102.5026626586914 15 99.55552673339844 15 L 2.00836181640625 15 C -0.9387741088867188 15 -3.442543029785156 13.57396697998047 -3.327888488769531 10 L 0.1302566528320312 4.090083122253418 C 1.385108947753906 2.542233467102051 1.611274719238281 0.2336502075195312 5.560310363769531 0 Z" stroke="none" fill="#395c7e"/>
    </g>
    <g id="Rectangle_59" data-name="Rectangle 59" transform="translate(41 64)" fill="#fff" stroke="#395c7e" stroke-width="3">
      <rect width="26" height="3" rx="1.5" stroke="none"/>
      <rect x="1.5" y="1.5" width="23" fill="none"/>
    </g>
    <circle id="Ellipse_52" data-name="Ellipse 52" cx="2" cy="2" r="2" transform="translate(52 5)" fill="#395c7e"/>
    <path id="Path_228" data-name="Path 228" d="M-16460.994-11551.03h67.211" transform="translate(16372.494 11593.511)" fill="none" stroke="#a9253f" stroke-width="1.5" stroke-dasharray="3"/>
    <path id="Path_225" data-name="Path 225" d="M-16460.994-11551.03h69.463" transform="translate(16220.494 11593.511)" fill="none" stroke="#a9253f" stroke-width="1.5" stroke-dasharray="3"/>
    <path id="Path_155" data-name="Path 155" d="M-16461-11551.03h438.986" transform="translate(15697.496 11593.511)" fill="none" stroke="#a9253f" stroke-width="1.5" stroke-dasharray="3"/>
    <g id="Group_302" data-name="Group 302" transform="translate(-150.24 -4.267)">
      <g id="Rectangle_55" data-name="Rectangle 55" transform="translate(0.24)" fill="#fff" stroke="#395c7e" stroke-width="3">
        <rect width="41" height="75" rx="10" stroke="none"/>
        <rect x="1.5" y="1.5" width="38" height="72" rx="8.5" fill="none"/>
      </g>
      <circle id="Ellipse_51" data-name="Ellipse 51" cx="2" cy="2" r="2" transform="translate(19.24 66)" fill="#395c7e"/>
      <g id="Rectangle_56" data-name="Rectangle 56" transform="translate(8.24 7)" fill="#fff" stroke="#395c7e" stroke-width="3">
        <rect width="26" height="3" rx="1.5" stroke="none"/>
        <rect x="1.5" y="1.5" width="23" fill="none"/>
      </g>
    </g>
    <g id="Group_300" data-name="Group 300" transform="translate(-303 -4.207)">
      <g id="Group_129" data-name="Group 129" transform="translate(0 -15.682)" clip-path="url(#clip-path)">
        <path id="Path_153" data-name="Path 153" d="M39.929,90.874c2.114-1.778,1.952-5.529,1.252-8.477-.812-3.422-1.353-6.911-2.035-10.361L37.136,63.1l0,0v0c-1.648-5.147-5.171-8.23-9.97-8.419-4.34-.169-8.694-.053-13.034.087-3.881.13-6.6,2.267-8.423,5.558A27.078,27.078,0,0,0,4.317,63.5v0l-1.87,9.182-.275,1.353c-.391,1.938-.8,3.876-1.2,5.814l-.72,3.513L.059,84.727C-.115,86.849,0,89.15,1.746,90.879L4.665,93c.469.275.986.58,1.5.88-.188,1.087-.333,2.035-.512,2.977s-.406,1.89-.58,2.837c-.594,3.286.817,5.3,4.088,5.833.6.1,1.218.126,1.967.2,0,2.813-.043,5.461.01,8.109.063,3.48,1.754,5.176,5.2,5.234,2.74.048,5.475.019,8.216.01,4.354-.014,5.988-1.619,6.007-5.92.01-2.474,0-4.949,0-7.447.575-.077.88-.13,1.194-.159,4.026-.4,5.417-2.286,4.688-6.321-.324-1.8-.614-3.6-.923-5.389a3.259,3.259,0,0,1,.986-.667Zm-20.7,24.6a6.051,6.051,0,0,1-.942.261c-3.673.237-3.789.13-3.789-3.538V105.75h4.731Zm7.81.087c-1.43.077-2.817.15-4.4.237V105.634h4.4Zm7.8-25.353c-1.43-7.486-2.808-14.716-4.214-22.1-1.116.155-2.035.28-3.209.445,1.923,11.226,4.2,22.178,6.162,33.433H8.449a11.664,11.664,0,0,1,.019-2.1q2.726-14.571,5.5-29.127c.116-.628.111-1.271.188-2.17-.952-.169-1.851-.324-3.074-.536C9.671,75.443,8.275,82.731,6.873,90.067A6.368,6.368,0,0,1,4.612,88.54,4.406,4.406,0,0,1,3.635,84.5q.442-2.2.88-4.393,1.443-7.213,2.861-14.431c1.112-5.63,3.871-7.906,9.7-7.9,3.136,0,6.278.087,9.414.1a8.082,8.082,0,0,1,7.525,6.577c.749,4.006,1.58,7.993,2.416,11.985.57,2.74,1.15,5.48,1.7,8.225.435,2.146-.217,3.581-2.392,5.007-.275.184-.58.367-.909.551" transform="translate(0 -28.207)" fill="#395c7e" stroke="#fff" stroke-linecap="round" stroke-linejoin="round" stroke-width="0.25"/>
        <path id="Path_154" data-name="Path 154" d="M39.912,11.616a11.372,11.372,0,1,1-22.74-.385,11.372,11.372,0,1,1,22.74.385m-11.348,7.8a7.859,7.859,0,0,0,8.01-7.776c-.059-4.641-3.328-8.2-7.855-8.267A8.119,8.119,0,0,0,20.5,11.33a8.064,8.064,0,0,0,8.059,8.086" transform="translate(-7.539 0)" fill="#395c7e" stroke="#fff" stroke-linecap="round" stroke-linejoin="round" stroke-width="0.25"/>
      </g>
    </g>
    <g id="Group_104" data-name="Group 104" transform="translate(-877 15.794)">
      <g id="Group_103" data-name="Group 103" transform="translate(0 -20.001)" clip-path="url(#clip-path-2)">
        <path id="Path_66" data-name="Path 66" d="M46.5,65.927H25.75a12.917,12.917,0,0,1-1.709-.03c-1.06-.142-1.448-.595-1.516-1.7-.036-.568-.009-1.141-.009-1.711q0-16.9,0-33.8c0-2.433.247-2.158-2.166-2.165q-5.882-.017-11.765,0c-1.391.005-1.418.032-1.423,1.407-.013,4.849-.006,9.7-.006,14.546q0,9.092,0,18.183c0,.428.029.857,0,1.283-.055.742.276,1,1,.993,2.781-.023,5.561-.008,8.342-.006a13.959,13.959,0,0,1,1.5.016c1.023.112,1.774.8,1.741,1.545-.037.824-.691,1.388-1.815,1.421-1.567.045-3.137.012-4.706.012-2.282,0-4.564.02-6.845-.007-1.572-.019-2.032-.449-2.183-1.977-.056-.565-.022-1.14-.022-1.71q0-16.472,0-32.943c0-.356,0-.713,0-1.07.01-1.551.139-1.755-1.583-1.7-.284.009-.57,0-.855,0A1.445,1.445,0,0,1,.111,25.138C0,23.222-.024,21.3.023,19.377c.019-.8.675-1.232,1.441-1.344a10.48,10.48,0,0,1,1.495-.026H20.287c.428,0,.857-.03,1.283,0,.78.057.98-.362.948-1.041-.024-.5,0-1,0-1.5,0-11.2,0-.979,0-12.174,0-.5-.033-1,.011-1.5.117-1.314.55-1.716,1.88-1.783.427-.021.855,0,1.283,0h41.5c.5,0,1-.033,1.5.011C70,.139,70.406.571,70.472,1.9c.024.5,0,1,0,1.5v11.96c0,.428-.009.856,0,1.284.036,1.331.039,1.333,1.472,1.364.428.009.856,0,1.284,0H89.706c.5,0,1-.03,1.5.009,1.115.087,1.64.433,1.714,1.516a53.272,53.272,0,0,1,.057,5.552c-.033.928-.668,1.334-1.8,1.435-.7.062-1.8-.126-2,.222a5.049,5.049,0,0,0-.321,2.436q-.024,16.578-.011,33.156c0,.5.024,1-.006,1.5C88.74,65.3,88.2,65.9,86.715,65.913c-3.851.04-7.7.012-11.551.011-.071,0-.143,0-.214-.006-1-.088-1.687-.575-1.753-1.24a1.731,1.731,0,0,1,1.8-1.714c2.851-.056,5.7-.015,8.556-.034,2.6-.018,2.281.307,2.284-2.26q.017-15.936,0-31.873c0-.428-.03-.857,0-1.283.054-.738-.266-1.015-1-1-1.354.032-2.709.006-4.064.006-3.066,0-6.132.019-9.2-.012-.818-.009-1.192.255-1.113,1.1.046.5.008,1,.008,1.5q0,16.685,0,33.371c0,.356.007.713,0,1.069-.048,2.035-.355,2.367-2.371,2.371q-9.947.02-19.893.005H46.5M67.482,22.394c0-12.9,0-4.388,0-17.287,0-2.419.148-2.194-2.177-2.195q-18.707-.006-37.415,0c-2.624,0-2.378-.3-2.378,2.418,0,25.584,0,29.758,0,55.343,0,.428.028.857,0,1.283-.052.755.316.986,1.022.98,2.423-.021,4.846.008,7.269-.01,1.473-.011,1.5-.033,1.5-1.566q.017-8.445,0-16.89a4.778,4.778,0,0,0-.125-2.095c-.2-.362-1.129-.289-1.7-.493-.648-.231-1.188-.741-1.032-1.427a2.188,2.188,0,0,1,1.044-1.175,3.078,3.078,0,0,1,1.451-.222q11.545-.018,23.09,0a3.878,3.878,0,0,1,1.655.287c.386.189.87.719.847,1.066a2.787,2.787,0,0,1-.8,1.382,1.072,1.072,0,0,1-.81.16c-1.157-.136-1.231.536-1.228,1.436.024,5.986.006,11.973.017,17.959,0,1.541.027,1.561,1.5,1.575,2,.02,3.991.016,5.986,0,2.589-.018,2.287.288,2.289-2.266q.014-19.135,0-38.27M38.007,52.348c0,3.062-.012,6.124.006,9.185.008,1.358.036,1.375,1.454,1.395,1.495.021,2.991.027,4.486,0,1.144-.023,1.181-.053,1.186-1.231.018-4.2.007-8.4.008-12.6,0-.5-.031-1,.015-1.495a1.339,1.339,0,0,1,1.324-1.374c.819-.056,1.156.5,1.287,1.151a8.828,8.828,0,0,1,.073,1.7c0,4.2-.008,8.4.01,12.6,0,1.193.042,1.224,1.17,1.246q2.349.046,4.7,0c1.2-.021,1.245-.049,1.249-1.168q.024-9.293,0-18.585c0-1.145-.044-1.187-1.213-1.191q-7.263-.026-14.526,0c-1.177,0-1.213.045-1.221,1.182-.021,3.062-.007,6.124-.008,9.185M12.572,23.568c2.923,0,5.845.015,8.768-.007,1.163-.009,1.163-.045,1.175-1.229.013-1.249-.029-1.358-1.037-1.362q-8.768-.028-17.535,0c-1.04,0-1.074.1-1.067,1.333.007,1.218.008,1.252,1.144,1.259,2.851.019,5.7.006,8.553.006m67.6,0c2.922,0,5.844.012,8.766-.006,1.163-.007,1.163-.038,1.175-1.23.013-1.249-.029-1.358-1.037-1.362q-8.768-.028-17.536,0c-1.039,0-1.073.1-1.066,1.333.006,1.209.006,1.249,1.143,1.257,2.851.024,5.7.008,8.554.008" transform="translate(0 0)" fill="#395c7e"/>
        <path id="Path_67" data-name="Path 67" d="M104.356,28.914c0,1.21.037,2.421-.009,3.629-.057,1.467-.485,1.89-1.934,1.929-1.422.039-2.847.024-4.269.01-.632-.006-.882.276-.877.9.013,1.494.029,2.99-.021,4.483-.044,1.315-.146,1.4-1.453,1.64a8.693,8.693,0,0,1-1.481.11c-1.922.012-3.843.018-5.764,0-2.152-.018-2.506-.365-2.534-2.444C86,38.03,86.027,36.891,86,35.753c-.025-1.23-.041-1.247-1.35-1.267-1.352-.021-2.7.018-4.056-.013-1.18-.027-1.61-.334-1.64-1.463q-.107-4.053-.006-8.111c.029-1.145.6-1.577,1.81-1.621,1.137-.041,2.277,0,3.415-.012,1.794-.021,1.8-.028,1.829-1.743.019-1.21-.021-2.421.029-3.629s.437-1.733,1.644-1.772c2.63-.086,5.267-.086,7.9,0,1.187.038,1.648.7,1.684,2.017.033,1.209-.014,2.42.014,3.629.033,1.429.062,1.462,1.428,1.5,1.209.03,2.42-.014,3.629.013,1.663.036,1.958.32,2.016,2.011.042,1.208.008,2.419.008,3.629m-2.9.332c0-.9-.021-1.468.005-2.037.033-.727-.29-1.023-1.01-1-.854.029-1.71-.014-2.564.005-2.828.063-3.617.117-3.57-3.68.013-1.062-.07-2.124-.108-3.186-1.115-.091-2.229-.234-3.346-.261-2.017-.049-1.908-.09-1.907,1.8,0,.855.01,1.71,0,2.565-.03,2.2-.433,2.626-2.562,2.759-.213.013-.428-.008-.641.006-1.252.081-2.5.167-3.756.252-.057,1.339-.092,2.68-.18,4.017-.056.85.326,1.124,1.127,1.105,1.352-.032,2.71-.06,4.059.013,1.231.066,1.606.444,1.823,1.648a10.964,10.964,0,0,1,.126,1.694c.021.925.032,1.853,0,2.778-.024.733.3,1.015,1.013,1,1.068-.026,2.138.021,3.205-.012,1.1-.033,1.121-.058,1.147-1.27.027-1.281-.044-2.567.025-3.846.071-1.32.47-1.739,1.8-1.916a22.564,22.564,0,0,1,2.555-.093c3.158-.058,2.714.442,2.756-2.337" transform="translate(-45.143 -9.187)" fill="#395c7e"/>
      </g>
    </g>
  </g>
</svg>
