<svg xmlns="http://www.w3.org/2000/svg" xmlns:xlink="http://www.w3.org/1999/xlink" width="431.272" height="381.485" viewBox="0 0 431.272 381.485">
  <defs>
    <clipPath id="clip-path">
      <rect id="Rectangle_38" data-name="Rectangle 38" width="60.566" height="155.063" fill="#1d3c64" stroke="#fff" stroke-width="3.5"/>
    </clipPath>
    <clipPath id="clip-path-2">
      <rect id="Rectangle_34" data-name="Rectangle 34" width="107.315" height="76.074" fill="#1d3c64" stroke="#fff" stroke-linecap="round" stroke-linejoin="round" stroke-width="1.5"/>
    </clipPath>
    <clipPath id="clip-path-3">
      <rect id="Rectangle_66" data-name="Rectangle 66" width="90.915" height="72.447" fill="#1d3c64"/>
    </clipPath>
    <clipPath id="clip-path-4">
      <rect id="Rectangle_67" data-name="Rectangle 67" width="84.318" height="57.734" fill="#1d3c64" stroke="#1d3c64" stroke-width="0.75"/>
    </clipPath>
    <clipPath id="clip-path-5">
      <rect id="Rectangle_38-2" data-name="Rectangle 38" width="33.101" height="84.746" fill="#1d3c64" stroke="#fff" stroke-width="1.25"/>
    </clipPath>
    <clipPath id="clip-path-6">
      <rect id="Rectangle_39" data-name="Rectangle 39" width="39.078" height="85.273" fill="#1d3c64" stroke="#fff" stroke-width="1.25"/>
    </clipPath>
  </defs>
  <g id="Group_326" data-name="Group 326" transform="translate(-744.763 -340.5)">
    <g id="Group_325" data-name="Group 325" transform="translate(-30.655)">
      <g id="Group_135" data-name="Group 135" transform="translate(955.369 471.937)">
        <g id="Group_127" data-name="Group 127" transform="translate(0 0)" clip-path="url(#clip-path)">
          <path id="Path_151" data-name="Path 151" d="M60.555,70.045a19.581,19.581,0,0,0-3.8-11.911c-3.324-4.71-8.524-8.107-14.158-8.379q-6.1-.3-12.238-.4a.492.492,0,0,1-.163,0q-6.128.1-12.238.4c-5.634.272-10.834,3.669-14.158,8.379a19.581,19.581,0,0,0-3.8,11.911c.353,9.647.326,19.321,0,28.968a17.275,17.275,0,0,0,3.415,11.078A16.776,16.776,0,0,0,6.578,113.3c.018.009.036.027.054.036,1.024.67,2.111,1.3,3.261,1.966.426.2.861.371,1.3.534.7.245,1.368.553,2.473,1.005v4.366c0,9.656-.036,19.312.018,28.977.027,5.281,1.938,8.2,6.1,9.14.163.036.326.072.5.1a1.286,1.286,0,0,1,.181.036c.362.054.734.1,1.123.136.2.018.408.036.616.045l.4.027c.145,0,.29.009.435.009.417.009.824.009,1.241.009h.389q2.5.027,5,.027H30.9q2.5,0,5-.027h.389c.417,0,.824,0,1.241-.009.145,0,.29-.009.435-.009s.272-.009.4-.027c.208-.009.417-.027.616-.045.389-.036.761-.081,1.123-.136a1.068,1.068,0,0,0,.181-.036c.172-.027.335-.063.5-.1,4.158-.942,6.069-3.859,6.1-9.14.054-9.665.018-19.321.018-28.977v-4.366c1.105-.453,1.775-.761,2.473-1.005.444-.163.879-.335,1.3-.534,1.15-.661,2.237-1.3,3.261-1.966.018-.009.036-.027.054-.036a16.776,16.776,0,0,0,3.152-3.207,17.275,17.275,0,0,0,3.415-11.078c-.326-9.647-.353-19.321,0-28.968M41.08,73.17c-.226,26.713.2,53.2-.109,79.975H39.314c-.951.408-2.419.335-4.71,0H33.481v-.172c-.082-.009-.163-.027-.245-.036V120.87H27.33v32.066c-.082.009-.163.027-.245.036v.172H25.962c-2.292.335-3.759.408-4.71,0H19.595c-.308-26.776.118-53.262-.109-79.975H13.6v36.858c-.072-.036-.145-.082-.217-.118-5.272-2.808-7.165-5.1-7.256-10.154C5.944,89.683,6.17,79.6,6.37,69.529v-.082a14.747,14.747,0,0,1,.408-3.225v-.009a12.642,12.642,0,0,1,8.388-9.665,16.2,16.2,0,0,1,3.17-.77,16.022,16.022,0,0,1,3.234-.272c.8.009,1.585.018,2.382.018h.408c1.812-.009,3.632-.009,5.444,0h.96c1.812-.009,3.632-.009,5.444,0,.136.009.272,0,.408,0,.8,0,1.585-.009,2.382-.018a16.021,16.021,0,0,1,3.234.272,16.2,16.2,0,0,1,3.17.77,12.642,12.642,0,0,1,8.388,9.665v.009a14.747,14.747,0,0,1,.408,3.225v.082c.2,10.073.426,20.154.245,30.227-.091,5.054-1.984,7.346-7.256,10.154-.072.036-.145.082-.217.118V73.17Z" transform="translate(0 -4.649)" fill="#1d3c64" stroke="#fff" stroke-width="3.5"/>
          <path id="Path_152" data-name="Path 152" d="M28.935,0C17.793.22,9.5,8.662,9.524,19.985A19.447,19.447,0,0,0,29.252,39.2C40.3,39.125,48.745,30.357,48.7,19.188A19.564,19.564,0,0,0,28.935,0m.2,32.881c-7.681-.018-13.153-5.344-13.279-12.926-.128-7.98,5.624-13.9,13.414-13.8a13.144,13.144,0,0,1,13.107,13.27c.055,7.808-5.516,13.469-13.242,13.46" transform="translate(1.598 0)" fill="#1d3c64" stroke="#fff" stroke-width="3.5"/>
        </g>
      </g>
      <g id="Ellipse_18" data-name="Ellipse 18" transform="translate(815 379.028)" fill="none" stroke="#a9253f" stroke-width="1.5" stroke-dasharray="3">
        <ellipse cx="170.166" cy="171.236" rx="170.166" ry="171.236" stroke="none"/>
        <ellipse cx="170.166" cy="171.236" rx="169.416" ry="170.486" fill="none"/>
      </g>
      <ellipse id="Ellipse_19" data-name="Ellipse 19" cx="49.23" cy="44.697" rx="49.23" ry="44.697" transform="translate(1093.402 437)" fill="#fff"/>
      <ellipse id="Ellipse_20" data-name="Ellipse 20" cx="57.792" cy="52.118" rx="57.792" ry="52.118" transform="translate(775.418 430)" fill="#fff"/>
      <ellipse id="Ellipse_53" data-name="Ellipse 53" cx="57.792" cy="52.118" rx="57.792" ry="52.118" transform="translate(829.076 617.749)" fill="#fff"/>
      <ellipse id="Ellipse_54" data-name="Ellipse 54" cx="57.792" cy="52.118" rx="57.792" ry="52.118" transform="translate(1043.876 617.749)" fill="#fff"/>
      <ellipse id="Ellipse_22" data-name="Ellipse 22" cx="55.652" cy="49.23" rx="55.652" ry="49.23" transform="translate(930 340.5)" fill="#fff"/>
      <g id="Group_104" data-name="Group 104" transform="translate(775.418 464.001)">
        <g id="Group_103" data-name="Group 103" transform="translate(0 -20.001)" clip-path="url(#clip-path-2)">
          <path id="Path_66" data-name="Path 66" d="M53.646,76.059q-11.969,0-23.939,0a14.9,14.9,0,0,1-1.972-.035c-1.223-.164-1.67-.686-1.749-1.957-.041-.656-.01-1.316-.01-1.974q0-19.5,0-38.993c0-2.807.285-2.49-2.5-2.5q-6.786-.02-13.573,0c-1.6.006-1.636.037-1.641,1.624-.015,5.594-.006,11.188-.006,16.782q0,10.489,0,20.977c0,.494.033.989,0,1.48-.064.856.318,1.153,1.155,1.146,3.208-.026,6.416-.009,9.624-.007a16.105,16.105,0,0,1,1.727.018c1.181.129,2.047.928,2.009,1.782-.043.95-.8,1.6-2.094,1.639-1.808.052-3.619.014-5.429.014-2.632,0-5.265.023-7.9-.008C5.53,76.029,5,75.533,4.825,73.77,4.761,73.118,4.8,72.455,4.8,71.8q0-19,0-38.006c0-.411,0-.823,0-1.234.012-1.789.16-2.024-1.826-1.962-.328.011-.658,0-.986,0A1.667,1.667,0,0,1,.128,29C0,26.791-.027,24.569.027,22.355.049,21.43.8,20.934,1.69,20.8a12.091,12.091,0,0,1,1.725-.03H23.4c.494,0,.989-.035,1.48,0,.9.066,1.131-.417,1.094-1.2-.027-.575,0-1.152,0-1.727,0-12.916,0-1.13,0-14.046,0-.576-.038-1.155.012-1.727C26.123.56,26.623.1,28.158.019c.492-.025.987-.005,1.48-.005H77.515c.577,0,1.156-.038,1.727.013,1.519.134,1.985.632,2.061,2.166.028.575.005,1.151.005,1.727v13.8c0,.494-.011.988,0,1.481.041,1.536.045,1.538,1.7,1.574.494.01.987,0,1.481,0h19c.576,0,1.155-.034,1.727.01,1.286.1,1.893.5,1.978,1.749a61.455,61.455,0,0,1,.066,6.4c-.038,1.071-.771,1.539-2.082,1.656-.8.072-2.075-.145-2.313.256a5.825,5.825,0,0,0-.37,2.811q-.028,19.126-.012,38.252c0,.576.028,1.154-.006,1.727-.1,1.7-.723,2.384-2.437,2.4-4.443.046-8.884.014-13.327.013-.082,0-.165,0-.247-.007-1.153-.1-1.947-.663-2.022-1.43a2,2,0,0,1,2.075-1.977c3.289-.064,6.581-.018,9.87-.039,3-.02,2.632.354,2.635-2.607q.019-18.386.005-36.772c0-.494-.034-.989,0-1.48.063-.852-.307-1.171-1.15-1.151-1.562.037-3.126.007-4.688.007-3.537,0-7.075.022-10.612-.013-.944-.01-1.375.294-1.284,1.274.053.571.009,1.151.009,1.727q0,19.25,0,38.5c0,.411.008.822,0,1.234-.055,2.347-.409,2.731-2.735,2.735q-11.476.023-22.951.006H53.646M77.854,25.835c0-14.881,0-5.062,0-19.944,0-2.79.171-2.531-2.512-2.532q-21.582-.007-43.165,0c-3.027,0-2.743-.342-2.744,2.789,0,29.516,0,34.332,0,63.848,0,.494.033.989,0,1.48-.06.871.364,1.138,1.179,1.131,2.8-.024,5.591.009,8.386-.011,1.7-.012,1.727-.039,1.731-1.807q.019-9.743,0-19.486a5.512,5.512,0,0,0-.145-2.417c-.227-.418-1.3-.334-1.964-.569-.747-.266-1.37-.855-1.19-1.646a2.524,2.524,0,0,1,1.2-1.355,3.551,3.551,0,0,1,1.674-.257q13.32-.021,26.639,0a4.474,4.474,0,0,1,1.909.331c.445.218,1,.829.977,1.23a3.215,3.215,0,0,1-.925,1.594,1.236,1.236,0,0,1-.934.185c-1.335-.156-1.421.618-1.416,1.657.028,6.906.006,13.813.019,20.719,0,1.778.032,1.8,1.726,1.818,2.3.023,4.6.019,6.906,0,2.986-.021,2.638.333,2.64-2.615q.016-22.076,0-44.152M43.848,60.393c0,3.532-.014,7.065.007,10.6.009,1.567.041,1.587,1.677,1.609,1.725.024,3.45.031,5.175,0,1.319-.027,1.362-.061,1.368-1.42.02-4.846.008-9.693.009-14.54,0-.575-.036-1.154.017-1.724a1.545,1.545,0,0,1,1.528-1.585c.945-.065,1.334.573,1.485,1.328a10.184,10.184,0,0,1,.084,1.963c.005,4.846-.009,9.693.011,14.54.005,1.376.048,1.412,1.35,1.437q2.71.053,5.421,0c1.382-.025,1.436-.056,1.441-1.348q.028-10.721,0-21.441c0-1.321-.05-1.369-1.4-1.374q-8.379-.03-16.758,0c-1.357,0-1.4.052-1.408,1.364-.024,3.532-.008,7.065-.009,10.6M14.5,27.19c3.372,0,6.744.017,10.115-.008,1.342-.01,1.342-.052,1.355-1.418.015-1.441-.033-1.567-1.2-1.571q-10.115-.032-20.23,0c-1.2,0-1.238.114-1.231,1.538.008,1.4.009,1.444,1.319,1.453,3.289.022,6.578.007,9.867.007m77.993,0c3.371,0,6.742.014,10.114-.007,1.342-.008,1.342-.043,1.355-1.419.015-1.441-.033-1.567-1.2-1.571q-10.116-.032-20.231,0c-1.2,0-1.238.114-1.23,1.538.007,1.395.006,1.44,1.319,1.451,3.289.027,6.579.009,9.868.009" transform="translate(0 0)" fill="#1d3c64" stroke="#fff" stroke-linecap="round" stroke-linejoin="round" stroke-width="1.5"/>
          <path id="Path_67" data-name="Path 67" d="M108.268,30.889c0,1.4.043,2.793-.011,4.186-.066,1.692-.559,2.181-2.232,2.226-1.641.044-3.284.027-4.925.011-.73-.007-1.017.318-1.011,1.036.015,1.724.033,3.449-.025,5.172-.051,1.517-.169,1.62-1.677,1.892a10.029,10.029,0,0,1-1.709.127c-2.217.014-4.434.021-6.65,0-2.483-.021-2.891-.421-2.924-2.82-.018-1.314.017-2.628-.009-3.941-.029-1.419-.047-1.438-1.558-1.462-1.559-.025-3.12.021-4.679-.015-1.362-.032-1.857-.385-1.892-1.688q-.123-4.676-.007-9.357c.034-1.321.69-1.819,2.088-1.87,1.312-.047,2.627,0,3.94-.014,2.07-.025,2.079-.033,2.11-2.011.022-1.4-.024-2.793.033-4.186s.5-2,1.9-2.045c3.034-.1,6.076-.1,9.111,0,1.369.043,1.9.807,1.943,2.326.038,1.394-.016,2.791.016,4.186.038,1.648.072,1.686,1.648,1.725,1.395.035,2.792-.016,4.187.015,1.919.041,2.259.369,2.326,2.32.048,1.394.009,2.791.009,4.187m-3.348.384c0-1.036-.024-1.694.006-2.35.038-.838-.335-1.18-1.165-1.152-.985.033-1.972-.016-2.958.006-3.262.073-4.173.135-4.118-4.246.015-1.225-.08-2.45-.125-3.676-1.287-.1-2.572-.27-3.86-.3-2.327-.056-2.2-.1-2.2,2.073,0,.986.011,1.973,0,2.959-.035,2.534-.5,3.03-2.956,3.183-.246.015-.494-.009-.739.007-1.445.093-2.889.193-4.333.291-.066,1.545-.106,3.092-.207,4.635-.064.981.377,1.3,1.3,1.275,1.56-.037,3.126-.069,4.683.015,1.421.077,1.853.512,2.1,1.9a12.65,12.65,0,0,1,.146,1.955c.024,1.068.037,2.137,0,3.2-.027.846.344,1.171,1.168,1.151,1.232-.03,2.466.024,3.7-.013,1.27-.038,1.293-.067,1.323-1.466.031-1.478-.05-2.962.029-4.437.082-1.523.542-2.006,2.079-2.211a26.032,26.032,0,0,1,2.947-.107c3.644-.067,3.132.509,3.18-2.7" transform="translate(-39.955 -8.131)" fill="#1d3c64" stroke="#fff" stroke-linecap="round" stroke-linejoin="round" stroke-width="1.5"/>
        </g>
      </g>
      <g id="Group_318" data-name="Group 318" transform="translate(940 340.5)">
        <g id="Group_317" data-name="Group 317" clip-path="url(#clip-path-3)">
          <path id="Path_238" data-name="Path 238" d="M71.447,100.685H88.816c.076-.977.211-1.913.212-2.849q.022-17.264.009-34.529v-2.73c2.115.65,2.2.7,2.2,2.621.022,5.426.008,10.852.008,16.278q0,10.358,0,20.717c0,2.62-.14,2.767-2.8,2.775q-8.262.025-16.525,0c-2.545-.01-2.847-.324-2.865-2.841-.023-3.453.006-6.906-.019-10.358a9.582,9.582,0,0,0-4.08-8.006A9.953,9.953,0,0,0,54.3,80.6a9.783,9.783,0,0,0-6.081,9.054c-.125,3.531-.006,7.07-.036,10.6-.021,2.474-.245,2.7-2.671,2.7q-8.509.024-17.018,0c-2.332-.01-2.5-.185-2.5-2.581-.012-12.332.019-24.663-.038-36.995a2.912,2.912,0,0,1,2.211-3.1v40.339H45.789c0-3.226-.065-6.33.027-9.43a18.192,18.192,0,0,1,.611-4.849,11.96,11.96,0,0,1,9.2-8.634A12.3,12.3,0,0,1,68.1,81.631a12.621,12.621,0,0,1,3.348,8.737c.008,3.358,0,6.717,0,10.317" transform="translate(-13.145 -30.534)" fill="#1d3c64"/>
          <path id="Path_239" data-name="Path 239" d="M29.124.313V12.474c2.514-1.922,4.737-3.582,6.917-5.3,2.575-2.026,5.108-4.106,7.671-6.149C45.192-.153,45.7-.181,47.159.968q7.641,6,15.253,12.047Q75.45,23.3,88.491,33.588a17.206,17.206,0,0,1,1.87,1.585c.444.467.872,1.076.222,1.721-.583.578-1.2.383-1.777-.031-.4-.287-.766-.618-1.152-.923Q74.813,25.8,61.971,15.656,54.441,9.711,46.9,3.772c-.441-.347-.929-.634-1.514-1.029-2.237,1.733-4.443,3.411-6.615,5.131-5.071,4.015-10.117,8.06-15.189,12.073-5.2,4.116-10.43,8.2-15.639,12.313C6.212,33.628,4.5,35.026,2.774,36.4c-.191.153-.408.272-.614.406-.656.425-1.428.778-1.955,0-.491-.721-.029-1.338.631-1.858,2.764-2.181,5.488-4.415,8.243-6.608,2.3-1.835,4.569-3.731,6.978-5.421a3.009,3.009,0,0,0,1.371-2.873c-.049-5.424-.021-10.849-.021-16.273,0-.493-.011-.987,0-1.479.054-1.992.281-2.247,2.3-2.279,2.3-.037,4.6-.028,6.9,0,.721.01,1.439.158,2.511.285M19.936,2.282v17.5l6.785-5.319c0-2.067.051-4.111-.014-6.152-.064-2,.293-4.032-.255-6.031Z" transform="translate(0 0)" fill="#1d3c64"/>
        </g>
      </g>
      <g id="Group_320" data-name="Group 320" transform="translate(1065.182 641)">
        <g id="Group_319" data-name="Group 319" clip-path="url(#clip-path-4)">
          <path id="Path_240" data-name="Path 240" d="M78.229,27.184c1.7,6.416.74,12.776.981,19.079.1,2.543.027,5.093.015,7.64-.013,2.862-.954,3.776-3.881,3.784-2.787.007-5.581-.12-8.359.038a3.437,3.437,0,0,1-3.851-3.453c-.029-.409-.1-.816-.157-1.223-.007-.048-.073-.087-.216-.247H21.311c-.062.592-.1,1.159-.183,1.722a3.23,3.23,0,0,1-3.576,3.155c-3.083.032-6.167.024-9.251,0-2.172-.014-3.213-1.064-3.234-3.3-.029-3.08,0-6.16,0-9.24,0-3.495.044-6.99-.011-10.483a26.77,26.77,0,0,1,1-7.424c-.58-.057-1.039-.116-1.5-.143-3.488-.2-5.307-3.157-4.259-6.626.566-1.874,2.242-2.58,4.048-2.659,2.535-.111,5.078-.029,7.888-.029.414-1.446.9-3.131,1.377-4.817Q14.721,9.031,15.827,5.1A3.821,3.821,0,0,1,18.3,2.718a17.254,17.254,0,0,1,4.24-1.234C26.108,1,29.7.546,33.29.357,38.077.1,42.886-.12,47.669.072A77.313,77.313,0,0,1,64.366,2.1a5.379,5.379,0,0,1,4.318,4.167c.967,3.893,2.18,7.725,3.262,11.489,2.617,0,5.142.005,7.666,0a4.492,4.492,0,0,1,3.751,1.679,4.752,4.752,0,0,1,.523,4.878,4.528,4.528,0,0,1-3.857,2.764c-.518.077-1.05.067-1.8.111m-.374,28.59c.062-.741.178-1.491.179-2.241.005-6.4-.024-12.791-.012-19.188a19.394,19.394,0,0,0-1.109-6.607c-.212-.595-.373-1.207-.617-2,.8-.043,1.373-.085,1.95-.1.652-.021,1.307.012,1.955-.041A3,3,0,0,0,83.009,22.7a3.251,3.251,0,0,0-3.532-3.726c-2.74-.024-5.541-.553-8.163.9-.182-.454-.318-.714-.394-.991-1.1-4.05-2.243-8.091-3.277-12.158a4.045,4.045,0,0,0-2.932-3.217,16.269,16.269,0,0,0-2.041-.6c-2.513-.377-5.028-.755-7.555-1.009-2.353-.236-4.719-.371-7.083-.45-3.666-.122-7.341-.322-11-.187-3.832.142-7.655.6-11.474,1a19.44,19.44,0,0,0-6.722,1.477,3.292,3.292,0,0,0-1.9,2.187c-1.162,4.22-2.378,8.425-3.59,12.63a10.8,10.8,0,0,1-.536,1.249,6.867,6.867,0,0,0-1.955-.758,50.321,50.321,0,0,0-6.919.043c-2.192.232-3.255,2.254-2.615,4.364A2.96,2.96,0,0,0,4.254,25.6c1.164.054,2.333.011,3.69.011-.208.677-.353,1.05-.436,1.436a32.346,32.346,0,0,0-1.178,5.882c-.153,6.985-.082,13.975-.08,20.963,0,1.919.61,2.552,2.544,2.576,2.845.036,5.692.028,8.537,0,1.811-.015,2.311-.533,2.386-2.314.034-.809.085-1.616.132-2.5.622-.061,1.081-.146,1.54-.147q20.633-.01,41.266,0a11.649,11.649,0,0,1,1.439.167c.2,1.531.381,2.857.535,4.014,1.787,1.026,11,1.079,13.226.083" transform="translate(0 0)" fill="#1d3c64" stroke="#1d3c64" stroke-width="0.75"/>
          <path id="Path_241" data-name="Path 241" d="M46.437,26.386c.253-1.152.429-2.122.682-3.072.774-2.912,1.575-5.817,2.37-8.723.4-1.478.539-1.567,2.027-1.749,3.573-.437,7.143-.9,10.714-1.343.176-.022.353-.042.531-.047,3.96-.117,7.923-.4,11.877-.3,3.887.1,7.768.559,11.646.918,2.115.2,4.22.506,6.328.78.4.052.789.184,1.382.327L97.576,26.1a4.778,4.778,0,0,1-3.052.238c-2.355-.164-4.7-.473-7.058-.579-4.371-.2-8.747-.285-13.12-.423-4.84-.152-9.682-.006-14.517.122-3.532.094-7.052.618-10.58.915-.865.073-1.741.011-2.813.011m1.5-1.126A234.3,234.3,0,0,1,96.1,25.218L93.072,14.14a133.716,133.716,0,0,0-42.163.02l-2.974,11.1" transform="translate(-29.859 -7.156)" fill="#1d3c64" stroke="#1d3c64" stroke-width="0.75"/>
          <path id="Path_242" data-name="Path 242" d="M162.539,82.185c-.469,2.926-.894,5.581-1.323,8.269a21.7,21.7,0,0,1-2.764.513c-3.779.192-7.561.325-11.343.465a2.28,2.28,0,0,1-2.119-1.466c-.012-2.026,1.349-3.418,2.517-4.877a6.453,6.453,0,0,1,3.374-2.127c2.821-.843,5.719-.854,8.589-1.156a14.569,14.569,0,0,1,3.07.38M146.3,89.931c2.374.652,10.472.247,13.8-.672.152-.95.325-1.931.464-2.917.135-.96.235-1.925.354-2.919a4.31,4.31,0,0,0-.894-.19c-2.412.142-4.848.132-7.226.5a7.32,7.32,0,0,0-6.5,6.2" transform="translate(-93.228 -52.589)" fill="#1d3c64" stroke="#1d3c64" stroke-width="0.75"/>
          <path id="Path_243" data-name="Path 243" d="M43.41,90.416l-1.23-8.044a8.107,8.107,0,0,1,4.334-.443c2.15.352,4.33.517,6.484.853,3.561.556,5.212,3.211,6.485,6.168a1.8,1.8,0,0,1-1.729,2.47c-.88.089-1.775.017-2.663.047A60.863,60.863,0,0,1,44.316,90.7a7.289,7.289,0,0,1-.906-.285m14.7-.258a4.2,4.2,0,0,0-.02-1.336,7.267,7.267,0,0,0-4.115-4.4A25.908,25.908,0,0,0,43.5,83.3l.971,6.161a60.078,60.078,0,0,0,13.639.7" transform="translate(-27.122 -52.604)" fill="#1d3c64" stroke="#1d3c64" stroke-width="0.75"/>
        </g>
      </g>
      <g id="Group_136" data-name="Group 136" transform="translate(214.165 20)">
        <g id="Group_134" data-name="Group 134" transform="translate(672.779 606.999)">
          <g id="Group_127-2" data-name="Group 127" transform="translate(0 0)" clip-path="url(#clip-path-5)">
            <path id="Path_151-2" data-name="Path 151" d="M33.095,60.663a10.7,10.7,0,0,0-2.074-6.51,10.379,10.379,0,0,0-7.738-4.579q-3.334-.163-6.688-.218a.269.269,0,0,1-.089,0q-3.349.052-6.688.218A10.379,10.379,0,0,0,2.08,54.153a10.7,10.7,0,0,0-2.074,6.51c.193,5.272.178,10.559,0,15.832a9.441,9.441,0,0,0,1.866,6.054A9.168,9.168,0,0,0,3.595,84.3c.01,0,.02.015.03.02.559.366,1.153.713,1.782,1.074.233.109.47.2.713.292.381.134.748.3,1.351.55v2.386c0,5.277-.02,10.555.01,15.837.015,2.886,1.059,4.48,3.332,5,.089.02.178.04.272.054a.7.7,0,0,1,.1.02c.2.03.4.054.614.074.109.01.223.02.337.025l.218.015c.079,0,.158,0,.238,0,.228,0,.45,0,.678,0h.213q1.366.015,2.733.015h.673q1.366,0,2.733-.015h.213c.228,0,.45,0,.678,0,.079,0,.158,0,.238,0s.149,0,.218-.015c.114,0,.228-.015.337-.025.213-.02.416-.045.614-.074a.584.584,0,0,0,.1-.02c.094-.015.183-.035.272-.054,2.272-.515,3.317-2.109,3.332-5,.03-5.282.01-10.559.01-15.837V86.237c.6-.248.97-.416,1.351-.55.243-.089.48-.183.713-.292.629-.361,1.223-.708,1.782-1.074.01,0,.02-.015.03-.02a9.169,9.169,0,0,0,1.723-1.752,9.441,9.441,0,0,0,1.866-6.054c-.178-5.272-.193-10.559,0-15.832M22.451,62.371c-.124,14.6.109,29.074-.059,43.708h-.906a5.277,5.277,0,0,1-2.574,0H18.3v-.094c-.045,0-.089-.015-.134-.02V88.44H14.937v17.525c-.045,0-.089.015-.134.02v.094h-.614a5.277,5.277,0,0,1-2.574,0h-.906c-.168-14.634.064-29.109-.059-43.708H7.432V82.515c-.04-.02-.079-.045-.119-.064C4.432,80.916,3.4,79.663,3.347,76.9c-.1-5.5.025-11.015.134-16.52v-.045A8.06,8.06,0,0,1,3.7,58.574v0a6.909,6.909,0,0,1,4.584-5.282,8.854,8.854,0,0,1,1.733-.421,8.755,8.755,0,0,1,1.767-.149c.436,0,.866.01,1.3.01h.223c.99,0,1.985,0,2.975,0h.525c.99,0,1.985,0,2.975,0,.074,0,.149,0,.223,0,.436,0,.866,0,1.3-.01a8.755,8.755,0,0,1,1.767.149,8.854,8.854,0,0,1,1.733.421A6.909,6.909,0,0,1,29.4,58.569v0a8.059,8.059,0,0,1,.223,1.762v.045c.109,5.5.233,11.015.134,16.52-.05,2.762-1.084,4.015-3.965,5.55-.04.02-.079.045-.119.064V62.371Z" transform="translate(0 -24.922)" fill="#1d3c64" stroke="#fff" stroke-width="1.25"/>
            <path id="Path_152-2" data-name="Path 152" d="M20.132,0A10.59,10.59,0,0,0,9.524,10.922,10.707,10.707,0,1,0,20.132,0m.109,17.97a6.948,6.948,0,0,1-7.257-7.064,7.25,7.25,0,1,1,14.495-.292,7.019,7.019,0,0,1-7.237,7.356" transform="translate(-3.445 0)" fill="#1d3c64" stroke="#fff" stroke-width="1.25"/>
          </g>
        </g>
        <g id="Group_133" data-name="Group 133" transform="translate(631.256 607)">
          <g id="Group_129" data-name="Group 129" transform="translate(0 0)" clip-path="url(#clip-path-6)">
            <path id="Path_153" data-name="Path 153" d="M37.462,88.632c1.984-1.668,1.832-5.187,1.174-7.953-.762-3.21-1.27-6.484-1.909-9.721l-1.886-8.384,0,0v0c-1.546-4.829-4.852-7.722-9.354-7.9-4.072-.159-8.157-.05-12.229.082-3.641.122-6.189,2.127-7.9,5.214a25.405,25.405,0,0,0-1.3,2.983v0L2.3,71.566l-.258,1.27C1.67,74.653,1.289,76.472.912,78.29l-.676,3.3L.056,82.865c-.163,1.99-.053,4.15,1.582,5.772l2.739,1.986c.44.258.925.544,1.406.825-.177,1.02-.313,1.909-.481,2.793s-.381,1.773-.544,2.662c-.558,3.083.766,4.974,3.836,5.473.567.091,1.143.118,1.845.19,0,2.639-.041,5.124.009,7.608.059,3.265,1.646,4.856,4.883,4.91,2.571.045,5.137.018,7.708.009,4.085-.014,5.618-1.519,5.636-5.554.009-2.321,0-4.643,0-6.987.54-.073.825-.122,1.12-.15,3.777-.376,5.083-2.145,4.4-5.931-.3-1.687-.576-3.378-.866-5.056a3.058,3.058,0,0,1,.925-.626ZM18.038,111.716a5.678,5.678,0,0,1-.884.245c-3.446.222-3.555.122-3.555-3.319v-6.053h4.439Zm7.327.082c-1.342.073-2.643.141-4.126.222v-9.54h4.126Zm7.318-23.786c-1.342-7.023-2.634-13.806-3.954-20.735-1.047.145-1.909.263-3.011.417,1.8,10.533,3.94,20.807,5.781,31.367H7.927a10.943,10.943,0,0,1,.018-1.972Q10.5,83.418,13.1,69.761c.109-.589.1-1.192.177-2.036-.893-.159-1.737-.3-2.884-.5-1.324,6.933-2.634,13.77-3.949,20.653a5.974,5.974,0,0,1-2.122-1.433,4.133,4.133,0,0,1-.916-3.8q.415-2.061.825-4.122Q5.589,71.758,6.92,64.987c1.043-5.282,3.632-7.418,9.1-7.413,2.943,0,5.89.082,8.832.091a7.582,7.582,0,0,1,7.06,6.171c.7,3.759,1.483,7.5,2.267,11.245.535,2.571,1.079,5.142,1.6,7.717.408,2.013-.2,3.36-2.244,4.7-.258.172-.544.345-.852.517" transform="translate(0 -29.837)" fill="#1d3c64" stroke="#fff" stroke-width="1.25"/>
            <path id="Path_154" data-name="Path 154" d="M38.507,10.9a10.669,10.669,0,1,1-21.335-.361,10.669,10.669,0,1,1,21.335.361M27.86,18.217a7.373,7.373,0,0,0,7.515-7.3c-.055-4.355-3.122-7.692-7.369-7.756A7.617,7.617,0,0,0,20.3,10.63a7.566,7.566,0,0,0,7.561,7.587" transform="translate(-8.134 0)" fill="#1d3c64" stroke="#fff" stroke-width="1.25"/>
          </g>
        </g>
      </g>
      <g id="Group_324" data-name="Group 324" transform="translate(-512 -108.828)">
        <path id="Path_32" data-name="Path 32" d="M189.56,73.865a2.115,2.115,0,0,0-4.191-.48c-.153.6-.23,1.218-.348,1.858h-2.249a59.727,59.727,0,0,0-1.907-6.349,66.859,66.859,0,0,0-3.265-6.077c.508-.488,1.107-1.059,1.685-1.615a17.027,17.027,0,0,0,1.552,1.148,2.086,2.086,0,0,0,2.7-.3,2.024,2.024,0,0,0,.265-2.54,5.95,5.95,0,0,0-.947-1.226q-1.7-1.743-3.439-3.445a9.671,9.671,0,0,0-1.3-1.142,2.109,2.109,0,0,0-2.979.105,2.419,2.419,0,0,0,.028,3.049c.292.4.62.773.919,1.148-.592.669-1.086,1.225-1.712,1.936A24.4,24.4,0,0,0,162.1,54.7V52.131c.647-.076,1.218-.111,1.775-.208a2.028,2.028,0,0,0,1.761-2.2,1.9,1.9,0,0,0-1.831-1.949c-2.659-.07-5.325-.077-7.985.006a1.891,1.891,0,0,0-1.97,2.006,2.239,2.239,0,0,0,1.9,2.144c.557.1,1.121.146,1.747.223v2.562a23.628,23.628,0,0,0-12.189,5.137c-.717-.71-1.281-1.267-1.887-1.873.425-.528.794-.961,1.135-1.42a2.019,2.019,0,0,0-.16-2.819,1.964,1.964,0,0,0-2.812-.146c-1.9,1.781-3.766,3.606-5.555,5.5a2.028,2.028,0,0,0,.042,2.973,2.148,2.148,0,0,0,2.986.077c.4-.3.78-.64,1.274-1.044.633.64,1.2,1.2,1.824,1.83a25.1,25.1,0,0,0-5.1,12.238H134.4c-.042-.6-.042-1.057-.111-1.51a2.217,2.217,0,0,0-2.207-2.047,2.025,2.025,0,0,0-2.047,1.935c-.1,2.6-.125,5.215-.049,7.825a2.127,2.127,0,0,0,2.144,2.088,2.212,2.212,0,0,0,2.144-2.11c.084-.494.125-1,.188-1.545h2.569a24.905,24.905,0,0,0,5.005,12.162l-1.713,1.99c-.543-.431-.94-.751-1.344-1.065a1.954,1.954,0,0,0-2.792.042,2.062,2.062,0,0,0-.244,2.959,11.1,11.1,0,0,0,.842.876c1.476,1.477,2.924,2.979,4.434,4.414a2.184,2.184,0,0,0,3.119.132,2.11,2.11,0,0,0,.035-3.1c-.285-.354-.585-.689-.954-1.121.62-.6,1.176-1.155,1.726-1.692,2.04,1.108,3.94,2.339,5.994,3.2a64.581,64.581,0,0,0,6.37,1.963v2.3c-.606.084-1.107.153-1.615.23a2.118,2.118,0,0,0,.153,4.233c2.548.056,5.1.056,7.644-.021a1.9,1.9,0,0,0,1.928-2.026,2.018,2.018,0,0,0-1.8-2.165c-.55-.091-1.114-.16-1.7-.244V100.3a24.949,24.949,0,0,0,12.134-5.025c.724.661,1.309,1.19,1.928,1.754-.4.466-.724.794-1,1.162a2.424,2.424,0,0,0-.09,3.042,2.351,2.351,0,0,0,3.154.091,5.521,5.521,0,0,0,.647-.571c1.351-1.351,2.708-2.7,4.052-4.065a5.127,5.127,0,0,0,.752-.94A2.2,2.2,0,0,0,183.4,92.9a2.231,2.231,0,0,0-2.875-.056c-.411.3-.78.647-1.295,1.087-.613-.711-1.156-1.33-1.74-2.006a22.793,22.793,0,0,0,5.019-12.057h2.555c.1.64.153,1.163.272,1.664a2.275,2.275,0,0,0,2.283,1.922,2.383,2.383,0,0,0,1.977-2.277c-.1-2.436-.007-4.873-.035-7.309M159.78,96.093a18.552,18.552,0,1,1,18.552-18.551A18.553,18.553,0,0,1,159.78,96.093" transform="translate(1483.727 501.108)" fill="#1d3c64" stroke="#fff" stroke-width="2.5"/>
        <path id="Path_249" data-name="Path 249" d="M172.353,66.319a1.5,1.5,0,0,0-2.981-.341c-.109.426-.163.867-.248,1.322h-1.6a42.489,42.489,0,0,0-1.357-4.516,47.565,47.565,0,0,0-2.323-4.323c.361-.347.787-.753,1.2-1.149a12.115,12.115,0,0,0,1.1.817,1.484,1.484,0,0,0,1.921-.213,1.44,1.44,0,0,0,.188-1.807,4.232,4.232,0,0,0-.674-.872q-1.211-1.24-2.446-2.451a6.881,6.881,0,0,0-.926-.813,1.5,1.5,0,0,0-2.12.075,1.72,1.72,0,0,0,.02,2.169c.208.287.441.55.654.817-.421.476-.773.872-1.218,1.377a17.359,17.359,0,0,0-8.726-3.725V50.858c.461-.054.867-.079,1.263-.148a1.443,1.443,0,0,0,1.253-1.565,1.354,1.354,0,0,0-1.3-1.387c-1.892-.05-3.788-.054-5.68,0a1.345,1.345,0,0,0-1.4,1.427,1.593,1.593,0,0,0,1.352,1.525c.4.074.8.1,1.243.158V52.7a16.808,16.808,0,0,0-8.671,3.654c-.51-.505-.911-.9-1.342-1.332.3-.376.565-.683.807-1.01A1.436,1.436,0,0,0,140.228,52a1.4,1.4,0,0,0-2-.1c-1.352,1.267-2.679,2.565-3.952,3.912a1.443,1.443,0,0,0,.03,2.115,1.528,1.528,0,0,0,2.124.055c.287-.213.555-.456.906-.743.451.455.852.852,1.3,1.3A17.857,17.857,0,0,0,135,67.245h-1.892c-.03-.426-.03-.752-.079-1.074a1.577,1.577,0,0,0-1.57-1.456,1.44,1.44,0,0,0-1.456,1.377c-.069,1.853-.089,3.71-.035,5.567a1.513,1.513,0,0,0,1.525,1.486,1.573,1.573,0,0,0,1.525-1.5c.059-.352.089-.708.134-1.1h1.827a17.717,17.717,0,0,0,3.561,8.651l-1.218,1.416c-.386-.307-.669-.534-.956-.758a1.39,1.39,0,0,0-1.986.03,1.467,1.467,0,0,0-.173,2.1,7.9,7.9,0,0,0,.6.623c1.05,1.05,2.08,2.12,3.155,3.14a1.553,1.553,0,0,0,2.219.094,1.5,1.5,0,0,0,.025-2.209c-.2-.252-.416-.49-.678-.8.441-.43.837-.822,1.228-1.2,1.451.788,2.8,1.664,4.264,2.278a45.941,45.941,0,0,0,4.531,1.4v1.634c-.431.059-.787.109-1.149.163a1.506,1.506,0,0,0,.109,3.011c1.813.04,3.625.04,5.438-.015a1.355,1.355,0,0,0,1.372-1.441,1.435,1.435,0,0,0-1.283-1.54c-.391-.064-.792-.114-1.208-.173V85.123a17.748,17.748,0,0,0,8.632-3.575c.515.47.931.847,1.372,1.248-.287.331-.515.565-.713.827a1.724,1.724,0,0,0-.064,2.164,1.672,1.672,0,0,0,2.243.064,3.928,3.928,0,0,0,.461-.406c.961-.961,1.926-1.921,2.882-2.892a3.648,3.648,0,0,0,.535-.669,1.562,1.562,0,0,0-.208-2.025,1.587,1.587,0,0,0-2.045-.04c-.292.213-.555.461-.921.773-.436-.506-.822-.946-1.238-1.427a16.214,16.214,0,0,0,3.571-8.577h1.817c.069.456.109.827.193,1.184a1.618,1.618,0,0,0,1.624,1.367,1.7,1.7,0,0,0,1.406-1.62c-.069-1.733,0-3.467-.025-5.2M151.168,82.131a13.2,13.2,0,1,1,13.2-13.2,13.2,13.2,0,0,1-13.2,13.2" transform="translate(1581.832 478.642) rotate(25)" fill="#1d3c64" stroke="#fff" stroke-width="1.2"/>
      </g>
    </g>
    <path id="Path_250" data-name="Path 250" d="M0,0H50.021" transform="translate(956 418.383) rotate(90)" fill="none" stroke="#a9253f" stroke-width="1.5" stroke-dasharray="3"/>
    <path id="Path_251" data-name="Path 251" d="M0,0H89.71" transform="translate(1073.988 493.157) rotate(158)" fill="none" stroke="#a9253f" stroke-width="1.5" stroke-dasharray="3"/>
    <path id="Path_253" data-name="Path 253" d="M0,0H89.711" transform="matrix(-0.829, -0.559, 0.559, -0.829, 1057.586, 633.042)" fill="none" stroke="#a9253f" stroke-width="1.5" stroke-dasharray="3"/>
    <path id="Path_254" data-name="Path 254" d="M0,0H66.384" transform="translate(870.868 619.998) rotate(-34)" fill="none" stroke="#a9253f" stroke-width="1.5" stroke-dasharray="3"/>
    <path id="Path_252" data-name="Path 252" d="M0,0H71.771" transform="translate(855.444 499.876) rotate(22)" fill="none" stroke="#a9253f" stroke-width="1.5" stroke-dasharray="3"/>
  </g>
</svg>
