<svg xmlns="http://www.w3.org/2000/svg" xmlns:xlink="http://www.w3.org/1999/xlink" width="274.819" height="197.271" viewBox="0 0 274.819 197.271">
  <defs>
    <clipPath id="clip-path">
      <rect id="Rectangle_38" data-name="Rectangle 38" width="32.649" height="83.588" fill="#395c7e" stroke="#fff" stroke-linecap="round" stroke-linejoin="round" stroke-width="1"/>
    </clipPath>
  </defs>
  <g id="Group_501" data-name="Group 501" transform="translate(-814.013 -468.335)">
    <g id="Group_500" data-name="Group 500" transform="translate(818.514 469.834)">
      <path id="Path_32" data-name="Path 32" d="M130.048,125.458c.062-4.014,2.153-6.189,5.837-6.52,3.353-.29,5.692,1.428,6.624,5.094.455,1.78.683,3.622,1.035,5.525h6.686c1.884-6.479,3.188-12.937,5.671-18.877,2.546-6.127,6.272-11.776,9.708-18.068-1.511-1.451-3.291-3.148-5.009-4.8a50.635,50.635,0,0,1-4.616,3.413,6.2,6.2,0,0,1-8.031-.89c-1.966-1.925-2.339-4.761-.787-7.553a17.692,17.692,0,0,1,2.815-3.645q5.061-5.182,10.225-10.244a28.76,28.76,0,0,1,3.871-3.4c3.415-2.337,6.644-2.171,8.859.313,2.111,2.339,2.091,6.106-.083,9.066-.869,1.2-1.842,2.3-2.732,3.413,1.759,1.989,3.229,3.643,5.092,5.756,10.867-9.025,23.286-13.56,36.471-15.568V60.837c-1.925-.226-3.622-.329-5.278-.619a6.03,6.03,0,0,1-5.237-6.541c.145-3.128,2.194-5.715,5.444-5.8,7.907-.209,15.834-.228,23.741.019,3.788.126,5.8,2.548,5.858,5.963a6.657,6.657,0,0,1-5.651,6.375c-1.656.308-3.332.435-5.2.662v7.617c13.558,1.819,25.708,6.6,36.243,15.274,2.132-2.111,3.809-3.767,5.609-5.568-1.263-1.571-2.36-2.856-3.374-4.223-2.132-2.939-1.925-6.044.476-8.381,2.442-2.36,5.858-2.794,8.362-.435,5.651,5.3,11.2,10.722,16.517,16.35a6.031,6.031,0,0,1-.124,8.838c-2.4,2.442-5.671,2.546-8.88.23-1.2-.892-2.318-1.9-3.788-3.1-1.884,1.9-3.56,3.56-5.423,5.442a74.636,74.636,0,0,1,15.172,36.388h7.907c.124-1.78.124-3.144.331-4.49.518-3.684,3.1-6.046,6.561-6.088a6.02,6.02,0,0,1,6.085,5.754c.29,7.743.373,15.505.145,23.268a6.325,6.325,0,0,1-6.375,6.21c-3.332-.021-5.733-2.362-6.375-6.274-.248-1.47-.373-2.96-.559-4.593h-7.638a74.055,74.055,0,0,1-14.882,36.161c1.9,2.215,3.436,3.993,5.092,5.918,1.614-1.281,2.794-2.233,3.995-3.167,2.981-2.277,5.9-2.233,8.3.126,2.711,2.649,3,5.816.724,8.8a33.007,33.007,0,0,1-2.5,2.606c-4.388,4.39-8.693,8.859-13.185,13.123-2.919,2.794-6.81,2.815-9.273.393-2.712-2.67-2.774-5.878-.1-9.232.849-1.054,1.739-2.049,2.836-3.333-1.842-1.8-3.5-3.434-5.133-5.03-6.065,3.293-11.715,6.955-17.821,9.521-6.085,2.527-12.626,3.953-18.939,5.837v6.831c1.8.248,3.291.455,4.8.683,3.726.6,6.189,3.25,6.065,6.5a6.487,6.487,0,0,1-6.52,6.085c-7.576.166-15.151.166-22.727-.062-3.622-.124-5.692-2.629-5.734-6.023a6,6,0,0,1,5.361-6.437c1.635-.269,3.312-.476,5.05-.724v-7.638C198,202.437,186.12,197,175.564,189.109c-2.153,1.966-3.891,3.539-5.734,5.216,1.2,1.385,2.153,2.36,2.981,3.455,2.235,2.96,2.3,6.853.269,9.045-2.3,2.463-6.21,2.587-9.376.269a16.407,16.407,0,0,1-1.925-1.7c-4.016-4.016-8.052-8.029-12.047-12.086a15.247,15.247,0,0,1-2.235-2.8c-1.821-3.041-1.407-6.539.869-8.464a6.633,6.633,0,0,1,8.549-.168c1.221.89,2.318,1.925,3.85,3.231,1.822-2.113,3.436-3.953,5.175-5.963-8.88-10.743-13.309-22.851-14.924-35.85h-7.6c-.29,1.9-.455,3.457-.807,4.947-.807,3.56-3.788,6.065-6.789,5.715a7.084,7.084,0,0,1-5.878-6.771c.29-7.245.021-14.489.1-21.734M218.6,191.55a55.161,55.161,0,1,0-55.162-55.16A55.165,55.165,0,0,0,218.6,191.55" transform="translate(-129.941 -33.782)" fill="#476a8a" stroke="#fff" stroke-width="9"/>
      <path id="Path_363" data-name="Path 363" d="M130,87.8a3.242,3.242,0,0,1,6.424-.735c.235.918.352,1.867.534,2.848H140.4a91.556,91.556,0,0,1,2.924-9.732,102.48,102.48,0,0,1,5-9.315c-.779-.748-1.7-1.623-2.582-2.476a26.1,26.1,0,0,1-2.38,1.76,3.2,3.2,0,0,1-4.14-.459,3.1,3.1,0,0,1-.405-3.894,9.121,9.121,0,0,1,1.451-1.879q2.609-2.672,5.271-5.281a14.829,14.829,0,0,1,2-1.751c1.761-1.2,3.425-1.119,4.567.161a3.707,3.707,0,0,1-.043,4.674c-.448.618-.95,1.185-1.409,1.76.907,1.026,1.665,1.878,2.625,2.968a37.4,37.4,0,0,1,18.8-8.026V54.482c-.992-.116-1.867-.17-2.721-.319a3.109,3.109,0,0,1-2.7-3.372,2.918,2.918,0,0,1,2.806-2.988c4.076-.108,8.163-.117,12.24.01a2.9,2.9,0,0,1,3.02,3.074,3.432,3.432,0,0,1-2.913,3.287c-.854.159-1.718.224-2.678.341v3.927a36.219,36.219,0,0,1,18.685,7.874c1.1-1.088,1.963-1.942,2.892-2.871-.651-.81-1.217-1.473-1.739-2.177a3.1,3.1,0,0,1,.245-4.321,3.01,3.01,0,0,1,4.311-.224c2.913,2.731,5.773,5.528,8.515,8.429a3.109,3.109,0,0,1-.064,4.557c-1.238,1.259-2.924,1.313-4.578.118-.619-.46-1.2-.982-1.953-1.6-.971.981-1.835,1.835-2.8,2.805a38.478,38.478,0,0,1,7.822,18.76h4.076c.064-.918.064-1.621.171-2.315a3.4,3.4,0,0,1,3.383-3.138,3.1,3.1,0,0,1,3.137,2.967c.149,3.992.192,7.994.075,12a3.261,3.261,0,0,1-3.287,3.2c-1.718-.011-2.956-1.218-3.287-3.234-.128-.758-.192-1.526-.288-2.368H210.52a38.178,38.178,0,0,1-7.673,18.643l2.625,3.051c.832-.661,1.441-1.151,2.06-1.633,1.537-1.174,3.041-1.151,4.279.065a3.162,3.162,0,0,1,.373,4.535,17.03,17.03,0,0,1-1.291,1.344c-2.262,2.263-4.482,4.567-6.8,6.766a3.347,3.347,0,0,1-4.781.2c-1.4-1.377-1.43-3.031-.053-4.759.438-.543.9-1.056,1.462-1.718-.95-.927-1.8-1.77-2.646-2.593-3.127,1.7-6.04,3.586-9.188,4.909a99,99,0,0,1-9.764,3.009v3.521c.928.128,1.7.235,2.476.352a3.246,3.246,0,0,1-.235,6.488c-3.906.085-7.811.085-11.717-.032a2.92,2.92,0,0,1-2.956-3.105,3.093,3.093,0,0,1,2.764-3.319c.843-.139,1.707-.245,2.6-.373v-3.938a38.243,38.243,0,0,1-18.6-7.7c-1.11,1.014-2.006,1.825-2.956,2.689.619.714,1.11,1.217,1.537,1.781a3.715,3.715,0,0,1,.139,4.663,3.6,3.6,0,0,1-4.834.139,8.463,8.463,0,0,1-.992-.875c-2.07-2.07-4.151-4.139-6.211-6.231a7.858,7.858,0,0,1-1.152-1.442,3.365,3.365,0,0,1,.448-4.363,3.42,3.42,0,0,1,4.407-.086c.63.459,1.2.992,1.985,1.666.939-1.09,1.771-2.038,2.668-3.074A34.939,34.939,0,0,1,140.806,97H136.89c-.149.982-.235,1.782-.416,2.55a3.487,3.487,0,0,1-3.5,2.946A3.652,3.652,0,0,1,129.943,99c.149-3.735.011-7.47.053-11.2m45.651,34.073a28.438,28.438,0,1,0-28.438-28.438,28.44,28.44,0,0,0,28.438,28.438" transform="translate(47.433 -47.72)" fill="#476a8a" stroke="#fff" stroke-width="3"/>
    </g>
    <g id="Group_227" data-name="Group 227" transform="translate(883.497 531.334)">
      <g id="Group_127" data-name="Group 127" transform="translate(0 0)" clip-path="url(#clip-path)">
        <path id="Path_151" data-name="Path 151" d="M32.643,60.509A10.555,10.555,0,0,0,30.6,54.088a10.237,10.237,0,0,0-7.632-4.517q-3.289-.161-6.6-.215a.266.266,0,0,1-.088,0q-3.3.051-6.6.215a10.237,10.237,0,0,0-7.632,4.517A10.555,10.555,0,0,0,.006,60.509c.19,5.2.176,10.415,0,15.616A9.312,9.312,0,0,0,1.847,82.1a9.043,9.043,0,0,0,1.7,1.729c.01,0,.02.015.029.02.552.361,1.138.7,1.758,1.06.229.107.464.2.7.288.376.132.737.3,1.333.542v2.354c0,5.205-.02,10.41.01,15.62.015,2.847,1.045,4.419,3.286,4.927.088.02.176.039.269.054a.691.691,0,0,1,.1.02c.2.029.4.054.605.073.107.01.22.02.332.024l.215.015c.078,0,.156,0,.234,0,.225,0,.444,0,.669,0h.21q1.348.015,2.7.015h.664q1.348,0,2.7-.015h.21c.225,0,.444,0,.669,0,.078,0,.156,0,.234,0s.146,0,.215-.015c.112,0,.225-.015.332-.024.21-.02.41-.044.605-.073a.576.576,0,0,0,.1-.02c.093-.015.181-.034.269-.054,2.241-.508,3.271-2.08,3.286-4.927.029-5.21.01-10.415.01-15.62V85.734c.6-.244.957-.41,1.333-.542.239-.088.474-.181.7-.288.62-.356,1.206-.7,1.758-1.06.01,0,.02-.015.029-.02A9.043,9.043,0,0,0,30.8,82.1a9.312,9.312,0,0,0,1.841-5.972c-.176-5.2-.19-10.415,0-15.616m-10.5,1.685c-.122,14.4.107,28.677-.059,43.111h-.894a5.2,5.2,0,0,1-2.539,0h-.605v-.093c-.044,0-.088-.015-.132-.02V87.906H14.732v17.285c-.044,0-.088.015-.132.02v.093H14a5.2,5.2,0,0,1-2.539,0h-.894c-.166-14.434.063-28.711-.059-43.111H7.33V82.062c-.039-.02-.078-.044-.117-.063C4.371,80.484,3.35,79.249,3.3,76.524c-.1-5.43.024-10.864.132-16.294v-.044a7.95,7.95,0,0,1,.22-1.738v0a6.815,6.815,0,0,1,4.522-5.21,8.733,8.733,0,0,1,1.709-.415,8.636,8.636,0,0,1,1.743-.146c.43,0,.854.01,1.284.01h.22c.977,0,1.958,0,2.935,0h.518c.977,0,1.958,0,2.935,0,.073,0,.146,0,.22,0,.43,0,.854,0,1.284-.01a8.636,8.636,0,0,1,1.743.146,8.733,8.733,0,0,1,1.709.415A6.815,6.815,0,0,1,29,58.443v0a7.95,7.95,0,0,1,.22,1.738v.044c.107,5.43.229,10.864.132,16.294-.049,2.725-1.069,3.96-3.911,5.474-.039.02-.078.044-.117.063V62.193Z" transform="translate(0 -25.256)" fill="#395c7e" stroke="#fff" stroke-linecap="round" stroke-linejoin="round" stroke-width="1"/>
        <path id="Path_152" data-name="Path 152" d="M19.987,0A10.446,10.446,0,0,0,9.524,10.773,10.561,10.561,0,1,0,19.987,0M20.1,17.726a6.853,6.853,0,0,1-7.158-6.968,7.151,7.151,0,1,1,14.3-.288A6.923,6.923,0,0,1,20.1,17.726" transform="translate(-3.528 0)" fill="#395c7e" stroke="#fff" stroke-linecap="round" stroke-linejoin="round" stroke-width="1"/>
      </g>
    </g>
    <g id="Group_472" data-name="Group 472" transform="translate(923.671 556.49)">
      <rect id="Rectangle_45" data-name="Rectangle 45" width="28.444" height="4.754" transform="translate(0 14.262)" fill="#476a8a"/>
      <rect id="Rectangle_46" data-name="Rectangle 46" width="33.277" height="4.063" transform="translate(12.19 33.277) rotate(-90)" fill="#476a8a"/>
    </g>
  </g>
</svg>
