<svg xmlns="http://www.w3.org/2000/svg" xmlns:xlink="http://www.w3.org/1999/xlink" width="643.299" height="412.029" viewBox="0 0 643.299 412.029">
  <defs>
    <clipPath id="clip-path">
      <rect id="Rectangle_107" data-name="Rectangle 107" width="643.299" height="412.029" fill="none"/>
    </clipPath>
  </defs>
  <g id="Group_469" data-name="Group 469" clip-path="url(#clip-path)">
    <path id="Path_359" data-name="Path 359" d="M508.146,367.03c-5.467-2.113-5.463-2.113-4.83-7.752a23.12,23.12,0,0,0,.454-5.1c-.358-3.053-1.1-5.92-5.05-6.453a8.9,8.9,0,0,1-4.115-2.123c-2.816-2.336-5.471-4.87-8.162-7.356-3.939-3.64-7.8-3.713-11.979-.194-1.955,1.645-3.921,3.277-6.246,5.219-4.664-4.6-9.062-10.292-16.309-9.657-6.43.563-12.752,2.351-19.586,3.689l-2.871-6.241-1.013-.136c-.429,1.788-.857,3.577-1.366,5.7.148-.121-.037.162-.223.162-5.356.01-10.491.427-15.626,2.67-2.816,1.23-6.61.22-10.533.22-.14.5-.546,1.975-.95,3.438,3.3,1.672,7.19-3.731,9.857,1.421l4.626-3.861c1.583,2.08,1.576,2.076-.616,5.031-1.229,1.657-2.433,3.334-3.891,5.336l8.876,6.434c-2.7,2.582-4.978,2.207-7.418.1a58.709,58.709,0,0,0-5.587-3.828l-2.648,3.924c-2.871-1.328-5.79-2.3-7.8,2.041-4.9-3.274-9.358-6.189-13.745-9.212-3.7-2.552-4.422-2.386-6.372,2.133-6.317-.562-12.734-1.314-19.173-1.614a18.5,18.5,0,0,0-7.321,1.355c-5.029,1.955-4.966,2.117-9.447-1.074l-2.684,1.924,2.16,3.794c-5.2,3.6-8.282,10.384-14.982,11.451-8.217,1.309-11.528,8.285-17.039,12.689-.582.465-.547,1.771-.691,2.7-.167,1.082.114,2.362-.368,3.246-4.1,7.525-1.438,14.5,1.551,21.47.288.673.561,1.352.894,2.153-2.279,1.7-4.255,1.807-6.678-.169a8.232,8.232,0,0,0-5.319-1.54c-5.261.357-9.347-2.381-13.652-4.585a3.434,3.434,0,0,1-1.467-1.94c-1.518-5.1-2.882-10.254-4.407-15.357a12.994,12.994,0,0,0-1.852-3.831,32.062,32.062,0,0,0-3.475-3.768c-4.105-4.094-7.573-8.456-8.684-14.46-1.365-7.382-7.718-11.337-12.34-16.387-.958-1.046-3.683-.359-5.55-.707-6.414-1.2-10.694,1.3-13.252,7.224a29.514,29.514,0,0,1-2.791,4.214c-6.514-4.454-12.972-8.606-19.057-13.246-1.263-.964-1.578-3.745-1.567-5.685a13.8,13.8,0,0,0-3.8-9.569c-5.455-6.262-10.683-12.725-16.18-18.948a7.476,7.476,0,0,0-4.269-2.105c-5.65-.811-11.343-1.325-17.207-1.97-.481,2.392-.907,4.5-1.406,6.982-8.516-1.319-16.9-2.62-25.282-3.916-1.446-.224-2.888-.544-4.343-.633-6.93-.425-12.757-3.475-18.489-7.147C107.1,296.941,97.118,291.041,87.23,285c-2.582-1.578-5.852-2.7-3.883-7.1-8.757-.876-16.975-1.826-25.217-2.447-2.5-.188-3.8-.637-3.846-3.446a25.258,25.258,0,0,0-7.2-17.458,29.446,29.446,0,0,0-4.268-3.147l-.72.723c-.066-1.332-.132-2.665-.224-4.521-5.717-.006-7.473-4.953-10.392-8.7-.879-1.128-2.527-1.686-3.878-2.4a17.857,17.857,0,0,0-2.413-.844c-7.782-2.764-7.712-2.755-6.564-10.828a10.22,10.22,0,0,0-.578-4.882c-2.265-5.919-4.568-11.837-7.224-17.585-1.408-3.047-1.646-5.433,1.164-7.665a8.889,8.889,0,0,0,1.441-1.992c-1.788-3.208-7.153-3.956-5.7-9.009.978-3.4,1.924-6.816,2.907-10.3-3.6.178-6.046-2.014-5.867-5.981.186-4.138-1.239-7.472-3.053-11.008a13.854,13.854,0,0,1,.323-13.927,5.017,5.017,0,0,0,.467-2.642A8.959,8.959,0,0,0,1.835,137C-.649,130.793.5,125.675,4.126,119.766c2.925-4.768,4.143-11.5,3.753-17.2-.736-10.728,3.2-19.3,8.629-27.909,2.879-4.563,4.826-9.8,6.662-14.919,3.825-10.671,7.686-21.387,8.743-32.784.642-6.921.79-13.888,1.166-20.835.057-1.059.149-2.116.269-3.792C39.072,6.424,44.665,9.912,49.6,14.165c2.474,2.132,1.725,5.611-.233,8.317-1.361,1.882-1.409,3.453.689,4.856C55.59,19.065,54.128,9.589,54.672,0c6.17,1.84,11.936,3.632,17.744,5.278A1003.06,1003.06,0,0,0,192.948,31.9c31.384,4.848,62.881,8.427,94.669,8.681,13.051.1,26.106-.467,39.159-.5,3.079-.01,4.718-1.1,5.459-3.952a7.068,7.068,0,0,1,.809-1.516c3.708.069,3.463,3.1,3.412,5.033-.092,3.561,1.524,5.019,4.657,5.73,3.4.773,6.366,2.836,10.342.55,2.192-1.261,5.713-.357,7.73,2.541,1.026,1.474,2.061,3.483,4.671,1.754.545-.361,2.463.67,3.268,1.517,2.237,2.353,4.35,2.575,7.112.821,1.078-.685,2.832-.584,4.232-.427,3.891.436,7.757,1.089,11.358,1.616L365.037,74.923l.5,1.2c2.037-.582,4.134-1.012,6.1-1.787,2.134-.844,4.142-2.008,6.75-3.3.141,1.666.252,2.984.379,4.491a8.358,8.358,0,0,0,9.291-.757c6.094-4.462,12.308-8.76,18.522-13.055a8.6,8.6,0,0,1,3.955-1.371c-2.036,4.217-5.939,6.957-7.9,11.854C408.7,70,408.7,70,413.934,73.836c2.8,2.055,8.477,2.462,11.3.587,2.687-1.786,4.49-.387,6.387,1.308.925.828,1.925,1.964,3.02,2.136,3.211.506,6.714.191,7.641,4.513.057.265.546.674.765.634,5.264-.958,8.2,4.26,13.01,4.851,3.033.373,4.854,2.7,3.959,6.293a4.446,4.446,0,0,0,.815,2.643c2.279,4.27,1.934,7.088-.845,10.988a20.774,20.774,0,0,0-2.934,6.334c-.245.869.9,2.133,1.417,3.217a10.174,10.174,0,0,0,2.77-1.7c1.786-2.145,3.353-4.473,5.711-7.689,1.515,1.912,3.277,3.258,3.811,4.986a136.928,136.928,0,0,1,3.136,13.358c.663,3.273-1.319,5.623-2.827,8.321-2.082,3.724-3.247,7.961-4.745,11.826l11.9,5.169c7.184-4.52,14.983-8.971,22.241-14.177,3.875-2.78,6.723-6.96,10.208-10.329,3.013-2.913,4.437-5.8,1.82-9.8-1.063-1.624,1.851-4.868,4.708-5.525a2.778,2.778,0,0,1,1.094-.04c7.755,1.423,13.841-2.475,20.078-6.117,1.916-1.119,2.7-2.347,2.033-4.373-1.256-3.815-.029-6.565,1.9-10.2a60.064,60.064,0,0,1,8.423-11.521,4.118,4.118,0,0,1,2.673-1.486c12.627.365,24.009-4.932,35.923-7.781,1.3-.311,2.583-.711,3.863-1.107.572-.178,1.588-.415,1.606-.677.41-6.244,8.622-7.346,8.91-13.731a91.292,91.292,0,0,1,1.345-10.09c.95-5.991,1.868-11.991,3.055-17.935.248-1.243,1.6-2.266,2.8-3.872l2.147,4.528c2.109-1.681,4.143-3.3,6.18-4.922a9.287,9.287,0,0,1,7.38,7.491,116.8,116.8,0,0,0,4.1,12.115c.831,2.3.991,5.125,4.415,5.53.622.073,1.012,1.544,1.64,2.254,1.185,1.341,2.465,2.6,3.705,3.89l.859-.637a17.136,17.136,0,0,0,.955,1.917c1.833,2.782,1.143,4.873-1.551,6.65-2.941,1.94-4.993,4.82-8.987,5.722-2.41.544-4.988,3.924-5.92,6.582-1.324,3.773-3.958,5.755-6.925,7.522a9.888,9.888,0,0,0-5.086,8.21c-.252,2.516-1.272,4.947-1.719,7.457a14.4,14.4,0,0,0,.166,3.836c.217,2.185.5,4.364.756,6.546l-1,.289c1.8,1.635,3.624,3.254,5.408,4.91,3.036,2.819,2.825,6.24-.878,8.208-5.571,2.961-11.551,5.193-16.96,8.405a90.5,90.5,0,0,0-13.793,10.7c6.677-1.249,10.489-8.948,18.069-7.633q.348.619.695,1.236l-20.425,13.651c3.076,2.741,4.843,6.6,2.646,12.3L577,148.005c-4.6.365-5.98-.753-5.118-5.242.206-1.077.443-2.148.658-3.224.307-1.538.607-3.078.834-4.229-1.771-1.464-3.621-2.482-4.755-4.026-3.565-4.85-3.461-4.926-10.989-3.34,8.49,4.564,7.225,12.047,6.9,19.159,4.415-.222,5.5,1.1,6.827,5.173.68,2.092,2.788,3.844,4.542,5.424,1.512,1.362,1.9,2.459.961,4.353-1.565,3.152-2.832,6.452-4.327,9.928l-6.482-3.661-.749.44c1.071,1.984,1.768,4.332,3.282,5.881,4.587,4.694,3.307,10.177,2.214,15.427-.836,4.01-2.731,7.8-4.156,11.683l-1.01.079c-.181-1.351-.742-2.783-.475-4.037.931-4.371.349-7.853-4.126-10.017-4.741-2.294-2.292-7.2-3.641-10.745a12.484,12.484,0,0,0-2.6-4.217c-.423,6.243.332,11.884,4,17.127,1.708,2.441,1.788,6.155,2.192,9.344.453,3.58-.035,7.2,4.585,8.87,2.367.854,2.962,5.7,1.51,7.889l3.315,2.632-5.715,5.311,7.026,2.423c1.09,4.178-1.989,8.144-8.586,10.116l4.837,4.5c-2.016,1.792-3.912,3.437-5.761,5.132-3.1,2.843-7.356,5.179-8.956,8.713-2.176,4.806-4.1,7.949-9.814,9.129-2.19.452-3.448,5.612-5.049,8.669-.976,1.862-1.5,4.04-2.759,5.656a40.879,40.879,0,0,1-6.387,6.553c-9.377,7.611-12.691,18.044-14.429,29.422a22.454,22.454,0,0,0,1.1,10.246c2.857,9.656,8.873,17.255,14.808,25.005a8.552,8.552,0,0,1,1.926,4.9,20.005,20.005,0,0,0,4.4,12.868,28.584,28.584,0,0,1,5.733,20.9c-.295,3.029-.044,6.111-.05,9.168-.01,5.615-.61,6.235-5.885,8.078-1.98.693-3.164.361-4.4-1.185-1.523-1.906-3.21-3.68-4.832-5.5-.568-.638-1.118-1.76-1.741-1.807-5.878-.443-6.5-5.821-8.978-9.411-1.685-2.441-2.617-5.194-6.182-6.168-2.926-.8-4.913-7.678-3.842-10.675.407-1.138.809-2.279,1.307-3.684M419.73,97.278l.864.316c-.732,3.484-1.128,7.082-2.256,10.434-4.765,14.156-3.669,28.028,1.523,41.781.72,1.907,1.425,4.436,4.141,2.878a87.555,87.555,0,0,0,8.919-6.362,2.42,2.42,0,0,0,.952-1.782c-.769-5.9-.863-12.051-2.711-17.611-2.328-7-3.847-13.626-1.4-20.856,1.112-3.284,1-7.117,5.372-8.225a2.227,2.227,0,0,0,1.185-1.278c1.245-3.209,2.406-6.45,3.511-9.452-2.049,0-3.8-.034-5.554.009a25.346,25.346,0,0,0-13.127,2.614,6.031,6.031,0,0,0-2.839,2.411c-2.1,3.98-3.988,8.069-5.857,12.163a21.9,21.9,0,0,0-.964,3.555l.7.3,7.537-10.9" transform="translate(0)" fill="#f5f7f9"/>
  </g>
</svg>
