<svg xmlns="http://www.w3.org/2000/svg" xmlns:xlink="http://www.w3.org/1999/xlink" width="475.613" height="460.632" viewBox="0 0 475.613 460.632">
  <defs>
    <clipPath id="clip-path">
      <rect id="Rectangle_38" data-name="Rectangle 38" width="54.739" height="140.143" fill="#a9253f" stroke="#fff" stroke-width="1"/>
    </clipPath>
    <clipPath id="clip-path-3">
      <rect id="Rectangle_39" data-name="Rectangle 39" width="64.536" height="140.824" fill="#a9253f" stroke="#fff" stroke-width="1"/>
    </clipPath>
    <clipPath id="clip-path-6">
      <path id="Path_216" data-name="Path 216" d="M0,0H227.756l-5.81,423.676H0Z" fill="#fff" stroke="#6e95ad" stroke-width="4"/>
    </clipPath>
  </defs>
  <g id="Group_256" data-name="Group 256" transform="translate(0 90.494)">
    <g id="Group_128" data-name="Group 128" transform="translate(82.391 1.05)">
      <g id="Group_127" data-name="Group 127" transform="translate(0 0)" clip-path="url(#clip-path)">
        <path id="Path_151" data-name="Path 151" d="M54.729,68.054A17.7,17.7,0,0,0,51.3,57.289c-3-4.257-7.7-7.327-12.8-7.573q-5.514-.27-11.06-.36a.445.445,0,0,1-.147,0q-5.538.086-11.06.36c-5.092.246-9.791,3.316-12.8,7.573A17.7,17.7,0,0,0,.01,68.054C.329,76.773.3,85.516.01,94.235A15.612,15.612,0,0,0,3.1,104.247a15.161,15.161,0,0,0,2.849,2.9c.016.008.033.025.049.033.925.606,1.907,1.179,2.947,1.776.385.18.778.336,1.179.483.63.221,1.236.5,2.235.909v3.946c0,8.727-.033,17.454.016,26.189.025,4.773,1.752,7.409,5.51,8.26.147.033.295.065.45.09a1.165,1.165,0,0,1,.164.033c.327.049.663.09,1.015.123.18.016.368.033.557.041l.36.025c.131,0,.262.008.393.008.377.008.745.008,1.122.008h.352q2.26.025,4.519.025h1.113q2.26,0,4.519-.025H32.8c.377,0,.745,0,1.122-.008.131,0,.262-.008.393-.008s.246-.008.36-.025c.188-.008.377-.025.557-.041.352-.033.688-.074,1.015-.123a.963.963,0,0,0,.164-.033c.156-.025.3-.057.45-.09,3.758-.851,5.485-3.487,5.51-8.26.049-8.735.016-17.462.016-26.189v-3.946c1-.409,1.6-.688,2.235-.909.4-.147.794-.3,1.179-.483,1.04-.6,2.022-1.171,2.947-1.776.016-.008.033-.025.049-.033a15.161,15.161,0,0,0,2.849-2.9,15.612,15.612,0,0,0,3.086-10.012c-.295-8.719-.319-17.462,0-26.181m-17.6,2.824c-.2,24.142.18,48.08-.1,72.279h-1.5c-.86.368-2.186.3-4.257,0H30.259V143c-.074-.008-.147-.025-.221-.033V113.989H24.7V142.97c-.074.008-.147.025-.221.033v.156H23.464c-2.071.3-3.4.368-4.257,0h-1.5c-.278-24.2.106-48.137-.1-72.279H12.29V104.19c-.065-.033-.131-.074-.2-.106-4.765-2.538-6.476-4.609-6.557-9.177-.164-9.1.041-18.215.221-27.319v-.074A13.328,13.328,0,0,1,6.125,64.6v-.008a11.425,11.425,0,0,1,7.581-8.735,14.644,14.644,0,0,1,2.865-.7,14.48,14.48,0,0,1,2.923-.246c.72.008,1.433.016,2.153.016h.368c1.637-.008,3.283-.008,4.92,0H27.8c1.637-.008,3.283-.008,4.92,0,.123.008.246,0,.368,0,.72,0,1.433-.008,2.153-.016a14.48,14.48,0,0,1,2.923.246,14.644,14.644,0,0,1,2.865.7,11.425,11.425,0,0,1,7.581,8.735V64.6a13.328,13.328,0,0,1,.368,2.914v.074c.18,9.1.385,18.215.221,27.319-.082,4.568-1.793,6.639-6.557,9.177-.065.033-.131.074-.2.106V70.879Z" transform="translate(0 -8.95)" fill="#a9253f" stroke="#fff" stroke-width="1"/>
        <path id="Path_152" data-name="Path 152" d="M27.067,0C17,.2,9.5,7.829,9.524,18.062A17.707,17.707,0,1,0,27.067,0m.181,29.717c-6.942-.016-11.888-4.83-12-11.682C15.131,10.825,20.329,5.479,27.37,5.561A11.879,11.879,0,0,1,39.216,17.554c.05,7.057-4.986,12.173-11.968,12.165" transform="translate(0.528 0)" fill="#a9253f" stroke="#fff" stroke-width="1"/>
      </g>
      <g id="Group_244" data-name="Group 244" transform="translate(216.33 0.001)" clip-path="url(#clip-path)">
        <path id="Path_199" data-name="Path 199" d="M54.729,68.054A17.7,17.7,0,0,0,51.3,57.289c-3-4.257-7.7-7.327-12.8-7.573q-5.514-.27-11.06-.36a.445.445,0,0,1-.147,0q-5.538.086-11.06.36c-5.092.246-9.791,3.316-12.8,7.573A17.7,17.7,0,0,0,.01,68.054C.329,76.773.3,85.516.01,94.235A15.612,15.612,0,0,0,3.1,104.247a15.161,15.161,0,0,0,2.849,2.9c.016.008.033.025.049.033.925.606,1.907,1.179,2.947,1.776.385.18.778.336,1.179.483.63.221,1.236.5,2.235.909v3.946c0,8.727-.033,17.454.016,26.189.025,4.773,1.752,7.409,5.51,8.26.147.033.295.065.45.09a1.165,1.165,0,0,1,.164.033c.327.049.663.09,1.015.123.18.016.368.033.557.041l.36.025c.131,0,.262.008.393.008.377.008.745.008,1.122.008h.352q2.26.025,4.519.025h1.113q2.26,0,4.519-.025H32.8c.377,0,.745,0,1.122-.008.131,0,.262-.008.393-.008s.246-.008.36-.025c.188-.008.377-.025.557-.041.352-.033.688-.074,1.015-.123a.963.963,0,0,0,.164-.033c.156-.025.3-.057.45-.09,3.758-.851,5.485-3.487,5.51-8.26.049-8.735.016-17.462.016-26.189v-3.946c1-.409,1.6-.688,2.235-.909.4-.147.794-.3,1.179-.483,1.04-.6,2.022-1.171,2.947-1.776.016-.008.033-.025.049-.033a15.161,15.161,0,0,0,2.849-2.9,15.612,15.612,0,0,0,3.086-10.012c-.295-8.719-.319-17.462,0-26.181m-17.6,2.824c-.2,24.142.18,48.08-.1,72.279h-1.5c-.86.368-2.186.3-4.257,0H30.259V143c-.074-.008-.147-.025-.221-.033V113.989H24.7V142.97c-.074.008-.147.025-.221.033v.156H23.464c-2.071.3-3.4.368-4.257,0h-1.5c-.278-24.2.106-48.137-.1-72.279H12.29V104.19c-.065-.033-.131-.074-.2-.106-4.765-2.538-6.476-4.609-6.557-9.177-.164-9.1.041-18.215.221-27.319v-.074A13.328,13.328,0,0,1,6.125,64.6v-.008a11.425,11.425,0,0,1,7.581-8.735,14.644,14.644,0,0,1,2.865-.7,14.48,14.48,0,0,1,2.923-.246c.72.008,1.433.016,2.153.016h.368c1.637-.008,3.283-.008,4.92,0H27.8c1.637-.008,3.283-.008,4.92,0,.123.008.246,0,.368,0,.72,0,1.433-.008,2.153-.016a14.48,14.48,0,0,1,2.923.246,14.644,14.644,0,0,1,2.865.7,11.425,11.425,0,0,1,7.581,8.735V64.6a13.328,13.328,0,0,1,.368,2.914v.074c.18,9.1.385,18.215.221,27.319-.082,4.568-1.793,6.639-6.557,9.177-.065.033-.131.074-.2.106V70.879Z" transform="translate(0 -8.95)" fill="#a9253f" stroke="#fff" stroke-width="1"/>
        <path id="Path_200" data-name="Path 200" d="M27.067,0C17,.2,9.5,7.829,9.524,18.062A17.707,17.707,0,1,0,27.067,0m.181,29.717c-6.942-.016-11.888-4.83-12-11.682C15.131,10.825,20.329,5.479,27.37,5.561A11.879,11.879,0,0,1,39.216,17.554c.05,7.057-4.986,12.173-11.968,12.165" transform="translate(0.528 0)" fill="#a9253f" stroke="#fff" stroke-width="1"/>
      </g>
    </g>
    <g id="Group_130" data-name="Group 130" transform="translate(0 0)">
      <g id="Group_129" data-name="Group 129" transform="translate(0 0)" clip-path="url(#clip-path-3)">
        <path id="Path_153" data-name="Path 153" d="M61.867,110.81c3.276-2.755,3.025-8.566,1.939-13.134-1.258-5.3-2.1-10.708-3.152-16.054L57.539,67.777l-.007-.007v-.007c-2.553-7.975-8.012-12.752-15.448-13.044-6.724-.262-13.471-.082-20.2.135-6.013.2-10.221,3.512-13.051,8.611a41.955,41.955,0,0,0-2.149,4.927V68.4l-2.9,14.227-.427,2.1c-.607,3-1.236,6.005-1.857,9.008L.391,99.174l-.3,2.112c-.27,3.287-.088,6.853,2.613,9.532l4.523,3.28c.726.427,1.528.9,2.321,1.363-.292,1.685-.517,3.152-.794,4.613s-.629,2.928-.9,4.4c-.921,5.092,1.265,8.214,6.335,9.038.936.15,1.887.195,3.048.314,0,4.358-.067,8.461.015,12.565.1,5.391,2.718,8.02,8.065,8.109,4.246.075,8.484.03,12.73.015,6.747-.022,9.278-2.508,9.308-9.173.015-3.834.007-7.668.007-11.539.891-.12,1.363-.2,1.85-.247,6.237-.622,8.394-3.542,7.263-9.794-.5-2.786-.951-5.579-1.43-8.349a5.05,5.05,0,0,1,1.528-1.033ZM29.789,148.931a9.375,9.375,0,0,1-1.46.4c-5.691.367-5.871.2-5.871-5.481v-10h7.331Zm12.1.135c-2.216.12-4.365.232-6.814.367V133.679h6.814Zm12.086-39.282c-2.216-11.6-4.35-22.8-6.529-34.242-1.73.24-3.152.434-4.972.689,2.98,17.394,6.507,34.362,9.547,51.8H13.091a18.072,18.072,0,0,1,.03-3.257q4.223-22.576,8.521-45.13c.18-.973.172-1.969.292-3.362-1.475-.262-2.868-.5-4.762-.831-2.186,11.449-4.35,22.741-6.522,34.108a9.866,9.866,0,0,1-3.5-2.366,6.826,6.826,0,0,1-1.513-6.267Q6.318,97.523,7,94.12,9.23,82.944,11.428,71.761c1.722-8.723,6-12.25,15.036-12.243,4.86,0,9.727.135,14.587.15,5.721.015,10.64,4.792,11.659,10.191,1.161,6.207,2.449,12.385,3.744,18.57.884,4.246,1.782,8.491,2.636,12.744.674,3.325-.337,5.549-3.707,7.757-.427.285-.9.569-1.408.854" transform="translate(0 -13.713)" fill="#a9253f" stroke="#fff" stroke-width="1"/>
        <path id="Path_154" data-name="Path 154" d="M52.41,18c.3,8.292-7.22,17.654-18.054,17.323A17.657,17.657,0,0,1,17.175,17.4,17.84,17.84,0,0,1,35.34,0C44.436.193,52.827,8.355,52.41,18M34.826,30.084c6.107.489,12.5-5.164,12.411-12.048-.091-7.191-5.156-12.7-12.17-12.809A12.58,12.58,0,0,0,22.339,17.555c-.222,6.55,5.744,12.85,12.487,12.529" transform="translate(-2.249 0)" fill="#a9253f" stroke="#fff" stroke-width="1"/>
      </g>
    </g>
    <g id="Group_242" data-name="Group 242" transform="translate(144.304 0)">
      <g id="Group_129-2" data-name="Group 129" transform="translate(0 0)" clip-path="url(#clip-path-3)">
        <path id="Path_153-2" data-name="Path 153" d="M61.867,110.81c3.276-2.755,3.025-8.566,1.939-13.134-1.258-5.3-2.1-10.708-3.152-16.054L57.539,67.777l-.007-.007v-.007c-2.553-7.975-8.012-12.752-15.448-13.044-6.724-.262-13.471-.082-20.2.135-6.013.2-10.221,3.512-13.051,8.611a41.955,41.955,0,0,0-2.149,4.927V68.4l-2.9,14.227-.427,2.1c-.607,3-1.236,6.005-1.857,9.008L.391,99.174l-.3,2.112c-.27,3.287-.088,6.853,2.613,9.532l4.523,3.28c.726.427,1.528.9,2.321,1.363-.292,1.685-.517,3.152-.794,4.613s-.629,2.928-.9,4.4c-.921,5.092,1.265,8.214,6.335,9.038.936.15,1.887.195,3.048.314,0,4.358-.067,8.461.015,12.565.1,5.391,2.718,8.02,8.065,8.109,4.246.075,8.484.03,12.73.015,6.747-.022,9.278-2.508,9.308-9.173.015-3.834.007-7.668.007-11.539.891-.12,1.363-.2,1.85-.247,6.237-.622,8.394-3.542,7.263-9.794-.5-2.786-.951-5.579-1.43-8.349a5.05,5.05,0,0,1,1.528-1.033ZM29.789,148.931a9.375,9.375,0,0,1-1.46.4c-5.691.367-5.871.2-5.871-5.481v-10h7.331Zm12.1.135c-2.216.12-4.365.232-6.814.367V133.679h6.814Zm12.086-39.282c-2.216-11.6-4.35-22.8-6.529-34.242-1.73.24-3.152.434-4.972.689,2.98,17.394,6.507,34.362,9.547,51.8H13.091a18.072,18.072,0,0,1,.03-3.257q4.223-22.576,8.521-45.13c.18-.973.172-1.969.292-3.362-1.475-.262-2.868-.5-4.762-.831-2.186,11.449-4.35,22.741-6.522,34.108a9.866,9.866,0,0,1-3.5-2.366,6.826,6.826,0,0,1-1.513-6.267Q6.318,97.523,7,94.12,9.23,82.944,11.428,71.761c1.722-8.723,6-12.25,15.036-12.243,4.86,0,9.727.135,14.587.15,5.721.015,10.64,4.792,11.659,10.191,1.161,6.207,2.449,12.385,3.744,18.57.884,4.246,1.782,8.491,2.636,12.744.674,3.325-.337,5.549-3.707,7.757-.427.285-.9.569-1.408.854" transform="translate(0 -13.713)" fill="#a9253f" stroke="#fff" stroke-width="1"/>
        <path id="Path_154-2" data-name="Path 154" d="M52.41,18c.3,8.292-7.22,17.654-18.054,17.323A17.657,17.657,0,0,1,17.175,17.4,17.84,17.84,0,0,1,35.34,0C44.436.193,52.827,8.355,52.41,18M34.826,30.084c6.107.489,12.5-5.164,12.411-12.048-.091-7.191-5.156-12.7-12.17-12.809A12.58,12.58,0,0,0,22.339,17.555c-.222,6.55,5.744,12.85,12.487,12.529" transform="translate(-2.249 0)" fill="#a9253f" stroke="#fff" stroke-width="1"/>
      </g>
    </g>
    <g id="Group_243" data-name="Group 243" transform="translate(221.353 0)">
      <g id="Group_129-3" data-name="Group 129" transform="translate(0 0)" clip-path="url(#clip-path-3)">
        <path id="Path_153-3" data-name="Path 153" d="M61.867,110.81c3.276-2.755,3.025-8.566,1.939-13.134-1.258-5.3-2.1-10.708-3.152-16.054L57.539,67.777l-.007-.007v-.007c-2.553-7.975-8.012-12.752-15.448-13.044-6.724-.262-13.471-.082-20.2.135-6.013.2-10.221,3.512-13.051,8.611a41.955,41.955,0,0,0-2.149,4.927V68.4l-2.9,14.227-.427,2.1c-.607,3-1.236,6.005-1.857,9.008L.391,99.174l-.3,2.112c-.27,3.287-.088,6.853,2.613,9.532l4.523,3.28c.726.427,1.528.9,2.321,1.363-.292,1.685-.517,3.152-.794,4.613s-.629,2.928-.9,4.4c-.921,5.092,1.265,8.214,6.335,9.038.936.15,1.887.195,3.048.314,0,4.358-.067,8.461.015,12.565.1,5.391,2.718,8.02,8.065,8.109,4.246.075,8.484.03,12.73.015,6.747-.022,9.278-2.508,9.308-9.173.015-3.834.007-7.668.007-11.539.891-.12,1.363-.2,1.85-.247,6.237-.622,8.394-3.542,7.263-9.794-.5-2.786-.951-5.579-1.43-8.349a5.05,5.05,0,0,1,1.528-1.033ZM29.789,148.931a9.375,9.375,0,0,1-1.46.4c-5.691.367-5.871.2-5.871-5.481v-10h7.331Zm12.1.135c-2.216.12-4.365.232-6.814.367V133.679h6.814Zm12.086-39.282c-2.216-11.6-4.35-22.8-6.529-34.242-1.73.24-3.152.434-4.972.689,2.98,17.394,6.507,34.362,9.547,51.8H13.091a18.072,18.072,0,0,1,.03-3.257q4.223-22.576,8.521-45.13c.18-.973.172-1.969.292-3.362-1.475-.262-2.868-.5-4.762-.831-2.186,11.449-4.35,22.741-6.522,34.108a9.866,9.866,0,0,1-3.5-2.366,6.826,6.826,0,0,1-1.513-6.267Q6.318,97.523,7,94.12,9.23,82.944,11.428,71.761c1.722-8.723,6-12.25,15.036-12.243,4.86,0,9.727.135,14.587.15,5.721.015,10.64,4.792,11.659,10.191,1.161,6.207,2.449,12.385,3.744,18.57.884,4.246,1.782,8.491,2.636,12.744.674,3.325-.337,5.549-3.707,7.757-.427.285-.9.569-1.408.854" transform="translate(0 -13.713)" fill="#a9253f" stroke="#fff" stroke-width="1"/>
        <path id="Path_154-3" data-name="Path 154" d="M52.41,18c.3,8.292-7.22,17.654-18.054,17.323A17.657,17.657,0,0,1,17.175,17.4,17.84,17.84,0,0,1,35.34,0C44.436.193,52.827,8.355,52.41,18M34.826,30.084c6.107.489,12.5-5.164,12.411-12.048-.091-7.191-5.156-12.7-12.17-12.809A12.58,12.58,0,0,0,22.339,17.555c-.222,6.55,5.744,12.85,12.487,12.529" transform="translate(-2.249 0)" fill="#a9253f" stroke="#fff" stroke-width="1"/>
      </g>
    </g>
    <g id="Group_253" data-name="Group 253" transform="translate(14.98 70.554) rotate(-45)">
      <g id="Mask_Group_5" data-name="Mask Group 5" transform="translate(0 0)" clip-path="url(#clip-path-6)">
        <path id="Path_212" data-name="Path 212" d="M.5,84.375A84.414,84.414,0,0,1,82.717,0a84.392,84.392,0,0,0,0,168.751A84.406,84.406,0,0,1,.5,84.375Z" transform="translate(28.382 29.938)" fill="#fff" stroke="#6e95ad" stroke-miterlimit="10" stroke-width="4"/>
        <path id="Path_213" data-name="Path 213" d="M103.828,0a103.828,103.828,0,0,0-11.08,207.063v23.128h22.161V207.063A103.829,103.829,0,0,0,103.828,0Zm2.183,188.7c-.732.014-1.451.028-2.183.028-.566,0-1.119,0-1.686-.028a84.392,84.392,0,0,1,0-168.751c.566-.028,1.119-.028,1.686-.028.732,0,1.451.014,2.183.028a84.392,84.392,0,0,1,0,168.751Z" transform="translate(8.956 9.987)" fill="#fff" stroke="#6e95ad" stroke-miterlimit="10" stroke-width="4"/>
        <path id="Path_215" data-name="Path 215" d="M44.267,8.8V151.37A22.133,22.133,0,0,1,0,151.37V8.8A8.8,8.8,0,0,1,8.8,0H35.466A8.8,8.8,0,0,1,44.267,8.8Z" transform="translate(90.651 240.178)" fill="#fff" stroke="#6e95ad" stroke-miterlimit="10" stroke-width="4"/>
      </g>
    </g>
  </g>
</svg>
