<svg xmlns="http://www.w3.org/2000/svg" xmlns:xlink="http://www.w3.org/1999/xlink" width="203.884" height="207.71" viewBox="0 0 203.884 207.71">
  <defs>
    <clipPath id="clip-path">
      <path id="Path_14" data-name="Path 14" d="M0,88.186H203.884v-207.71H0Z" transform="translate(0 119.524)" fill="none"/>
    </clipPath>
  </defs>
  <g id="Group_45" data-name="Group 45" transform="translate(-548.913 -352.028)">
    <g id="Group_23" data-name="Group 23" transform="translate(75.32 86.201)">
      <g id="Group_21" data-name="Group 21" transform="translate(473.593 265.827)">
        <g id="Group_20" data-name="Group 20" transform="translate(0 0)" clip-path="url(#clip-path)">
          <g id="Group_18" data-name="Group 18" transform="translate(0)">
            <path id="Path_12" data-name="Path 12" d="M43.281,88.186c56.3,0,101.942-46.5,101.942-103.855S99.582-119.524,43.281-119.524-58.661-73.025-58.661-15.669-13.021,88.186,43.281,88.186" transform="translate(58.661 119.524)" fill="#f4f4f5"/>
          </g>
          <g id="Group_19" data-name="Group 19" transform="translate(29.479 30.033)">
            <path id="Path_13" data-name="Path 13" d="M30.765,62.685c40.02,0,72.463-33.051,72.463-73.822S70.785-84.96,30.765-84.96-41.7-51.909-41.7-11.138-9.255,62.685,30.765,62.685" transform="translate(41.698 84.96)" fill="#e7e7e8"/>
          </g>
        </g>
      </g>
    </g>
    <path id="Path_38" data-name="Path 38" d="M10.092-129.584a25.59,25.59,0,0,1-3.659,13.417,28.672,28.672,0,0,1-3.659,4.947q-1.762,1.83-10.029,8.877-9.893,8.538-9.893,14.772a30.052,30.052,0,0,0,1.626,7.454,4.111,4.111,0,0,1,.136,1.22q0,1.22-1.084,1.22-1.491,0-2.914-3.93a23.325,23.325,0,0,1-1.423-8A24.615,24.615,0,0,1-18.64-99.837a64.924,64.924,0,0,1,8-12.265q8.674-11.113,8.674-19.245,0-7.454-3.93-11.723t-10.707-4.269a13.837,13.837,0,0,0-10.436,4.4,15.369,15.369,0,0,0-4.2,11.045q0,1.491.407,1.491.136-.271.813-1.355,1.355-2.575,5.014-2.575,6.1,0,6.1,6.234,0,6.505-7.047,6.505a8.384,8.384,0,0,1-6.641-2.778,10.791,10.791,0,0,1-2.439-7.386,17.206,17.206,0,0,1,6.031-13.553q6.031-5.286,15.653-5.286,10.571,0,17.009,5.76T10.092-129.584ZM-9.153-61.279a7.149,7.149,0,0,1-2.1,5.15,6.971,6.971,0,0,1-5.218,2.168,7.036,7.036,0,0,1-5.15-2.168,7.036,7.036,0,0,1-2.168-5.15A6.971,6.971,0,0,1-21.621-66.5a7.312,7.312,0,0,1,5.286-2.1,6.816,6.816,0,0,1,5.082,2.168A7.149,7.149,0,0,1-9.153-61.279Z" transform="translate(639.186 530.934)" fill="#a9253f"/>
  </g>
</svg>
