<svg id="Group_357" data-name="Group 357" xmlns="http://www.w3.org/2000/svg" xmlns:xlink="http://www.w3.org/1999/xlink" width="57.75" height="48.275" viewBox="0 0 57.75 48.275">
  <defs>
    <clipPath id="clip-path">
      <rect id="Rectangle_74" data-name="Rectangle 74" width="57.75" height="48.275" fill="#0D2C56"/>
    </clipPath>
  </defs>
  <g id="Group_356" data-name="Group 356" clip-path="url(#clip-path)">
    <path id="Path_267" data-name="Path 267" d="M28.716,6.939a73.064,73.064,0,0,1,6.437-5.006c5.821-3.593,14.542-1.968,19.06,3.349A14.32,14.32,0,0,1,54.321,24c-2.2,2.58-4.808,4.82-7.251,7.193q-6.758,6.563-13.541,13.1c-1.177,1.136-2.4,2.226-3.551,3.386a1.292,1.292,0,0,1-2.136.055c-2.977-2.9-6-5.755-8.986-8.645-4.833-4.674-9.7-9.312-14.464-14.057A13.842,13.842,0,0,1,.567,10.917C2.028,5.485,5.813,2.086,11.146.618c5.729-1.577,10.807-.1,15.12,3.989.834.79,1.664,1.585,2.449,2.332m.143,38.83c.264-.19.344-.233.406-.293q11.154-10.8,22.3-21.613A12.308,12.308,0,0,0,51.848,6,13.285,13.285,0,0,0,34.2,5.177C32.75,6.4,31.385,7.722,30.009,9.03c-.772.734-1.446.888-2.247.015-.837-.911-1.77-1.732-2.651-2.6a13.5,13.5,0,0,0-11.667-4.13,12.5,12.5,0,0,0-9.183,5.67C.852,13.2,1.7,19.485,6.244,23.908q9.08,8.842,18.224,17.618l4.391,4.243" transform="translate(0 0)" fill="#0D2C56"/>
  </g>
</svg>