<svg xmlns="http://www.w3.org/2000/svg" width="84" height="84" viewBox="0 0 84 84">
  <g id="Group_366" data-name="Group 366" transform="translate(0 -5)">
    <g id="Ellipse_62" data-name="Ellipse 62" transform="translate(0 5)" fill="none" stroke="#707070"
      stroke-width="2.2">
      <circle cx="42" cy="42" r="42" stroke="none" />
      <circle cx="42" cy="42" r="40.9" fill="none" />
    </g>
    <g id="Group_517" data-name="Group 517" transform="translate(0.55 3)">
      <path id="Path_377" data-name="Path 377"
        d="M-2.66-15.47-3.92-49H3.99L2.66-15.47ZM.07.42A4.469,4.469,0,0,1-3.22-.91,4.305,4.305,0,0,1-4.55-4.06,4.241,4.241,0,0,1-3.22-7.28,4.6,4.6,0,0,1,.07-8.54,4.361,4.361,0,0,1,3.29-7.28,4.361,4.361,0,0,1,4.55-4.06,4.426,4.426,0,0,1,3.29-.91,4.241,4.241,0,0,1,.07.42Z"
        transform="translate(41 68)" fill="#707070" />
    </g>
  </g>
</svg>