<svg xmlns="http://www.w3.org/2000/svg" xmlns:xlink="http://www.w3.org/1999/xlink" width="512.02" height="463.471" viewBox="0 0 512.02 463.471">
  <defs>
    <clipPath id="clip-path">
      <rect id="Rectangle_12" data-name="Rectangle 12" width="264.519" height="226.47" fill="#a9253f" stroke="#fff" stroke-width="4"/>
    </clipPath>
    <clipPath id="clip-path-2">
      <path id="Path_216" data-name="Path 216" d="M-5.982-6.729h229.16l-5.846,426.287H-5.982Z" transform="translate(5.982 6.729)" fill="#fff" stroke="#6e95ad" stroke-width="4"/>
    </clipPath>
  </defs>
  <g id="Group_40" data-name="Group 40" transform="translate(0 54.008)" clip-path="url(#clip-path)">
    <path id="Path_31" data-name="Path 31" d="M83.738,199.9c2,4.287,2,5.556.012,7.039-1.883,1.4-3.528.948-6.779-2a31.19,31.19,0,0,1-14.225,3.982c-.974,2.549-1.381,5.758-5.2,5.185-2.09-.313-2.978-2.126-3.184-6.271a30.668,30.668,0,0,1-12.726-7.345c-4.434,1.8-5.918,1.737-7.344-.184-1.262-1.7-.81-3.215,2.069-6.555a33.576,33.576,0,0,1-3.934-14.257c-.753-.269-1.4-.508-2.046-.73-2.424-.83-3.294-2.085-2.959-4.281.3-1.984,1.513-2.978,3.852-3.132.6-.039,1.2-.006,1.429-.006l7.63-13.386a27.344,27.344,0,0,1-1.008-4.707c-.04-.718.775-1.665,1.444-2.208,1.9-1.546,3.733-.957,6.494,1.92,1.547-.179,2.234-.918,2.139-2.614-.466-8.384,2.177-16.084,5.413-23.626,7.111-16.579,16.625-31.776,26.893-46.52,5.185-7.445,10.6-14.729,15.916-22.08A23.372,23.372,0,0,1,99.137,56.2c2.347-2.61,4.7-2.587,6.908.087,1.3,1.569,2.615,3.128,3.781,4.793,6.982,9.971,14.032,19.9,20.848,29.98a232.64,232.64,0,0,1,18.76,33.514,67.392,67.392,0,0,1,5.91,18.258c1.386,9.563-.428,18.686-4.374,27.392a51.437,51.437,0,0,1-22.336,24.346,51.9,51.9,0,0,1-35.421,5.981c-2.395-.438-4.739-1.145-7.109-1.72-1.14-.276-1.142-.267-2.365,1.066m5.618-8.44a7.9,7.9,0,0,0,1.487.748c10.759,2.63,21.255,1.892,31.277-2.928a44.1,44.1,0,0,0,19.988-18.66c6.385-11.573,7.993-23.622,3.045-36.2a191.837,191.837,0,0,0-17.942-34.289c-6.528-10.036-13.387-19.858-20.145-29.742-1.344-1.966-2.891-3.793-4.479-5.859-.849,1.053-1.525,1.808-2.111,2.629-4.507,6.3-9.1,12.549-13.47,18.945-8.464,12.379-16.419,25.077-22.895,38.636-2.72,5.693-5.233,11.5-6.435,17.748-.431,2.235-.927,4.519-.415,6.851,1.168,0,2.083.054,2.987-.02a10.183,10.183,0,0,0,1.692-.412c1.191-4,2.483-5.343,4.749-5,2.284.343,3.324,2.122,3.462,5.628l13.577,7.88c2.444-1.865,4.814-2.025,6.3-.291,1.634,1.906,1.23,3.5-1.874,6.98a33.928,33.928,0,0,1,3.9,14.362c4.7,1.754,5.531,2.579,5.109,5.139-.589,3.567-3.538,3-6.127,3.253l-1.678,4.6m-27.423,9.52a22,22,0,1,0-21.672-21.509,21.885,21.885,0,0,0,21.672,21.509" transform="translate(6.2 12.3)" fill="#a9253f" stroke="#fff" stroke-width="4"/>
    <path id="Path_32" data-name="Path 32" d="M235,93.791c-.037-2.379-1.276-3.668-3.459-3.864-1.987-.172-3.373.846-3.925,3.019-.27,1.055-.4,2.147-.613,3.274h-3.962c-1.116-3.84-1.889-7.667-3.361-11.187-1.509-3.631-3.717-6.979-5.753-10.708.9-.86,1.95-1.866,2.969-2.846a30.007,30.007,0,0,0,2.736,2.023,3.675,3.675,0,0,0,4.76-.527,3.566,3.566,0,0,0,.466-4.476,10.485,10.485,0,0,0-1.668-2.16q-3-3.071-6.06-6.071a17.043,17.043,0,0,0-2.294-2.013c-2.024-1.385-3.938-1.287-5.25.185a4.262,4.262,0,0,0,.049,5.373c.515.71,1.092,1.362,1.619,2.023-1.043,1.179-1.914,2.159-3.018,3.411-6.44-5.348-13.8-8.036-21.614-9.226V55.494c1.141-.134,2.147-.2,3.128-.367a3.574,3.574,0,0,0,3.1-3.876,3.355,3.355,0,0,0-3.226-3.435c-4.686-.124-9.384-.135-14.07.011a3.332,3.332,0,0,0-3.472,3.534,3.945,3.945,0,0,0,3.349,3.778c.981.183,1.975.258,3.079.393v4.514A41.635,41.635,0,0,0,157.03,69.1c-1.264-1.251-2.257-2.233-3.324-3.3.748-.931,1.4-1.693,2-2.5a3.557,3.557,0,0,0-.282-4.967,3.461,3.461,0,0,0-4.956-.258c-3.349,3.139-6.636,6.354-9.789,9.69A3.574,3.574,0,0,0,140.752,73c1.423,1.447,3.361,1.509,5.263.136.711-.529,1.374-1.129,2.245-1.84,1.116,1.127,2.11,2.11,3.214,3.225a44.232,44.232,0,0,0-8.992,21.565H137.8c-.074-1.055-.074-1.863-.2-2.661a3.906,3.906,0,0,0-3.889-3.608,3.568,3.568,0,0,0-3.606,3.41c-.172,4.589-.221,9.189-.086,13.789a3.748,3.748,0,0,0,3.778,3.68c1.975-.012,3.4-1.4,3.778-3.718.147-.871.221-1.754.331-2.722h4.526a43.887,43.887,0,0,0,8.82,21.43l-3.018,3.507c-.957-.759-1.656-1.324-2.368-1.877-1.766-1.349-3.5-1.324-4.919.075a3.634,3.634,0,0,0-.429,5.213A19.568,19.568,0,0,0,142,134.149c2.6,2.6,5.152,5.25,7.814,7.777a3.848,3.848,0,0,0,5.5.233c1.607-1.582,1.644-3.484.061-5.471-.5-.624-1.03-1.214-1.681-1.975,1.092-1.066,2.073-2.035,3.042-2.981,3.594,1.952,6.943,4.122,10.562,5.643a113.8,113.8,0,0,0,11.224,3.459v4.048c-1.067.147-1.95.27-2.846.4-2.208.356-3.668,1.926-3.594,3.852a3.845,3.845,0,0,0,3.864,3.606c4.49.1,8.979.1,13.469-.037a3.356,3.356,0,0,0,3.4-3.57,3.555,3.555,0,0,0-3.177-3.815c-.969-.159-1.963-.282-2.993-.429v-4.526a43.963,43.963,0,0,0,21.381-8.855c1.276,1.165,2.306,2.1,3.4,3.091-.711.821-1.276,1.4-1.766,2.047a4.271,4.271,0,0,0-.159,5.361,4.143,4.143,0,0,0,5.557.159,9.729,9.729,0,0,0,1.141-1.006c2.38-2.38,4.772-4.758,7.139-7.163a9.035,9.035,0,0,0,1.325-1.657,3.868,3.868,0,0,0-.515-5.016,3.931,3.931,0,0,0-5.066-.1c-.724.527-1.374,1.141-2.282,1.915-1.079-1.252-2.036-2.343-3.067-3.534a40.164,40.164,0,0,0,8.844-21.246h4.5c.172,1.129.27,2.049.478,2.932.478,2.11,2.245,3.594,4.024,3.387a4.2,4.2,0,0,0,3.484-4.013c-.172-4.293-.012-8.587-.061-12.88m-52.478,39.168a32.691,32.691,0,1,1,32.691-32.69,32.693,32.693,0,0,1-32.691,32.69" transform="translate(29.457 10.818)" fill="#a9253f" stroke="#fff" stroke-width="4"/>
    <path id="Path_33" data-name="Path 33" d="M19.928,25.629c-1.133-1.169-2.039-2.114-2.956-3.047-.859-.873-1.762-1.706-2.59-2.609-1.858-2.024-1.992-4.465-.37-5.989,1.549-1.456,3.852-1.336,5.74.426,1.858,1.735,3.625,3.567,5.58,5.5,1.623-1.055,3.095-2.1,4.652-3a34.38,34.38,0,0,1,11.763-4.122,2.238,2.238,0,0,0,2.2-2.661c-.071-2.143-.07-4.3.059-6.435A3.5,3.5,0,0,1,47.66,0a3.735,3.735,0,0,1,3.759,3.659c.153,1.725.054,3.47.1,5.207.027,1.1.107,2.2.172,3.495a38.037,38.037,0,0,1,18.107,7.664c1.525-1.489,2.967-2.9,4.406-4.306a23.873,23.873,0,0,1,1.975-1.92,4.055,4.055,0,0,1,5.278.35,3.744,3.744,0,0,1,.058,5.045,24.566,24.566,0,0,1-2.791,2.836c-1.143,1.014-2.377,1.926-3.743,3.02a36.288,36.288,0,0,1,7.948,18.867c2.17,0,4.076-.016,5.981.006a19.167,19.167,0,0,1,3.353.166,4.006,4.006,0,0,1,3.1,3.378A3.753,3.753,0,0,1,92.6,51.4a9.649,9.649,0,0,1-2.7.366c-2.133.05-4.269.016-6.743.016a41.308,41.308,0,0,1-7.727,18.207c1.341,1.4,2.521,2.644,3.708,3.878.708.736,1.488,1.412,2.128,2.2,1.639,2.02,1.629,4,.05,5.505a4.032,4.032,0,0,1-5.55-.148c-1.37-1.221-2.613-2.585-3.923-3.874-.579-.569-1.184-1.111-2.011-1.885a40.235,40.235,0,0,1-18.327,7.609c0,2.026.028,3.846-.01,5.664a19.816,19.816,0,0,1-.253,3.657,3.415,3.415,0,0,1-4.028,2.866,3.4,3.4,0,0,1-3.238-3.426c-.117-1.73-.042-3.473-.048-5.21,0-1.106,0-2.213,0-3.517-6.792-1.237-13.048-3.223-18.452-7.8-1.846,1.808-3.532,3.541-5.315,5.167a7.355,7.355,0,0,1-2.739,1.811,3.8,3.8,0,0,1-4.07-1.505,4.023,4.023,0,0,1,.366-4.576,31.437,31.437,0,0,1,3.21-3.283c.986-.884,2.105-1.622,3.318-2.54a39.55,39.55,0,0,1-7.98-18.929c-2.132,0-4.044.011-5.957,0a18.553,18.553,0,0,1-3.051-.119A3.793,3.793,0,0,1,0,47.711a3.527,3.527,0,0,1,3.4-3.659c2.125-.209,4.28-.093,6.421-.137.7-.015,1.4-.082,2.338-.141,1.367-6.548,3.24-12.857,7.766-18.144m.021,21.681a27.481,27.481,0,0,0,27.819,28.3c15.53,0,27.293-12.172,27.625-27.331a27.726,27.726,0,1,0-55.444-.967" transform="translate(0 0)" fill="#a9253f" stroke="#fff" stroke-width="4"/>
    <path id="Path_34" data-name="Path 34" d="M144.427,26.645a15.181,15.181,0,1,1-30.357.554,15.181,15.181,0,1,1,30.357-.554M129.2,19.332c-4.076.1-7.734,3.765-7.474,7.759a7.541,7.541,0,0,0,15.08-.168c-.229-4.481-2.922-7.239-7.605-7.591" transform="translate(-14.142 2.654)" fill="#a9253f" stroke="#fff" stroke-linecap="round" stroke-linejoin="round" stroke-width="4"/>
    <path id="Path_37" data-name="Path 37" d="M56.6,39.089A11.533,11.533,0,0,1,45.09,50.521,11.36,11.36,0,0,1,33.624,39.057,11.517,11.517,0,0,1,45,27.473,11.391,11.391,0,0,1,56.6,39.089M44.763,42.761a3.726,3.726,0,0,0,4.086-3.582,3.79,3.79,0,0,0-3.357-4,3.807,3.807,0,0,0-.729,7.579" transform="translate(7.622 6.228)" fill="#a9253f" stroke="#fff" stroke-width="4"/>
  </g>
  <g id="Group_252" data-name="Group 252" transform="translate(57.537 162.568) rotate(-45)">
    <g id="Mask_Group_5" data-name="Mask Group 5" transform="translate(-5.982 -6.729)" clip-path="url(#clip-path-2)">
      <path id="Path_212" data-name="Path 212" d="M15.06,99.835a84.935,84.935,0,0,1,82.727-84.9,84.912,84.912,0,0,0,0,169.79A84.925,84.925,0,0,1,15.06,99.835Z" transform="translate(13.997 15.182)" fill="#fff" stroke="#6e95ad" stroke-miterlimit="10" stroke-width="4"/>
      <path id="Path_213" data-name="Path 213" d="M104.968.5A104.468,104.468,0,0,0,93.819,208.839V232.11h22.3V208.839A104.468,104.468,0,0,0,104.968.5Zm2.2,189.864c-.737.014-1.46.028-2.2.028-.57,0-1.126,0-1.7-.028a84.912,84.912,0,0,1,0-169.79c.57-.028,1.126-.028,1.7-.028.737,0,1.46.014,2.2.028a84.912,84.912,0,0,1,0,169.79Z" transform="translate(8.511 9.549)" fill="#fff" stroke="#6e95ad" stroke-miterlimit="10" stroke-width="4"/>
      <path id="Path_215" data-name="Path 215" d="M104.17,175.965V319.413a22.27,22.27,0,0,1-44.54,0V175.965a8.852,8.852,0,0,1,8.855-8.855h26.83A8.852,8.852,0,0,1,104.17,175.965Z" transform="translate(31.58 74.548)" fill="#fff" stroke="#6e95ad" stroke-miterlimit="10" stroke-width="4"/>
    </g>
  </g>
</svg>