<svg xmlns="http://www.w3.org/2000/svg" xmlns:xlink="http://www.w3.org/1999/xlink" width="428.084" height="351.057" viewBox="0 0 428.084 351.057">
  <defs>
    <clipPath id="clip-path">
      <rect id="Rectangle_10" data-name="Rectangle 10" width="428.084" height="351.057" fill="none"/>
    </clipPath>
  </defs>
  <g id="Group_31" data-name="Group 31" clip-path="url(#clip-path)">
    <path id="Path_26" data-name="Path 26" d="M89.037,348.206s156.929-158.668,187.551-187.9,29.228-51.993,0-83.063S216.738,21.126,202.82,8.6s-45.931-9.741-69.59,15.312-45.7,48.628-45.7,48.628L97.867,83.9l6.058,7.6,5.032,7.628s31.752-26.67,43.756-38.153,23.487-18.791,34.969-8.353,49.585,46.976,57.935,55.848,6.787,18.27-4.7,29.231S60.33,319.848,60.33,319.848Z" transform="translate(129.051 2.851)" fill="#a9253f"/>
    <path id="Path_27" data-name="Path 27" d="M162.128,237.8l-.283.314-47.526-46.678.157-.188c-21.5-21-40.588-39.584-50.257-48.97l-.031.031-14.66-14.063L10.667,90.1c-17.077,24.234-14,44.261,11.772,68.872,10.045,9.574,34.5,33.525,62.876,61.338l.031-.031,47.526,46.71-.063.063c44.669,43.947,85.289,84,85.289,84l.6-58.01s-25.678-25.113-56.566-55.248M232.977,94.341,191.29,135.275l-9.511,9.1-1.287,1.256c-10.014,10.014-28.095,28.252-48.907,49.221l29.005,28.534c28.252-28.283,52.988-52.956,63.315-62.813,25.4-24.234,26.211-42.849,9.072-66.235m-53.051-.722c5.682,6.749,10.453,12.368,13.027,15.1a19.678,19.678,0,0,1,4.489,7.032l24.108-23.732,5.368-5.274c-2.072-2.448-4.332-4.96-6.749-7.534-29.225-31.077-40.431-44.1-54.369-56.629C142.163-2.468,110.144-5.262,96.207,7.263,82.3,19.788,51.694,44.838,22.438,75.915c-2.072,2.2-4.018,4.363-5.776,6.5l2.605,2.574,29.005,28.534.659.659a19.678,19.678,0,0,1,4.489-7.032c8.35-8.884,46.459-45.423,57.948-55.844,11.458-10.453,22.947-3.139,34.969,8.35,5.274,5.054,19.431,19.431,33.588,33.965m-61.777,172.43L89.207,237.641C47.111,280.175,7.653,320.1,7.653,320.1l32.458-3.924-3.736,32.3s38.893-39.333,81.773-82.432" transform="translate(0 0.001)" fill="#333"/>
  </g>
</svg>
