<svg xmlns="http://www.w3.org/2000/svg" xmlns:xlink="http://www.w3.org/1999/xlink" width="103.282" height="62.683" viewBox="0 0 103.282 62.683">
  <defs>
    <clipPath id="clip-path">
      <rect id="Rectangle_38" data-name="Rectangle 38" width="24.483" height="62.683" fill="#001D4A" stroke="#fff" stroke-width="0.25"/>
    </clipPath>
    <clipPath id="clip-path-2">
      <rect id="Rectangle_83" data-name="Rectangle 83" width="41.654" height="42.338" transform="translate(-3 -4)" fill="#001D4A" stroke="#001D4A" stroke-width="0.75"/>
    </clipPath>
  </defs>
  <g id="Group_375" data-name="Group 375" transform="translate(-897 -556)">
    <g id="Group_373" data-name="Group 373" transform="translate(897 556)">
      <g id="Group_127" data-name="Group 127" transform="translate(0 0)" clip-path="url(#clip-path)">
        <path id="Path_151" data-name="Path 151" d="M24.479,57.719A7.915,7.915,0,0,0,22.945,52.9a7.677,7.677,0,0,0-5.723-3.387q-2.466-.121-4.947-.161a.2.2,0,0,1-.066,0q-2.477.038-4.947.161A7.677,7.677,0,0,0,1.538,52.9,7.915,7.915,0,0,0,0,57.719c.143,3.9.132,7.81,0,11.71a6.983,6.983,0,0,0,1.38,4.478,6.782,6.782,0,0,0,1.274,1.3c.007,0,.015.011.022.015.414.271.853.527,1.318.795.172.081.348.15.527.216.282.1.553.223,1,.406V78.4c0,3.9-.015,7.807.007,11.714.011,2.135.784,3.314,2.464,3.695.066.015.132.029.2.04a.521.521,0,0,1,.073.015c.146.022.3.04.454.055.081.007.165.015.249.018l.161.011c.059,0,.117,0,.176,0,.168,0,.333,0,.5,0h.157q1.011.011,2.021.011h.5q1.011,0,2.021-.011h.157c.168,0,.333,0,.5,0,.059,0,.117,0,.176,0s.11,0,.161-.011c.084,0,.168-.011.249-.018.157-.015.308-.033.454-.055a.432.432,0,0,0,.073-.015c.07-.011.135-.026.2-.04,1.681-.381,2.453-1.56,2.464-3.695.022-3.907.007-7.81.007-11.714V76.636c.447-.183.718-.308,1-.406.179-.066.355-.135.527-.216.465-.267.9-.524,1.318-.795.007,0,.015-.011.022-.015a6.782,6.782,0,0,0,1.274-1.3,6.983,6.983,0,0,0,1.38-4.478c-.132-3.9-.143-7.81,0-11.71m-7.873,1.263c-.092,10.8.081,21.505-.044,32.329h-.67a3.9,3.9,0,0,1-1.9,0h-.454v-.07c-.033,0-.066-.011-.1-.015V78.265H11.048V91.227c-.033,0-.066.011-.1.015v.07h-.454a3.9,3.9,0,0,1-1.9,0h-.67c-.124-10.824.048-21.531-.044-32.329H5.5v14.9c-.029-.015-.059-.033-.088-.048-2.131-1.135-2.9-2.062-2.933-4.1-.073-4.072.018-8.147.1-12.219v-.033a5.961,5.961,0,0,1,.165-1.3v0A5.11,5.11,0,0,1,6.13,52.263a6.549,6.549,0,0,1,1.282-.311,6.476,6.476,0,0,1,1.307-.11c.322,0,.641.007.963.007h.165c.732,0,1.468,0,2.2,0h.388c.732,0,1.468,0,2.2,0,.055,0,.11,0,.165,0,.322,0,.641,0,.963-.007a6.476,6.476,0,0,1,1.307.11,6.549,6.549,0,0,1,1.282.311,5.11,5.11,0,0,1,3.391,3.907v0a5.961,5.961,0,0,1,.165,1.3v.033c.081,4.072.172,8.147.1,12.219-.037,2.043-.8,2.97-2.933,4.1-.029.015-.059.033-.088.048v-14.9Z" transform="translate(0 -31.283)" fill="#001D4A" stroke="#fff" stroke-width="0.25"/>
        <path id="Path_152" data-name="Path 152" d="M17.371,0A7.833,7.833,0,0,0,9.524,8.078,7.92,7.92,0,1,0,17.371,0m.081,13.292a5.139,5.139,0,0,1-5.368-5.225A5.363,5.363,0,1,1,22.8,7.851a5.192,5.192,0,0,1-5.353,5.441" transform="translate(-5.028 0)" fill="#001D4A" stroke="#fff" stroke-width="0.25"/>
      </g>
    </g>
    <path id="Polygon_6" data-name="Polygon 6" d="M13.5,0,27,23H0Z" transform="translate(958 574) rotate(90)" fill="#ccc"/>
    <g id="Group_374" data-name="Group 374" transform="translate(961.628 571.48)" clip-path="url(#clip-path-2)">
      <path id="Path_286" data-name="Path 286" d="M17.642,9.316Q16.3,12.988,14.958,16.67c-2.01,5.537-3.988,11.086-6.035,16.609A4.525,4.525,0,0,1,1.15,34.887,3.926,3.926,0,0,1,.2,30.9c.829-2.585,1.786-5.13,2.715-7.683Q5.916,14.95,8.944,6.689a3.61,3.61,0,0,0,.105-.529c-.211-.091-.394-.174-.581-.25a.733.733,0,0,1-.491-1.034q.746-2.053,1.5-4.1A.758.758,0,0,1,10.561.25q4.855,1.764,9.707,3.534a.818.818,0,0,1,.548,1.2c-.414,1.1-.8,2.208-1.2,3.308-.516,1.4-.535,1.4-1.971,1.019M12.748,18.3c-2.141,0-4.134-.008-6.127.016a.648.648,0,0,0-.441.366c-.317.775-.6,1.566-.882,2.355-1.2,3.321-2.421,6.635-3.584,9.969a2.929,2.929,0,0,0,1.7,3.716c1.381.54,3.329.241,4.184-2.2,1.158-3.3,2.385-6.586,3.58-9.878.51-1.4,1.014-2.811,1.568-4.346m3.478-9.527-5.7-2.072L6.855,16.788c2.092,0,4.06.016,6.027-.023a.891.891,0,0,0,.6-.516c.92-2.446,1.8-4.906,2.739-7.471m1.96-.95,1.009-2.835C16.421,3.978,13.768,3,11.1,2.055a.67.67,0,0,0-.585.288c-.32.743-.571,1.516-.879,2.365l8.547,3.12" transform="translate(0 -0.149)" fill="#001D4A" stroke="#001D4A" stroke-width="0.75"/>
      <path id="Path_287" data-name="Path 287" d="M148.416,6.049c-1.4-.086-1.469-.162-1.469-1.47,0-1.2.014-2.407,0-3.611-.01-.679.276-.968.964-.965q5.109.021,10.219,0c.692,0,.9.312.889.932-.014,1.178,0,2.356,0,3.534,0,1.447,0,1.447-1.484,1.613v.959q0,12.136.006,24.271a4.594,4.594,0,0,1-2.657,4.605,4.491,4.491,0,0,1-6.35-3.56,14.752,14.752,0,0,1-.1-1.681q-.01-11.831,0-23.663V6.049m1.564,12.136c-.014.212-.029.337-.029.463q0,6.451,0,12.9a4.587,4.587,0,0,0,.06.764,3.019,3.019,0,0,0,3.42,2.466,3.09,3.09,0,0,0,2.626-3.335q.014-6.335,0-12.671a5.887,5.887,0,0,0-.058-.588ZM156,6.067h-6V16.6h6ZM148.461,4.46H157.5V1.52h-9.036Z" transform="translate(-124.36 0)" fill="#001D4A" stroke="#001D4A" stroke-width="0.75"/>
    </g>
  </g>
</svg>