<svg xmlns="http://www.w3.org/2000/svg" xmlns:xlink="http://www.w3.org/1999/xlink" width="109.514" height="62.683" viewBox="0 0 109.514 62.683">
  <defs>
    <clipPath id="clip-path">
      <rect id="Rectangle_38" data-name="Rectangle 38" width="24.483" height="62.683" fill="#001D4A" stroke="#fff" stroke-width="0.25"/>
    </clipPath>
  </defs>
  <g id="Group_376" data-name="Group 376" transform="translate(-897 -369)">
    <g id="Group_134" data-name="Group 134" transform="translate(897 369)">
      <g id="Group_127" data-name="Group 127" transform="translate(0 0)" clip-path="url(#clip-path)">
        <path id="Path_151" data-name="Path 151" d="M24.479,57.719A7.915,7.915,0,0,0,22.945,52.9a7.677,7.677,0,0,0-5.723-3.387q-2.466-.121-4.947-.161a.2.2,0,0,1-.066,0q-2.477.038-4.947.161A7.677,7.677,0,0,0,1.538,52.9,7.915,7.915,0,0,0,0,57.719c.143,3.9.132,7.81,0,11.71a6.983,6.983,0,0,0,1.38,4.478,6.782,6.782,0,0,0,1.274,1.3c.007,0,.015.011.022.015.414.271.853.527,1.318.795.172.081.348.15.527.216.282.1.553.223,1,.406V78.4c0,3.9-.015,7.807.007,11.714.011,2.135.784,3.314,2.464,3.695.066.015.132.029.2.04a.521.521,0,0,1,.073.015c.146.022.3.04.454.055.081.007.165.015.249.018l.161.011c.059,0,.117,0,.176,0,.168,0,.333,0,.5,0h.157q1.011.011,2.021.011h.5q1.011,0,2.021-.011h.157c.168,0,.333,0,.5,0,.059,0,.117,0,.176,0s.11,0,.161-.011c.084,0,.168-.011.249-.018.157-.015.308-.033.454-.055a.432.432,0,0,0,.073-.015c.07-.011.135-.026.2-.04,1.681-.381,2.453-1.56,2.464-3.695.022-3.907.007-7.81.007-11.714V76.636c.447-.183.718-.308,1-.406.179-.066.355-.135.527-.216.465-.267.9-.524,1.318-.795.007,0,.015-.011.022-.015a6.782,6.782,0,0,0,1.274-1.3,6.983,6.983,0,0,0,1.38-4.478c-.132-3.9-.143-7.81,0-11.71m-7.873,1.263c-.092,10.8.081,21.505-.044,32.329h-.67a3.9,3.9,0,0,1-1.9,0h-.454v-.07c-.033,0-.066-.011-.1-.015V78.265H11.048V91.227c-.033,0-.066.011-.1.015v.07h-.454a3.9,3.9,0,0,1-1.9,0h-.67c-.124-10.824.048-21.531-.044-32.329H5.5v14.9c-.029-.015-.059-.033-.088-.048-2.131-1.135-2.9-2.062-2.933-4.1-.073-4.072.018-8.147.1-12.219v-.033a5.961,5.961,0,0,1,.165-1.3v0A5.11,5.11,0,0,1,6.13,52.263a6.549,6.549,0,0,1,1.282-.311,6.476,6.476,0,0,1,1.307-.11c.322,0,.641.007.963.007h.165c.732,0,1.468,0,2.2,0h.388c.732,0,1.468,0,2.2,0,.055,0,.11,0,.165,0,.322,0,.641,0,.963-.007a6.476,6.476,0,0,1,1.307.11,6.549,6.549,0,0,1,1.282.311,5.11,5.11,0,0,1,3.391,3.907v0a5.961,5.961,0,0,1,.165,1.3v.033c.081,4.072.172,8.147.1,12.219-.037,2.043-.8,2.97-2.933,4.1-.029.015-.059.033-.088.048v-14.9Z" transform="translate(0 -31.283)" fill="#001D4A" stroke="#fff" stroke-width="0.25"/>
        <path id="Path_152" data-name="Path 152" d="M17.371,0A7.833,7.833,0,0,0,9.524,8.078,7.92,7.92,0,1,0,17.371,0m.081,13.292a5.139,5.139,0,0,1-5.368-5.225A5.363,5.363,0,1,1,22.8,7.851a5.192,5.192,0,0,1-5.353,5.441" transform="translate(-5.028 0)" fill="#001D4A" stroke="#fff" stroke-width="0.25"/>
      </g>
    </g>
    <path id="Polygon_4" data-name="Polygon 4" d="M13.5,0,27,23H0Z" transform="translate(960 387) rotate(90)" fill="#ccc"/>
    <g id="Group_372" data-name="Group 372" transform="translate(8 8.583)">
      <g id="Rectangle_82" data-name="Rectangle 82" transform="translate(960.316 371.417) rotate(9)" fill="#fff" stroke="#001D4A" stroke-width="2">
        <rect width="38.674" height="18.496" rx="9.248" stroke="none"/>
        <rect x="1" y="1" width="36.674" height="16.496" rx="8.248" fill="none"/>
      </g>
      <line id="Line_32" data-name="Line 32" y2="11.77" transform="translate(979.239 378.244) rotate(9)" fill="none" stroke="#001D4A" stroke-linecap="round" stroke-width="2"/>
      <g id="Rectangle_81" data-name="Rectangle 81" transform="translate(953 405.104) rotate(-45)" fill="#fff" stroke="#001D4A" stroke-width="2">
        <rect width="38.674" height="18.496" rx="9.248" stroke="none"/>
        <rect x="1" y="1" width="36.674" height="16.496" rx="8.248" fill="none"/>
      </g>
      <line id="Line_31" data-name="Line 31" y2="11.77" transform="translate(969.646 393.808) rotate(-45)" fill="none" stroke="#001D4A" stroke-linecap="round" stroke-width="2"/>
    </g>
  </g>
</svg>