<svg xmlns="http://www.w3.org/2000/svg" xmlns:xlink="http://www.w3.org/1999/xlink" width="128.938" height="109.138"
  viewBox="0 0 128.938 109.138">
  <defs>
    <clipPath id="clip-path">
      <rect id="Rectangle_42" data-name="Rectangle 42" width="32.426" height="32.311" fill="#476a8a" stroke="#fff"
        stroke-width="1" />
    </clipPath>
  </defs>
  <g id="Group_155" data-name="Group 155" transform="matrix(-0.921, -0.391, 0.391, -0.921, 1260.431, 1017.912)">
    <path id="Path_33" data-name="Path 33"
      d="M13.715,17.64c-.78-.8-1.4-1.455-2.035-2.1-.591-.6-1.212-1.174-1.782-1.8-1.279-1.393-1.371-3.073-.255-4.122,1.066-1,2.651-.919,3.95.293,1.279,1.194,2.495,2.455,3.841,3.787,1.117-.726,2.13-1.448,3.2-2.068a23.663,23.663,0,0,1,8.1-2.837A1.541,1.541,0,0,0,30.248,6.97c-.049-1.475-.048-2.957.041-4.429A2.412,2.412,0,0,1,32.8,0,2.571,2.571,0,0,1,35.389,2.52c.106,1.187.037,2.388.067,3.584.019.758.073,1.516.118,2.405a26.18,26.18,0,0,1,12.463,5.275c1.049-1.025,2.042-1.993,3.033-2.963A16.43,16.43,0,0,1,52.429,9.5a2.791,2.791,0,0,1,3.633.241,2.577,2.577,0,0,1,.04,3.473,16.909,16.909,0,0,1-1.921,1.952c-.787.7-1.636,1.326-2.576,2.079a24.976,24.976,0,0,1,5.47,12.985c1.494,0,2.806-.011,4.117,0a13.192,13.192,0,0,1,2.307.114,2.757,2.757,0,0,1,2.137,2.325,2.583,2.583,0,0,1-1.9,2.7,6.641,6.641,0,0,1-1.857.252c-1.468.035-2.938.011-4.641.011a28.431,28.431,0,0,1-5.318,12.531c.923.965,1.735,1.819,2.552,2.669.487.507,1.024.972,1.465,1.515,1.128,1.391,1.121,2.755.035,3.789a2.775,2.775,0,0,1-3.82-.1c-.943-.84-1.8-1.779-2.7-2.666-.4-.392-.815-.765-1.384-1.3a27.692,27.692,0,0,1-12.614,5.237c0,1.395.019,2.647-.007,3.9a13.639,13.639,0,0,1-.174,2.517A2.35,2.35,0,0,1,32.5,65.7a2.339,2.339,0,0,1-2.229-2.358c-.08-1.19-.029-2.39-.033-3.586,0-.762,0-1.523,0-2.421-4.675-.851-8.981-2.218-12.7-5.369-1.271,1.244-2.431,2.437-3.658,3.556a5.062,5.062,0,0,1-1.885,1.246,2.616,2.616,0,0,1-2.8-1.036,2.769,2.769,0,0,1,.252-3.149,21.638,21.638,0,0,1,2.21-2.259c.679-.609,1.449-1.116,2.284-1.749A27.221,27.221,0,0,1,8.445,35.548c-1.467,0-2.784.008-4.1,0a12.769,12.769,0,0,1-2.1-.082A2.611,2.611,0,0,1,0,32.838a2.427,2.427,0,0,1,2.341-2.519c1.462-.144,2.946-.064,4.419-.095.482-.01.962-.057,1.609-.1.941-4.507,2.23-8.849,5.345-12.488m.014,14.922A18.914,18.914,0,0,0,32.877,52.038a19.142,19.142,0,0,0,.243-38.279,19.02,19.02,0,0,0-19.39,18.8"
      transform="translate(1440.43 377.614)" fill="#476a8a" stroke="#fff" stroke-width="2.5" />
    <g id="Group_152" data-name="Group 152" transform="matrix(-0.755, -0.656, 0.656, -0.755, 1507.711, 400.443)">
      <g id="Group_151" data-name="Group 151" clip-path="url(#clip-path)">
        <path id="Path_163" data-name="Path 163" d="M119.092,2.229,109.844,11.5V32.3H106.5V10.515L116.97,0l2.122,2.229"
          transform="translate(-89.701)" fill="#476a8a" stroke="#fff" stroke-width="1" />
        <path id="Path_164" data-name="Path 164" d="M32.1,11.347V33H28.839V12.4L19.58,3.058,21.757.82,32.1,11.347"
          transform="translate(-16.492 -0.691)" fill="#476a8a" stroke="#fff" stroke-width="1" />
        <path id="Path_165" data-name="Path 165" d="M144.893,22.518l-9.275,9.28-2.088-2.186,9.231-9.221,2.133,2.128"
          transform="translate(-112.468 -17.174)" fill="#476a8a" stroke="#fff" stroke-width="1" />
        <path id="Path_166" data-name="Path 166"
          d="M11.306,29.683,9.182,31.73,0,22.55l2.077-2.09q4.628,4.623,9.229,9.223" transform="translate(0 -17.233)"
          fill="#476a8a" stroke="#fff" stroke-width="1" />
      </g>
    </g>
    <g id="Group_153" data-name="Group 153" transform="translate(1442.807 394.659) rotate(90)">
      <g id="Group_151-2" data-name="Group 151" clip-path="url(#clip-path)">
        <path id="Path_163-2" data-name="Path 163"
          d="M119.092,2.229,109.844,11.5V32.3H106.5V10.515L116.97,0l2.122,2.229" transform="translate(-89.701)"
          fill="#476a8a" stroke="#fff" stroke-width="1" />
        <path id="Path_164-2" data-name="Path 164" d="M32.1,11.347V33H28.839V12.4L19.58,3.058,21.757.82,32.1,11.347"
          transform="translate(-16.492 -0.691)" fill="#476a8a" stroke="#fff" stroke-width="1" />
        <path id="Path_165-2" data-name="Path 165" d="M144.893,22.518l-9.275,9.28-2.088-2.186,9.231-9.221,2.133,2.128"
          transform="translate(-112.468 -17.174)" fill="#476a8a" stroke="#fff" stroke-width="1" />
        <path id="Path_166-2" data-name="Path 166"
          d="M11.306,29.683,9.182,31.73,0,22.55l2.077-2.09q4.628,4.623,9.229,9.223" transform="translate(0 -17.233)"
          fill="#476a8a" stroke="#fff" stroke-width="1" />
      </g>
    </g>
    <g id="Group_154" data-name="Group 154" transform="translate(1482.313 444.549) rotate(-47)">
      <g id="Group_151-3" data-name="Group 151" clip-path="url(#clip-path)">
        <path id="Path_163-3" data-name="Path 163"
          d="M119.092,2.229,109.844,11.5V32.3H106.5V10.515L116.97,0l2.122,2.229" transform="translate(-89.701)"
          fill="#476a8a" stroke="#fff" stroke-width="1" />
        <path id="Path_164-3" data-name="Path 164" d="M32.1,11.347V33H28.839V12.4L19.58,3.058,21.757.82,32.1,11.347"
          transform="translate(-16.492 -0.691)" fill="#476a8a" stroke="#fff" stroke-width="1" />
        <path id="Path_165-3" data-name="Path 165" d="M144.893,22.518l-9.275,9.28-2.088-2.186,9.231-9.221,2.133,2.128"
          transform="translate(-112.468 -17.174)" fill="#476a8a" stroke="#fff" stroke-width="1" />
        <path id="Path_166-3" data-name="Path 166"
          d="M11.306,29.683,9.182,31.73,0,22.55l2.077-2.09q4.628,4.623,9.229,9.223" transform="translate(0 -17.233)"
          fill="#476a8a" stroke="#fff" stroke-width="1" />
      </g>
    </g>
  </g>
</svg>