<svg xmlns="http://www.w3.org/2000/svg" width="226" height="226.304" viewBox="0 0 226 226.304">
  <g id="Group_248" data-name="Group 248" transform="translate(-491 -454.696)">
    <g id="Group_201" data-name="Group 201" transform="translate(162 -4)">
      <path id="Subtraction_3" data-name="Subtraction 3" d="M113,226a113.858,113.858,0,0,1-22.773-2.3A112.94,112.94,0,0,1,33.1,192.9,113.166,113.166,0,0,1,8.881,156.987,112.451,112.451,0,0,1,2.3,135.777a114.107,114.107,0,0,1,0-45.548,112.407,112.407,0,0,1,17-40.408A113.361,113.361,0,0,1,69.015,8.88,112.466,112.466,0,0,1,90.224,2.3a114.11,114.11,0,0,1,45.549,0,112.965,112.965,0,0,1,87.933,87.933,114.224,114.224,0,0,1,0,45.548,112.342,112.342,0,0,1-17.006,40.4A112.773,112.773,0,0,1,113,226Zm.7-209.258A96.334,96.334,0,0,0,59.549,33.3,97.037,97.037,0,0,0,76,203.033a96.65,96.65,0,0,0,91.853-8.939,97.186,97.186,0,0,0,35.094-42.656A96.915,96.915,0,0,0,194.02,59.49,97.465,97.465,0,0,0,167.854,33.3,96.334,96.334,0,0,0,113.7,16.742Z" transform="translate(329 459)" fill="#395c7e"/>
      <g id="Intersection_1" data-name="Intersection 1" transform="translate(368.778 459.696)" fill="#a9253f">
        <path d="M 10.73983383178711 39.16330337524414 L 10.41408348083496 38.81903457641602 L -0.3631864190101624 27.42887306213379 L -0.7236064076423645 27.04795455932617 L -0.325956404209137 26.70608329772949 C 2.982313632965088 23.86187362670898 6.488143444061279 21.18191337585449 10.09416389465332 18.74063301086426 C 16.15043449401855 14.65933418273926 22.59121322631836 11.16606426239014 29.23848342895508 8.357254028320312 C 36.05570220947266 5.471953868865967 43.17106246948242 3.263153791427612 50.38665390014648 1.792303800582886 C 57.78976440429688 0.2712937891483307 65.42974090576172 -0.4999962151050568 73.09361267089844 -0.4999962151050568 L 73.10080718994141 -0.4999962151050568 L 73.60080718994141 -0.4999962151050568 L 73.60080718994141 3.78662116418127e-06 L 73.60080718994141 15.33378410339355 L 73.60080718994141 15.8303337097168 L 73.10426330566406 15.83377361297607 C 60.26757431030273 15.92260360717773 47.80431365966797 18.48628425598145 36.06066513061523 23.45360374450684 C 30.33360290527344 25.88224411010742 24.79524421691895 28.89330291748047 19.599853515625 32.4029655456543 C 16.66133308410645 34.39033508300781 13.80184364318848 36.5616455078125 11.10102367401123 38.85641479492188 L 10.73983383178711 39.16330337524414 Z" stroke="none"/>
        <path d="M 10.77727317810059 38.47538375854492 C 13.50335311889648 36.15914535522461 16.35891342163086 33.99125289916992 19.3199634552002 31.98864364624023 C 24.52997398376465 28.46910285949707 30.09962272644043 25.43836402893066 35.86588287353516 22.99310302734375 C 47.67172241210938 17.99947357177734 60.19446182250977 15.42309379577637 73.10080718994141 15.33378410339355 L 73.10080718994141 3.78662116418127e-06 C 73.09841156005859 3.78662116418127e-06 73.09601593017578 3.78662116418127e-06 73.09361267089844 3.78662116418127e-06 C 65.48359680175781 3.78662116418127e-06 57.88076400756836 0.7630437612533569 50.48652267456055 2.282223701477051 C 43.28889465332031 3.749413728713989 36.20874404907227 5.95012378692627 29.4330940246582 8.81782341003418 C 22.78691291809082 11.6261739730835 16.37809371948242 15.10885334014893 10.37447357177734 19.1546745300293 C 6.778053760528564 21.58945465087891 3.306313514709473 24.24270439147949 3.594970621634275e-06 27.08522415161133 L 10.77727317810059 38.47538375854492 M 10.70239353179932 39.85122299194336 L -1.447216391563416 27.01068305969238 L -0.6519163846969604 26.32693290710449 C 2.670833587646484 23.47028350830078 6.192033767700195 20.77858352661133 9.813863754272461 18.32659339904785 C 15.89767360687256 14.22673416137695 22.36698341369629 10.71800422668457 29.04386329650879 7.896683692932129 C 35.89136505126953 4.998573780059814 43.03870391845703 2.779853820800781 50.28678512573242 1.302373766899109 C 57.72218322753906 -0.2252662181854248 65.39601135253906 -0.9999961853027344 73.09361267089844 -0.9999961853027344 L 74.10080718994141 -0.9999961853027344 L 74.10080718994141 16.32688331604004 L 73.10772705078125 16.33376312255859 C 60.33712387084961 16.42213439941406 47.93822479248047 18.97252464294434 36.25544357299805 23.91410446166992 C 30.55837440490723 26.33002471923828 25.04851341247559 29.32560348510742 19.8797435760498 32.81728363037109 C 16.95652389526367 34.79431533813477 14.11171340942383 36.95446395874023 11.42477321624756 39.23745346069336 L 10.70239353179932 39.85122299194336 Z" stroke="none" fill="#fff"/>
      </g>
    </g>
  </g>
</svg>