<svg xmlns="http://www.w3.org/2000/svg" width="226.5" height="226.999" viewBox="0 0 226.5 226.999">
  <g id="Group_207" data-name="Group 207" transform="translate(-545.5 -450.501)">
    <path id="Subtraction_3" data-name="Subtraction 3" d="M113,0A113.858,113.858,0,0,0,90.224,2.3,112.94,112.94,0,0,0,33.1,33.1,113.166,113.166,0,0,0,8.881,69.013,112.451,112.451,0,0,0,2.3,90.223a114.107,114.107,0,0,0,0,45.548,112.407,112.407,0,0,0,17,40.408,113.361,113.361,0,0,0,49.716,40.94A112.465,112.465,0,0,0,90.224,223.7a114.11,114.11,0,0,0,45.549,0,112.965,112.965,0,0,0,87.933-87.933,114.223,114.223,0,0,0,0-45.548,112.342,112.342,0,0,0-17.006-40.4A112.773,112.773,0,0,0,113,0Zm.7,209.258A96.334,96.334,0,0,1,59.549,192.7,97.037,97.037,0,0,1,76,22.967a96.65,96.65,0,0,1,91.853,8.939,97.186,97.186,0,0,1,35.094,42.656,96.915,96.915,0,0,1-8.929,91.948A97.465,97.465,0,0,1,167.854,192.7,96.334,96.334,0,0,1,113.7,209.258Z" transform="translate(772 677) rotate(180)" fill="#a9253f"/>
    <path id="Intersection_4" data-name="Intersection 4" d="M17241.967-1289.2a112.165,112.165,0,0,1-21.213-6.584,112.582,112.582,0,0,1-19.193-10.416,113.758,113.758,0,0,1-16.729-13.8,113.7,113.7,0,0,1-13.793-16.725,112.7,112.7,0,0,1-10.422-19.192,112.289,112.289,0,0,1-6.588-21.213,114.092,114.092,0,0,1-2.293-22.771,114.136,114.136,0,0,1,2.293-22.775,112.187,112.187,0,0,1,6.588-21.213,112.738,112.738,0,0,1,10.422-19.2,113.7,113.7,0,0,1,13.793-16.725,113.743,113.743,0,0,1,16.729-13.8,112.574,112.574,0,0,1,19.193-10.416,111.814,111.814,0,0,1,21.213-6.584,113.587,113.587,0,0,1,22.773-2.3h.5v16.748c-.4,0-.8-.007-1.2-.007a96.157,96.157,0,0,0-37.7,7.621,96.368,96.368,0,0,0-16.449,8.938,97.173,97.173,0,0,0-14.336,11.838,97.685,97.685,0,0,0-11.834,14.349,97.136,97.136,0,0,0-8.93,16.471,96.548,96.548,0,0,0-7.611,37.741,96.511,96.511,0,0,0,7.611,37.736,97.136,97.136,0,0,0,8.93,16.471,97.685,97.685,0,0,0,11.834,14.349,97.45,97.45,0,0,0,14.336,11.838,96.674,96.674,0,0,0,16.449,8.938,96.157,96.157,0,0,0,37.7,7.621,96.15,96.15,0,0,0,37.7-7.621,97.081,97.081,0,0,0,16.453-8.938,97.725,97.725,0,0,0,14.332-11.838,98.06,98.06,0,0,0,11.824-14.349,96.861,96.861,0,0,0,8.93-16.471,96.185,96.185,0,0,0,5.939-19.668l16.256,3.861-.029.146a112.574,112.574,0,0,1-6.588,21.213,112.947,112.947,0,0,1-10.416,19.192,113.879,113.879,0,0,1-13.8,16.725,113.555,113.555,0,0,1-16.729,13.8,112.751,112.751,0,0,1-19.187,10.416,112.387,112.387,0,0,1-21.213,6.584,113.544,113.544,0,0,1-22.771,2.3A113.578,113.578,0,0,1,17241.967-1289.2Z" transform="translate(-16605.736 1963.902)" fill="#395c7e" stroke="#fff" stroke-width="1"/>
  </g>
</svg>
