<svg xmlns="http://www.w3.org/2000/svg" width="227.001" height="227.001" viewBox="0 0 227.001 227.001">
  <g id="Group_207" data-name="Group 207" transform="translate(-545.498 -450.499)">
    <g id="Group_205" data-name="Group 205" transform="translate(546 451)">
      <path id="Subtraction_3" data-name="Subtraction 3" d="M113,0A113.858,113.858,0,0,0,90.224,2.3,112.94,112.94,0,0,0,33.1,33.1,113.166,113.166,0,0,0,8.881,69.013,112.451,112.451,0,0,0,2.3,90.223a114.107,114.107,0,0,0,0,45.548,112.407,112.407,0,0,0,17,40.408,113.361,113.361,0,0,0,49.716,40.94A112.465,112.465,0,0,0,90.224,223.7a114.11,114.11,0,0,0,45.549,0,112.965,112.965,0,0,0,87.933-87.933,114.223,114.223,0,0,0,0-45.548,112.342,112.342,0,0,0-17.006-40.4A112.773,112.773,0,0,0,113,0Zm.7,209.258A96.334,96.334,0,0,1,59.549,192.7,97.037,97.037,0,0,1,76,22.967a96.65,96.65,0,0,1,91.853,8.939,97.186,97.186,0,0,1,35.094,42.656,96.915,96.915,0,0,1-8.929,91.948A97.465,97.465,0,0,1,167.854,192.7,96.334,96.334,0,0,1,113.7,209.258Z" transform="translate(226 226) rotate(180)" fill="#a9253f"/>
      <path id="Intersection_5" data-name="Intersection 5" d="M16039.973-1751.523a112.272,112.272,0,0,1-21.215-6.584,113.3,113.3,0,0,1-19.19-10.416,114.01,114.01,0,0,1-16.727-13.8,113.74,113.74,0,0,1-13.795-16.723,112.775,112.775,0,0,1-10.42-19.194,112.114,112.114,0,0,1-6.584-21.21,113.7,113.7,0,0,1-2.3-22.774,113.7,113.7,0,0,1,2.3-22.774,112.153,112.153,0,0,1,6.584-21.214,112.775,112.775,0,0,1,10.42-19.194,113.74,113.74,0,0,1,13.795-16.723,113.485,113.485,0,0,1,16.727-13.8,113.032,113.032,0,0,1,19.19-10.42,112.678,112.678,0,0,1,21.215-6.584,113.932,113.932,0,0,1,22.773-2.3v16.746l-.7,0a96.219,96.219,0,0,0-37.7,7.618,96.874,96.874,0,0,0-16.45,8.942,97.385,97.385,0,0,0-14.337,11.837,97.378,97.378,0,0,0-11.828,14.353,96.806,96.806,0,0,0-8.93,16.466,96.521,96.521,0,0,0-7.614,37.742,96.487,96.487,0,0,0,7.614,37.737,97,97,0,0,0,8.93,16.47,97.555,97.555,0,0,0,11.828,14.349,97.385,97.385,0,0,0,14.337,11.837,96.883,96.883,0,0,0,16.45,8.942,96.219,96.219,0,0,0,37.7,7.618,96.2,96.2,0,0,0,37.7-7.618,97,97,0,0,0,16.45-8.942,97.3,97.3,0,0,0,14.333-11.837,98.121,98.121,0,0,0,11.828-14.349,97.27,97.27,0,0,0,8.93-16.47,96.483,96.483,0,0,0,7.61-37.737,96.517,96.517,0,0,0-7.61-37.742,97.08,97.08,0,0,0-8.93-16.466,97.941,97.941,0,0,0-11.828-14.353,97.3,97.3,0,0,0-14.333-11.837,97.332,97.332,0,0,0-9.041-5.422l7.284-15.389a112.793,112.793,0,0,1,11.484,6.808,113.251,113.251,0,0,1,16.723,13.8,113.526,113.526,0,0,1,13.8,16.723,113.117,113.117,0,0,1,10.42,19.194,112.133,112.133,0,0,1,6.584,21.214,113.771,113.771,0,0,1,2.3,22.774,113.77,113.77,0,0,1-2.3,22.774,112.185,112.185,0,0,1-6.584,21.21,113.117,113.117,0,0,1-10.42,19.194,113.526,113.526,0,0,1-13.8,16.723,113.774,113.774,0,0,1-16.723,13.8,113,113,0,0,1-19.194,10.416,112.4,112.4,0,0,1-21.206,6.584,113.894,113.894,0,0,1-22.773,2.3A113.933,113.933,0,0,1,16039.973-1751.523Z" transform="translate(-15949.747 1975.227)" fill="#395c7e" stroke="#fff" stroke-width="1"/>
    </g>
  </g>
</svg>