<svg xmlns="http://www.w3.org/2000/svg" width="226.998" height="226.998" viewBox="0 0 226.998 226.998">
  <g id="Group_207" data-name="Group 207" transform="translate(-545.5 -450.502)">
    <g id="Group_205" data-name="Group 205" transform="translate(546 451)">
      <path id="Subtraction_3" data-name="Subtraction 3" d="M113,0A113.858,113.858,0,0,0,90.224,2.3,112.94,112.94,0,0,0,33.1,33.1,113.166,113.166,0,0,0,8.881,69.013,112.451,112.451,0,0,0,2.3,90.223a114.107,114.107,0,0,0,0,45.548,112.407,112.407,0,0,0,17,40.408,113.361,113.361,0,0,0,49.716,40.94A112.465,112.465,0,0,0,90.224,223.7a114.11,114.11,0,0,0,45.549,0,112.965,112.965,0,0,0,87.933-87.933,114.223,114.223,0,0,0,0-45.548,112.342,112.342,0,0,0-17.006-40.4A112.773,112.773,0,0,0,113,0Zm.7,209.258A96.334,96.334,0,0,1,59.549,192.7,97.037,97.037,0,0,1,76,22.967a96.65,96.65,0,0,1,91.853,8.939,97.186,97.186,0,0,1,35.094,42.656,96.915,96.915,0,0,1-8.929,91.948A97.465,97.465,0,0,1,167.854,192.7,96.334,96.334,0,0,1,113.7,209.258Z" transform="translate(226 226) rotate(180)" fill="#a9253f"/>
      <path id="Intersection_6" data-name="Intersection 6" d="M15785.306-1774.568a112.634,112.634,0,0,1-21.214-6.583,112.987,112.987,0,0,1-19.189-10.419,113.418,113.418,0,0,1-16.726-13.8,113.734,113.734,0,0,1-13.8-16.722,112.826,112.826,0,0,1-10.419-19.194,112.268,112.268,0,0,1-6.587-21.209,114.012,114.012,0,0,1-2.292-22.773,114.05,114.05,0,0,1,2.292-22.777,112.178,112.178,0,0,1,6.587-21.21,112.7,112.7,0,0,1,10.419-19.2,113.525,113.525,0,0,1,13.8-16.722,113.425,113.425,0,0,1,16.726-13.8,112.7,112.7,0,0,1,19.189-10.419,112.368,112.368,0,0,1,21.214-6.583,113.867,113.867,0,0,1,22.773-2.3v16.745l-.7,0a96.159,96.159,0,0,0-37.7,7.619,96.481,96.481,0,0,0-16.454,8.939,97.137,97.137,0,0,0-14.334,11.839,97.68,97.68,0,0,0-11.831,14.35,96.941,96.941,0,0,0-8.927,16.47,96.445,96.445,0,0,0-7.615,37.74,96.427,96.427,0,0,0,7.615,37.736,96.951,96.951,0,0,0,8.927,16.47,97.9,97.9,0,0,0,11.831,14.35,97.644,97.644,0,0,0,14.334,11.839,97.036,97.036,0,0,0,16.454,8.939,96.159,96.159,0,0,0,37.7,7.619,96.16,96.16,0,0,0,37.7-7.619,97.335,97.335,0,0,0,16.454-8.939,97.868,97.868,0,0,0,14.33-11.839,98.2,98.2,0,0,0,11.827-14.35,96.765,96.765,0,0,0,8.931-16.47,96.511,96.511,0,0,0,7.611-37.736,96.529,96.529,0,0,0-7.611-37.74,96.756,96.756,0,0,0-8.931-16.47,97.772,97.772,0,0,0-11.827-14.35,97.359,97.359,0,0,0-14.33-11.839,96.777,96.777,0,0,0-16.454-8.939,95.815,95.815,0,0,0-23.129-6.534l2.279-16.681q3.337.477,6.627,1.15a112.507,112.507,0,0,1,21.21,6.583,112.845,112.845,0,0,1,19.189,10.419,113.483,113.483,0,0,1,16.727,13.8,113.667,113.667,0,0,1,13.8,16.722,113.251,113.251,0,0,1,10.419,19.2,112.166,112.166,0,0,1,6.583,21.21,113.7,113.7,0,0,1,2.3,22.777,113.657,113.657,0,0,1-2.3,22.773,112.256,112.256,0,0,1-6.583,21.209,113.221,113.221,0,0,1-10.419,19.194,113.456,113.456,0,0,1-13.8,16.722,113.476,113.476,0,0,1-16.727,13.8,112.987,112.987,0,0,1-19.189,10.419,112.507,112.507,0,0,1-21.21,6.583,113.822,113.822,0,0,1-22.773,2.3A113.86,113.86,0,0,1,15785.306-1774.568Z" transform="translate(-15695.08 1998.272)" fill="#395c7e" stroke="#fff" stroke-width="1"/>
    </g>
  </g>
</svg>