<svg xmlns="http://www.w3.org/2000/svg" width="226.498" height="227" viewBox="0 0 226.498 227">
  <g id="Group_207" data-name="Group 207" transform="translate(-545.502 -450.5)">
    <path id="Subtraction_3" data-name="Subtraction 3" d="M113,0A113.858,113.858,0,0,0,90.224,2.3,112.94,112.94,0,0,0,33.1,33.1,113.166,113.166,0,0,0,8.881,69.013,112.451,112.451,0,0,0,2.3,90.223a114.107,114.107,0,0,0,0,45.548,112.407,112.407,0,0,0,17,40.408,113.361,113.361,0,0,0,49.716,40.94A112.465,112.465,0,0,0,90.224,223.7a114.11,114.11,0,0,0,45.549,0,112.965,112.965,0,0,0,87.933-87.933,114.223,114.223,0,0,0,0-45.548,112.342,112.342,0,0,0-17.006-40.4A112.773,112.773,0,0,0,113,0Zm.7,209.258A96.334,96.334,0,0,1,59.549,192.7,97.037,97.037,0,0,1,76,22.967a96.65,96.65,0,0,1,91.853,8.939,97.186,97.186,0,0,1,35.094,42.656,96.915,96.915,0,0,1-8.929,91.948A97.465,97.465,0,0,1,167.854,192.7,96.334,96.334,0,0,1,113.7,209.258Z" transform="translate(772 677) rotate(180)" fill="#a9253f"/>
    <path id="Intersection_3" data-name="Intersection 3" d="M17247.039-1285.541a112.5,112.5,0,0,1-21.215-6.583,113.107,113.107,0,0,1-19.191-10.418,114.012,114.012,0,0,1-16.725-13.8,113.251,113.251,0,0,1-13.795-16.726,112.349,112.349,0,0,1-10.422-19.191,112.292,112.292,0,0,1-6.588-21.211,114.156,114.156,0,0,1-2.289-22.777,114.113,114.113,0,0,1,2.289-22.772,112.235,112.235,0,0,1,6.588-21.215,112.388,112.388,0,0,1,10.422-19.195,113.216,113.216,0,0,1,13.795-16.722,113.463,113.463,0,0,1,16.725-13.8,112.8,112.8,0,0,1,19.191-10.418,112.622,112.622,0,0,1,21.215-6.587,113.885,113.885,0,0,1,22.771-2.295v16.746l-.7,0a96.2,96.2,0,0,0-37.705,7.617,96.84,96.84,0,0,0-16.451,8.943,97.725,97.725,0,0,0-14.336,11.835,97.918,97.918,0,0,0-11.826,14.353,96.728,96.728,0,0,0-8.93,16.469,96.437,96.437,0,0,0-7.613,37.74,96.4,96.4,0,0,0,7.613,37.736,96.772,96.772,0,0,0,8.93,16.473,98.109,98.109,0,0,0,11.826,14.348,97.733,97.733,0,0,0,14.336,11.835,96.528,96.528,0,0,0,16.451,8.939,96.2,96.2,0,0,0,37.705,7.621,96.163,96.163,0,0,0,37.7-7.621,95.943,95.943,0,0,0,10.531-5.238l7.725,13.8a113.034,113.034,0,0,1-11.268,5.529,112.418,112.418,0,0,1-21.211,6.583,113.87,113.87,0,0,1-22.771,2.295A113.9,113.9,0,0,1,17247.039-1285.541Z" transform="translate(-16610.813 1960.246)" fill="#395c7e" stroke="#fff" stroke-width="1"/>
  </g>
</svg>