<svg xmlns="http://www.w3.org/2000/svg" width="226.5" height="226.499" viewBox="0 0 226.5 226.499">
  <g id="Group_207" data-name="Group 207" transform="translate(-545.5 -450.501)">
    <g id="Group_205" data-name="Group 205" transform="translate(546 451)">
      <path id="Subtraction_3" data-name="Subtraction 3" d="M113,0A113.858,113.858,0,0,0,90.224,2.3,112.94,112.94,0,0,0,33.1,33.1,113.166,113.166,0,0,0,8.881,69.013,112.451,112.451,0,0,0,2.3,90.223a114.107,114.107,0,0,0,0,45.548,112.407,112.407,0,0,0,17,40.408,113.361,113.361,0,0,0,49.716,40.94A112.465,112.465,0,0,0,90.224,223.7a114.11,114.11,0,0,0,45.549,0,112.965,112.965,0,0,0,87.933-87.933,114.223,114.223,0,0,0,0-45.548,112.342,112.342,0,0,0-17.006-40.4A112.773,112.773,0,0,0,113,0Zm.7,209.258A96.334,96.334,0,0,1,59.549,192.7,97.037,97.037,0,0,1,76,22.967a96.65,96.65,0,0,1,91.853,8.939,97.186,97.186,0,0,1,35.094,42.656,96.915,96.915,0,0,1-8.929,91.948A97.465,97.465,0,0,1,167.854,192.7,96.334,96.334,0,0,1,113.7,209.258Z" transform="translate(226 226) rotate(180)" fill="#a9253f"/>
    </g>
    <path id="Intersection_2" data-name="Intersection 2" d="M90.584,6.253q.9,1.9,1.721,3.835a97.363,97.363,0,0,1,0,75.477,97.172,97.172,0,0,1-8.928,16.47,97.867,97.867,0,0,1-11.83,14.352,97.322,97.322,0,0,1-14.334,11.838,96.856,96.856,0,0,1-16.451,8.941,96.213,96.213,0,0,1-37.7,7.62q-1.532,0-3.059-.047V161.5q1.178.024,2.354.024a113.793,113.793,0,0,0,22.779-2.3,112.314,112.314,0,0,0,21.209-6.583,112.78,112.78,0,0,0,19.193-10.418,113.268,113.268,0,0,0,16.727-13.8,113.68,113.68,0,0,0,13.8-16.722,112.8,112.8,0,0,0,10.418-19.2A112.382,112.382,0,0,0,113.066,71.3a114.247,114.247,0,0,0,2.291-22.774,114.311,114.311,0,0,0-2.291-22.774,112.441,112.441,0,0,0-6.588-21.21Q105.512,2.25,104.439,0Z" transform="translate(661.357 612.526) rotate(180)" fill="#395c7e" stroke="#fff" stroke-width="1"/>
  </g>
</svg>