<svg xmlns="http://www.w3.org/2000/svg" xmlns:xlink="http://www.w3.org/1999/xlink" width="225" height="86.623" viewBox="0 0 225 86.623">
  <defs>
    <clipPath id="clip-path">
      <rect id="Rectangle_38" data-name="Rectangle 38" width="27.852" height="71.306" fill="#a9253f" stroke="#fff" stroke-width="1"/>
    </clipPath>
    <clipPath id="clip-path-4">
      <rect id="Rectangle_39" data-name="Rectangle 39" width="32.679" height="71.31" fill="#a9253f" stroke="#fff" stroke-width="1"/>
    </clipPath>
  </defs>
  <g id="Group_426" data-name="Group 426" transform="translate(-318 -672.032)">
    <g id="Group_409" data-name="Group 409" transform="translate(1949 7049)">
      <g id="Group_398" data-name="Group 398" transform="translate(-1434 -6361.655)">
        <g id="Group_127" data-name="Group 127" transform="translate(0 0)" clip-path="url(#clip-path)">
          <path id="Path_151" data-name="Path 151" d="M27.846,58.87A9,9,0,0,0,26.1,53.392a8.733,8.733,0,0,0-6.511-3.853q-2.805-.137-5.627-.183a.226.226,0,0,1-.075,0q-2.818.044-5.627.183A8.733,8.733,0,0,0,1.75,53.392,9,9,0,0,0,0,58.87c.162,4.436.15,8.885,0,13.321a7.944,7.944,0,0,0,1.57,5.094,7.714,7.714,0,0,0,1.45,1.475c.008,0,.017.013.025.017.471.308.971.6,1.5.9.2.092.4.171.6.246.321.112.629.254,1.137.462V82.4c0,4.44-.017,8.881.008,13.325.012,2.428.891,3.77,2.8,4.2.075.017.15.033.229.046a.592.592,0,0,1,.083.017c.167.025.337.046.517.062.092.008.187.017.283.021l.183.013c.067,0,.133,0,.2,0,.192,0,.379,0,.571,0h.179q1.15.012,2.3.012h.566q1.15,0,2.3-.012h.179c.192,0,.379,0,.571,0,.067,0,.133,0,.2,0s.125,0,.183-.013c.1,0,.192-.012.283-.021.179-.017.35-.037.517-.062a.491.491,0,0,0,.083-.017c.079-.012.154-.029.229-.046,1.912-.433,2.791-1.774,2.8-4.2.025-4.445.008-8.885.008-13.325V80.388c.508-.208.816-.35,1.137-.462.2-.075.4-.154.6-.246.529-.3,1.029-.6,1.5-.9.008,0,.017-.012.025-.017a7.715,7.715,0,0,0,1.45-1.475,7.944,7.944,0,0,0,1.57-5.094c-.15-4.436-.162-8.885,0-13.321m-8.956,1.437c-.1,12.284.092,24.464-.05,36.777h-.762a4.44,4.44,0,0,1-2.166,0H15.4V97c-.037,0-.075-.012-.112-.017V82.242H12.568V96.988c-.037,0-.075.013-.112.017v.079h-.517a4.44,4.44,0,0,1-2.166,0H9.01c-.142-12.313.054-24.493-.05-36.777H6.253V77.256c-.033-.017-.067-.037-.1-.054-2.424-1.291-3.295-2.345-3.336-4.669-.083-4.632.021-9.268.112-13.9v-.037a6.782,6.782,0,0,1,.187-1.483v0a5.813,5.813,0,0,1,3.857-4.445,7.45,7.45,0,0,1,1.458-.354,7.367,7.367,0,0,1,1.487-.125c.367,0,.729.008,1.1.008H11.2c.833,0,1.67,0,2.5,0h.442c.833,0,1.67,0,2.5,0,.062,0,.125,0,.187,0,.367,0,.729,0,1.1-.008a7.367,7.367,0,0,1,1.487.125,7.45,7.45,0,0,1,1.458.354,5.813,5.813,0,0,1,3.857,4.445v0a6.782,6.782,0,0,1,.187,1.483v.037c.092,4.632.2,9.268.112,13.9-.042,2.324-.912,3.378-3.336,4.669-.033.017-.067.037-.1.054V60.307Z" transform="translate(0 -28.797)" fill="#a9253f" stroke="#fff" stroke-width="1"/>
          <path id="Path_152" data-name="Path 152" d="M18.45,0A8.911,8.911,0,0,0,9.524,9.19,9.009,9.009,0,1,0,18.45,0m.092,15.121a5.846,5.846,0,0,1-6.106-5.944,6.1,6.1,0,1,1,12.2-.246,5.906,5.906,0,0,1-6.089,6.19" transform="translate(-4.409 0)" fill="#a9253f" stroke="#fff" stroke-width="1"/>
        </g>
      </g>
      <g id="Group_399" data-name="Group 399" transform="translate(-1471 -6361.655)">
        <g id="Group_127-2" data-name="Group 127" transform="translate(0 0)" clip-path="url(#clip-path)">
          <path id="Path_151-2" data-name="Path 151" d="M27.846,58.87A9,9,0,0,0,26.1,53.392a8.733,8.733,0,0,0-6.511-3.853q-2.805-.137-5.627-.183a.226.226,0,0,1-.075,0q-2.818.044-5.627.183A8.733,8.733,0,0,0,1.75,53.392,9,9,0,0,0,0,58.87c.162,4.436.15,8.885,0,13.321a7.944,7.944,0,0,0,1.57,5.094,7.714,7.714,0,0,0,1.45,1.475c.008,0,.017.013.025.017.471.308.971.6,1.5.9.2.092.4.171.6.246.321.112.629.254,1.137.462V82.4c0,4.44-.017,8.881.008,13.325.012,2.428.891,3.77,2.8,4.2.075.017.15.033.229.046a.592.592,0,0,1,.083.017c.167.025.337.046.517.062.092.008.187.017.283.021l.183.013c.067,0,.133,0,.2,0,.192,0,.379,0,.571,0h.179q1.15.012,2.3.012h.566q1.15,0,2.3-.012h.179c.192,0,.379,0,.571,0,.067,0,.133,0,.2,0s.125,0,.183-.013c.1,0,.192-.012.283-.021.179-.017.35-.037.517-.062a.491.491,0,0,0,.083-.017c.079-.012.154-.029.229-.046,1.912-.433,2.791-1.774,2.8-4.2.025-4.445.008-8.885.008-13.325V80.388c.508-.208.816-.35,1.137-.462.2-.075.4-.154.6-.246.529-.3,1.029-.6,1.5-.9.008,0,.017-.012.025-.017a7.715,7.715,0,0,0,1.45-1.475,7.944,7.944,0,0,0,1.57-5.094c-.15-4.436-.162-8.885,0-13.321m-8.956,1.437c-.1,12.284.092,24.464-.05,36.777h-.762a4.44,4.44,0,0,1-2.166,0H15.4V97c-.037,0-.075-.012-.112-.017V82.242H12.568V96.988c-.037,0-.075.013-.112.017v.079h-.517a4.44,4.44,0,0,1-2.166,0H9.01c-.142-12.313.054-24.493-.05-36.777H6.253V77.256c-.033-.017-.067-.037-.1-.054-2.424-1.291-3.295-2.345-3.336-4.669-.083-4.632.021-9.268.112-13.9v-.037a6.782,6.782,0,0,1,.187-1.483v0a5.813,5.813,0,0,1,3.857-4.445,7.45,7.45,0,0,1,1.458-.354,7.367,7.367,0,0,1,1.487-.125c.367,0,.729.008,1.1.008H11.2c.833,0,1.67,0,2.5,0h.442c.833,0,1.67,0,2.5,0,.062,0,.125,0,.187,0,.367,0,.729,0,1.1-.008a7.367,7.367,0,0,1,1.487.125,7.45,7.45,0,0,1,1.458.354,5.813,5.813,0,0,1,3.857,4.445v0a6.782,6.782,0,0,1,.187,1.483v.037c.092,4.632.2,9.268.112,13.9-.042,2.324-.912,3.378-3.336,4.669-.033.017-.067.037-.1.054V60.307Z" transform="translate(0 -28.797)" fill="#a9253f" stroke="#fff" stroke-width="1"/>
          <path id="Path_152-2" data-name="Path 152" d="M18.45,0A8.911,8.911,0,0,0,9.524,9.19,9.009,9.009,0,1,0,18.45,0m.092,15.121a5.846,5.846,0,0,1-6.106-5.944,6.1,6.1,0,1,1,12.2-.246,5.906,5.906,0,0,1-6.089,6.19" transform="translate(-4.409 0)" fill="#a9253f" stroke="#fff" stroke-width="1"/>
        </g>
      </g>
      <g id="Group_400" data-name="Group 400" transform="translate(-1589 -6361.655)">
        <g id="Group_127-3" data-name="Group 127" transform="translate(0 0)" clip-path="url(#clip-path)">
          <path id="Path_151-3" data-name="Path 151" d="M27.846,58.87A9,9,0,0,0,26.1,53.392a8.733,8.733,0,0,0-6.511-3.853q-2.805-.137-5.627-.183a.226.226,0,0,1-.075,0q-2.818.044-5.627.183A8.733,8.733,0,0,0,1.75,53.392,9,9,0,0,0,0,58.87c.162,4.436.15,8.885,0,13.321a7.944,7.944,0,0,0,1.57,5.094,7.714,7.714,0,0,0,1.45,1.475c.008,0,.017.013.025.017.471.308.971.6,1.5.9.2.092.4.171.6.246.321.112.629.254,1.137.462V82.4c0,4.44-.017,8.881.008,13.325.012,2.428.891,3.77,2.8,4.2.075.017.15.033.229.046a.592.592,0,0,1,.083.017c.167.025.337.046.517.062.092.008.187.017.283.021l.183.013c.067,0,.133,0,.2,0,.192,0,.379,0,.571,0h.179q1.15.012,2.3.012h.566q1.15,0,2.3-.012h.179c.192,0,.379,0,.571,0,.067,0,.133,0,.2,0s.125,0,.183-.013c.1,0,.192-.012.283-.021.179-.017.35-.037.517-.062a.491.491,0,0,0,.083-.017c.079-.012.154-.029.229-.046,1.912-.433,2.791-1.774,2.8-4.2.025-4.445.008-8.885.008-13.325V80.388c.508-.208.816-.35,1.137-.462.2-.075.4-.154.6-.246.529-.3,1.029-.6,1.5-.9.008,0,.017-.012.025-.017a7.715,7.715,0,0,0,1.45-1.475,7.944,7.944,0,0,0,1.57-5.094c-.15-4.436-.162-8.885,0-13.321m-8.956,1.437c-.1,12.284.092,24.464-.05,36.777h-.762a4.44,4.44,0,0,1-2.166,0H15.4V97c-.037,0-.075-.012-.112-.017V82.242H12.568V96.988c-.037,0-.075.013-.112.017v.079h-.517a4.44,4.44,0,0,1-2.166,0H9.01c-.142-12.313.054-24.493-.05-36.777H6.253V77.256c-.033-.017-.067-.037-.1-.054-2.424-1.291-3.295-2.345-3.336-4.669-.083-4.632.021-9.268.112-13.9v-.037a6.782,6.782,0,0,1,.187-1.483v0a5.813,5.813,0,0,1,3.857-4.445,7.45,7.45,0,0,1,1.458-.354,7.367,7.367,0,0,1,1.487-.125c.367,0,.729.008,1.1.008H11.2c.833,0,1.67,0,2.5,0h.442c.833,0,1.67,0,2.5,0,.062,0,.125,0,.187,0,.367,0,.729,0,1.1-.008a7.367,7.367,0,0,1,1.487.125,7.45,7.45,0,0,1,1.458.354,5.813,5.813,0,0,1,3.857,4.445v0a6.782,6.782,0,0,1,.187,1.483v.037c.092,4.632.2,9.268.112,13.9-.042,2.324-.912,3.378-3.336,4.669-.033.017-.067.037-.1.054V60.307Z" transform="translate(0 -28.797)" fill="#a9253f" stroke="#fff" stroke-width="1"/>
          <path id="Path_152-3" data-name="Path 152" d="M18.45,0A8.911,8.911,0,0,0,9.524,9.19,9.009,9.009,0,1,0,18.45,0m.092,15.121a5.846,5.846,0,0,1-6.106-5.944,6.1,6.1,0,1,1,12.2-.246,5.906,5.906,0,0,1-6.089,6.19" transform="translate(-4.409 0)" fill="#a9253f" stroke="#fff" stroke-width="1"/>
        </g>
      </g>
      <g id="Group_401" data-name="Group 401" transform="translate(-2303.256 -6990.313)">
        <g id="Group_133" data-name="Group 133" transform="translate(672.256 628.659)">
          <g id="Group_129" data-name="Group 129" transform="translate(0 0)" clip-path="url(#clip-path-4)">
            <path id="Path_153" data-name="Path 153" d="M31.328,83.058c1.659-1.395,1.532-4.338.982-6.651-.637-2.685-1.062-5.422-1.6-8.129l-1.577-7.011,0,0v0c-1.293-4.038-4.057-6.457-7.822-6.605-3.4-.133-6.821-.042-10.226.068a7.621,7.621,0,0,0-6.609,4.36,21.246,21.246,0,0,0-1.088,2.495v0l-1.467,7.2L1.7,69.847c-.307,1.52-.626,3.041-.94,4.561L.2,77.165.047,78.235C-.09,79.9,0,81.7,1.37,83.062l2.29,1.661,1.175.69c-.148.853-.262,1.6-.4,2.336s-.319,1.483-.455,2.226c-.466,2.578.641,4.16,3.208,4.577.474.076.956.1,1.543.159,0,2.207-.034,4.285.008,6.362.049,2.73,1.376,4.061,4.084,4.106,2.15.038,4.3.015,6.446.008,3.416-.011,4.7-1.27,4.713-4.645.008-1.941,0-3.883,0-5.843.451-.061.69-.1.937-.125,3.158-.315,4.25-1.793,3.678-4.96-.254-1.411-.482-2.825-.724-4.228a2.557,2.557,0,0,1,.774-.523Zm-16.244,19.3a4.747,4.747,0,0,1-.739.2c-2.882.186-2.973.1-2.973-2.776V94.729h3.712Zm6.127.068c-1.122.061-2.211.118-3.45.186V94.638h3.45Zm6.12-19.891c-1.122-5.873-2.2-11.546-3.306-17.34-.876.121-1.6.22-2.518.349,1.509,8.808,3.295,17.4,4.834,26.231H6.629a9.152,9.152,0,0,1,.015-1.649Q8.783,78.7,10.959,67.277c.091-.493.087-1,.148-1.7-.747-.133-1.452-.254-2.412-.421-1.107,5.8-2.2,11.515-3.3,17.271a5,5,0,0,1-1.775-1.2,3.457,3.457,0,0,1-.766-3.174q.347-1.723.69-3.447,1.132-5.659,2.245-11.322c.872-4.417,3.037-6.2,7.614-6.2,2.461,0,4.925.068,7.386.076a6.341,6.341,0,0,1,5.9,5.161c.588,3.143,1.24,6.272,1.9,9.4.447,2.15.9,4.3,1.335,6.454.341,1.684-.171,2.81-1.877,3.928-.216.144-.455.288-.713.432" transform="translate(0 -33.89)" fill="#a9253f" stroke="#fff" stroke-width="1"/>
            <path id="Path_154" data-name="Path 154" d="M35.012,9.114a8.922,8.922,0,1,1-17.842-.3,8.922,8.922,0,1,1,17.842.3m-8.9,6.12a6.166,6.166,0,0,0,6.284-6.1A6.262,6.262,0,0,0,26.23,2.647,6.37,6.37,0,0,0,19.786,8.89a6.327,6.327,0,0,0,6.323,6.344" transform="translate(-9.613 0)" fill="#a9253f" stroke="#fff" stroke-width="1"/>
          </g>
        </g>
      </g>
      <g id="Group_402" data-name="Group 402" transform="translate(-2225.256 -6990.313)">
        <g id="Group_133-2" data-name="Group 133" transform="translate(672.256 628.659)">
          <g id="Group_129-2" data-name="Group 129" transform="translate(0 0)" clip-path="url(#clip-path-4)">
            <path id="Path_153-2" data-name="Path 153" d="M31.328,83.058c1.659-1.395,1.532-4.338.982-6.651-.637-2.685-1.062-5.422-1.6-8.129l-1.577-7.011,0,0v0c-1.293-4.038-4.057-6.457-7.822-6.605-3.4-.133-6.821-.042-10.226.068a7.621,7.621,0,0,0-6.609,4.36,21.246,21.246,0,0,0-1.088,2.495v0l-1.467,7.2L1.7,69.847c-.307,1.52-.626,3.041-.94,4.561L.2,77.165.047,78.235C-.09,79.9,0,81.7,1.37,83.062l2.29,1.661,1.175.69c-.148.853-.262,1.6-.4,2.336s-.319,1.483-.455,2.226c-.466,2.578.641,4.16,3.208,4.577.474.076.956.1,1.543.159,0,2.207-.034,4.285.008,6.362.049,2.73,1.376,4.061,4.084,4.106,2.15.038,4.3.015,6.446.008,3.416-.011,4.7-1.27,4.713-4.645.008-1.941,0-3.883,0-5.843.451-.061.69-.1.937-.125,3.158-.315,4.25-1.793,3.678-4.96-.254-1.411-.482-2.825-.724-4.228a2.557,2.557,0,0,1,.774-.523Zm-16.244,19.3a4.747,4.747,0,0,1-.739.2c-2.882.186-2.973.1-2.973-2.776V94.729h3.712Zm6.127.068c-1.122.061-2.211.118-3.45.186V94.638h3.45Zm6.12-19.891c-1.122-5.873-2.2-11.546-3.306-17.34-.876.121-1.6.22-2.518.349,1.509,8.808,3.295,17.4,4.834,26.231H6.629a9.152,9.152,0,0,1,.015-1.649Q8.783,78.7,10.959,67.277c.091-.493.087-1,.148-1.7-.747-.133-1.452-.254-2.412-.421-1.107,5.8-2.2,11.515-3.3,17.271a5,5,0,0,1-1.775-1.2,3.457,3.457,0,0,1-.766-3.174q.347-1.723.69-3.447,1.132-5.659,2.245-11.322c.872-4.417,3.037-6.2,7.614-6.2,2.461,0,4.925.068,7.386.076a6.341,6.341,0,0,1,5.9,5.161c.588,3.143,1.24,6.272,1.9,9.4.447,2.15.9,4.3,1.335,6.454.341,1.684-.171,2.81-1.877,3.928-.216.144-.455.288-.713.432" transform="translate(0 -33.89)" fill="#a9253f" stroke="#fff" stroke-width="1"/>
            <path id="Path_154-2" data-name="Path 154" d="M35.012,9.114a8.922,8.922,0,1,1-17.842-.3,8.922,8.922,0,1,1,17.842.3m-8.9,6.12a6.166,6.166,0,0,0,6.284-6.1A6.262,6.262,0,0,0,26.23,2.647,6.37,6.37,0,0,0,19.786,8.89a6.327,6.327,0,0,0,6.323,6.344" transform="translate(-9.613 0)" fill="#a9253f" stroke="#fff" stroke-width="1"/>
          </g>
        </g>
      </g>
      <g id="Group_403" data-name="Group 403" transform="translate(-2184.256 -6990.313)">
        <g id="Group_133-3" data-name="Group 133" transform="translate(672.256 628.659)">
          <g id="Group_129-3" data-name="Group 129" transform="translate(0 0)" clip-path="url(#clip-path-4)">
            <path id="Path_153-3" data-name="Path 153" d="M31.328,83.058c1.659-1.395,1.532-4.338.982-6.651-.637-2.685-1.062-5.422-1.6-8.129l-1.577-7.011,0,0v0c-1.293-4.038-4.057-6.457-7.822-6.605-3.4-.133-6.821-.042-10.226.068a7.621,7.621,0,0,0-6.609,4.36,21.246,21.246,0,0,0-1.088,2.495v0l-1.467,7.2L1.7,69.847c-.307,1.52-.626,3.041-.94,4.561L.2,77.165.047,78.235C-.09,79.9,0,81.7,1.37,83.062l2.29,1.661,1.175.69c-.148.853-.262,1.6-.4,2.336s-.319,1.483-.455,2.226c-.466,2.578.641,4.16,3.208,4.577.474.076.956.1,1.543.159,0,2.207-.034,4.285.008,6.362.049,2.73,1.376,4.061,4.084,4.106,2.15.038,4.3.015,6.446.008,3.416-.011,4.7-1.27,4.713-4.645.008-1.941,0-3.883,0-5.843.451-.061.69-.1.937-.125,3.158-.315,4.25-1.793,3.678-4.96-.254-1.411-.482-2.825-.724-4.228a2.557,2.557,0,0,1,.774-.523Zm-16.244,19.3a4.747,4.747,0,0,1-.739.2c-2.882.186-2.973.1-2.973-2.776V94.729h3.712Zm6.127.068c-1.122.061-2.211.118-3.45.186V94.638h3.45Zm6.12-19.891c-1.122-5.873-2.2-11.546-3.306-17.34-.876.121-1.6.22-2.518.349,1.509,8.808,3.295,17.4,4.834,26.231H6.629a9.152,9.152,0,0,1,.015-1.649Q8.783,78.7,10.959,67.277c.091-.493.087-1,.148-1.7-.747-.133-1.452-.254-2.412-.421-1.107,5.8-2.2,11.515-3.3,17.271a5,5,0,0,1-1.775-1.2,3.457,3.457,0,0,1-.766-3.174q.347-1.723.69-3.447,1.132-5.659,2.245-11.322c.872-4.417,3.037-6.2,7.614-6.2,2.461,0,4.925.068,7.386.076a6.341,6.341,0,0,1,5.9,5.161c.588,3.143,1.24,6.272,1.9,9.4.447,2.15.9,4.3,1.335,6.454.341,1.684-.171,2.81-1.877,3.928-.216.144-.455.288-.713.432" transform="translate(0 -33.89)" fill="#a9253f" stroke="#fff" stroke-width="1"/>
            <path id="Path_154-3" data-name="Path 154" d="M35.012,9.114a8.922,8.922,0,1,1-17.842-.3,8.922,8.922,0,1,1,17.842.3m-8.9,6.12a6.166,6.166,0,0,0,6.284-6.1A6.262,6.262,0,0,0,26.23,2.647,6.37,6.37,0,0,0,19.786,8.89a6.327,6.327,0,0,0,6.323,6.344" transform="translate(-9.613 0)" fill="#a9253f" stroke="#fff" stroke-width="1"/>
          </g>
        </g>
      </g>
    </g>
    <g id="Group_416" data-name="Group 416" transform="translate(518.079 672.032)">
      <path id="Path_300" data-name="Path 300" d="M38.877,33.247c0-.106,0-.211-.01-.316l1.795-.945-.608-1.872-2.01.291a5.309,5.309,0,0,0-.37-.51l.9-1.821-1.592-1.157-1.453,1.416a5.224,5.224,0,0,0-.6-.2l-.344-2H32.613l-.344,2a5.222,5.222,0,0,0-.6.2l-1.453-1.416-1.592,1.157.9,1.821a5.308,5.308,0,0,0-.37.51l-2.01-.291-.608,1.872,1.795.945c-.006.1-.01.21-.01.316s0,.212.01.316l-1.795.945.608,1.872,2.01-.291a5.309,5.309,0,0,0,.37.51l-.9,1.821,1.592,1.157,1.453-1.416a5.224,5.224,0,0,0,.6.2l.344,2h1.968l.344-2a5.225,5.225,0,0,0,.6-.2l1.453,1.416,1.592-1.157-.9-1.821a5.309,5.309,0,0,0,.37-.51l2.01.291.608-1.872-1.795-.945C38.873,33.458,38.877,33.353,38.877,33.247Zm-3.083,0a2.2,2.2,0,1,1-2.2-2.2A2.2,2.2,0,0,1,35.795,33.247Z" transform="translate(-26.532 -26.138)" fill="#a9253f"/>
      <path id="Path_305" data-name="Path 305" d="M35.96,31.567c0-.081,0-.162-.008-.242l1.371-.721-.464-1.429-1.535.222a4.054,4.054,0,0,0-.283-.39l.686-1.391-1.216-.884L33.4,27.814a3.99,3.99,0,0,0-.459-.151l-.262-1.526h-1.5l-.262,1.526a3.99,3.99,0,0,0-.459.151l-1.11-1.081-1.216.884.686,1.391a4.053,4.053,0,0,0-.283.39L27,29.175,26.532,30.6l1.371.721c0,.08-.008.16-.008.242s0,.162.008.242l-1.371.721L27,33.96l1.535-.222a4.054,4.054,0,0,0,.283.39l-.686,1.391,1.216.884,1.11-1.081a3.99,3.99,0,0,0,.459.151L31.176,37h1.5l.262-1.526a3.99,3.99,0,0,0,.459-.151l1.11,1.081,1.216-.884-.686-1.391a4.055,4.055,0,0,0,.283-.39l1.535.222.464-1.429-1.371-.721C35.957,31.729,35.96,31.648,35.96,31.567Zm-2.354,0a1.678,1.678,0,1,1-1.678-1.678A1.68,1.68,0,0,1,33.606,31.567Z" transform="translate(-12.402 -22.853)" fill="#a9253f"/>
    </g>
    <g id="Group_415" data-name="Group 415" transform="translate(478.058 672.032)">
      <path id="Path_307" data-name="Path 307" d="M28.317,33.247c0-.106,0-.211.01-.316l-1.795-.945.608-1.872,2.01.291a5.309,5.309,0,0,1,.37-.51l-.9-1.821,1.592-1.157,1.453,1.416a5.224,5.224,0,0,1,.6-.2l.344-2h1.968l.344,2a5.222,5.222,0,0,1,.6.2l1.453-1.416,1.592,1.157-.9,1.821a5.309,5.309,0,0,1,.37.51l2.01-.291.608,1.872-1.795.945c.006.1.01.21.01.316s0,.212-.01.316l1.795.945-.608,1.872-2.01-.291a5.309,5.309,0,0,1-.37.51l.9,1.821-1.592,1.157-1.453-1.416a5.224,5.224,0,0,1-.6.2l-.344,2H32.613l-.344-2a5.225,5.225,0,0,1-.6-.2l-1.453,1.416L28.622,38.42l.9-1.821a5.309,5.309,0,0,1-.37-.51l-2.01.291-.608-1.872,1.795-.945C28.321,33.458,28.317,33.353,28.317,33.247Zm3.083,0a2.2,2.2,0,1,0,2.2-2.2A2.2,2.2,0,0,0,31.4,33.247Z" transform="translate(-15.741 -26.138)" fill="#a9253f"/>
      <path id="Path_306" data-name="Path 306" d="M27.895,31.567c0-.081,0-.162.008-.242L26.532,30.6,27,29.175l1.535.222a4.054,4.054,0,0,1,.283-.39l-.686-1.391,1.216-.884,1.11,1.081a3.99,3.99,0,0,1,.459-.151l.262-1.526h1.5l.262,1.526a3.99,3.99,0,0,1,.459.151l1.11-1.081,1.216.884-.686,1.391a4.052,4.052,0,0,1,.283.39l1.535-.222.464,1.429-1.371.721c0,.08.008.16.008.242s0,.162-.008.242l1.371.721-.464,1.429-1.535-.222a4.053,4.053,0,0,1-.283.39l.686,1.391-1.216.884L33.4,35.32a3.99,3.99,0,0,1-.459.151L32.679,37h-1.5l-.262-1.526a3.99,3.99,0,0,1-.459-.151L29.344,36.4l-1.216-.884.686-1.391a4.055,4.055,0,0,1-.283-.39L27,33.96l-.464-1.429,1.371-.721C27.9,31.729,27.895,31.648,27.895,31.567Zm2.354,0a1.678,1.678,0,1,0,1.678-1.678A1.68,1.68,0,0,0,30.249,31.567Z" transform="translate(-26.532 -22.852)" fill="#a9253f"/>
    </g>
    <g id="Group_414" data-name="Group 414" transform="translate(438.037 672.032)">
      <path id="Path_309" data-name="Path 309" d="M38.877,33.247c0-.106,0-.211-.01-.316l1.795-.945-.608-1.872-2.01.291a5.309,5.309,0,0,0-.37-.51l.9-1.821-1.592-1.157-1.453,1.416a5.224,5.224,0,0,0-.6-.2l-.344-2H32.613l-.344,2a5.222,5.222,0,0,0-.6.2l-1.453-1.416-1.592,1.157.9,1.821a5.308,5.308,0,0,0-.37.51l-2.01-.291-.608,1.872,1.795.945c-.006.1-.01.21-.01.316s0,.212.01.316l-1.795.945.608,1.872,2.01-.291a5.309,5.309,0,0,0,.37.51l-.9,1.821,1.592,1.157,1.453-1.416a5.224,5.224,0,0,0,.6.2l.344,2h1.968l.344-2a5.225,5.225,0,0,0,.6-.2l1.453,1.416,1.592-1.157-.9-1.821a5.309,5.309,0,0,0,.37-.51l2.01.291.608-1.872-1.795-.945C38.873,33.458,38.877,33.353,38.877,33.247Zm-3.083,0a2.2,2.2,0,1,1-2.2-2.2A2.2,2.2,0,0,1,35.795,33.247Z" transform="translate(-26.532 -26.138)" fill="#a9253f"/>
      <path id="Path_308" data-name="Path 308" d="M35.96,31.567c0-.081,0-.162-.008-.242l1.371-.721-.464-1.429-1.535.222a4.054,4.054,0,0,0-.283-.39l.686-1.391-1.216-.884L33.4,27.814a3.99,3.99,0,0,0-.459-.151l-.262-1.526h-1.5l-.262,1.526a3.99,3.99,0,0,0-.459.151l-1.11-1.081-1.216.884.686,1.391a4.053,4.053,0,0,0-.283.39L27,29.175,26.532,30.6l1.371.721c0,.08-.008.16-.008.242s0,.162.008.242l-1.371.721L27,33.96l1.535-.222a4.054,4.054,0,0,0,.283.39l-.686,1.391,1.216.884,1.11-1.081a3.99,3.99,0,0,0,.459.151L31.176,37h1.5l.262-1.526a3.99,3.99,0,0,0,.459-.151l1.11,1.081,1.216-.884-.686-1.391a4.055,4.055,0,0,0,.283-.39l1.535.222.464-1.429-1.371-.721C35.957,31.729,35.96,31.648,35.96,31.567Zm-2.354,0a1.678,1.678,0,1,1-1.678-1.678A1.68,1.68,0,0,1,33.606,31.567Z" transform="translate(-12.402 -22.853)" fill="#a9253f"/>
    </g>
    <g id="Group_413" data-name="Group 413" transform="translate(398.016 672.032)">
      <g id="Group_412" data-name="Group 412" transform="translate(0 0)">
        <path id="Path_311" data-name="Path 311" d="M38.877,33.247c0-.106,0-.211-.01-.316l1.795-.945-.608-1.872-2.01.291a5.309,5.309,0,0,0-.37-.51l.9-1.821-1.592-1.157-1.453,1.416a5.224,5.224,0,0,0-.6-.2l-.344-2H32.613l-.344,2a5.222,5.222,0,0,0-.6.2l-1.453-1.416-1.592,1.157.9,1.821a5.308,5.308,0,0,0-.37.51l-2.01-.291-.608,1.872,1.795.945c-.006.1-.01.21-.01.316s0,.212.01.316l-1.795.945.608,1.872,2.01-.291a5.309,5.309,0,0,0,.37.51l-.9,1.821,1.592,1.157,1.453-1.416a5.224,5.224,0,0,0,.6.2l.344,2h1.968l.344-2a5.225,5.225,0,0,0,.6-.2l1.453,1.416,1.592-1.157-.9-1.821a5.309,5.309,0,0,0,.37-.51l2.01.291.608-1.872-1.795-.945C38.873,33.458,38.877,33.353,38.877,33.247Zm-3.083,0a2.2,2.2,0,1,1-2.2-2.2A2.2,2.2,0,0,1,35.795,33.247Z" transform="translate(-26.532 -26.138)" fill="#a9253f"/>
      </g>
      <path id="Path_310" data-name="Path 310" d="M35.96,31.567c0-.081,0-.162-.008-.242l1.371-.721-.464-1.429-1.535.222a4.054,4.054,0,0,0-.283-.39l.686-1.391-1.216-.884L33.4,27.814a3.99,3.99,0,0,0-.459-.151l-.262-1.526h-1.5l-.262,1.526a3.99,3.99,0,0,0-.459.151l-1.11-1.081-1.216.884.686,1.391a4.053,4.053,0,0,0-.283.39L27,29.175,26.532,30.6l1.371.721c0,.08-.008.16-.008.242s0,.162.008.242l-1.371.721L27,33.96l1.535-.222a4.054,4.054,0,0,0,.283.39l-.686,1.391,1.216.884,1.11-1.081a3.99,3.99,0,0,0,.459.151L31.176,37h1.5l.262-1.526a3.99,3.99,0,0,0,.459-.151l1.11,1.081,1.216-.884-.686-1.391a4.055,4.055,0,0,0,.283-.39l1.535.222.464-1.429-1.371-.721C35.957,31.729,35.96,31.648,35.96,31.567Zm-2.354,0a1.678,1.678,0,1,1-1.678-1.678A1.68,1.68,0,0,1,33.606,31.567Z" transform="translate(-12.402 -22.853)" fill="#a9253f"/>
    </g>
    <g id="Group_411" data-name="Group 411" transform="translate(359.021 672.032)">
      <path id="Path_313" data-name="Path 313" d="M28.317,33.247c0-.106,0-.211.01-.316l-1.795-.945.608-1.872,2.01.291a5.31,5.31,0,0,1,.37-.51l-.9-1.821,1.592-1.157,1.453,1.416a5.223,5.223,0,0,1,.6-.2l.344-2h1.968l.344,2a5.222,5.222,0,0,1,.6.2l1.453-1.416,1.592,1.157-.9,1.821a5.308,5.308,0,0,1,.37.51l2.01-.291.608,1.872-1.795.945c.006.1.01.21.01.316s0,.212-.01.316l1.795.945-.608,1.872-2.01-.291a5.309,5.309,0,0,1-.37.51l.9,1.821-1.592,1.157-1.453-1.416a5.224,5.224,0,0,1-.6.2l-.344,2H32.613l-.344-2a5.225,5.225,0,0,1-.6-.2l-1.453,1.416L28.622,38.42l.9-1.821a5.31,5.31,0,0,1-.37-.51l-2.01.291-.608-1.872,1.795-.945C28.321,33.458,28.317,33.353,28.317,33.247Zm3.083,0a2.2,2.2,0,1,0,2.2-2.2A2.2,2.2,0,0,0,31.4,33.247Z" transform="translate(-15.741 -26.138)" fill="#a9253f"/>
      <path id="Path_312" data-name="Path 312" d="M27.895,31.567c0-.081,0-.162.008-.242L26.532,30.6,27,29.175l1.535.222a4.054,4.054,0,0,1,.283-.39l-.686-1.391,1.216-.884,1.11,1.081a3.99,3.99,0,0,1,.459-.151l.262-1.526h1.5l.262,1.526a3.99,3.99,0,0,1,.459.151l1.11-1.081,1.216.884-.686,1.391a4.054,4.054,0,0,1,.283.39l1.535-.222.464,1.429-1.371.721c0,.08.008.16.008.242s0,.162-.008.242l1.371.721-.464,1.429-1.535-.222a4.054,4.054,0,0,1-.283.39l.686,1.391-1.216.884L33.4,35.32a3.99,3.99,0,0,1-.459.151L32.679,37h-1.5l-.262-1.526a3.99,3.99,0,0,1-.459-.151L29.344,36.4l-1.216-.884.686-1.391a4.055,4.055,0,0,1-.283-.39L27,33.96l-.464-1.429,1.371-.721C27.9,31.729,27.895,31.648,27.895,31.567Zm2.354,0a1.678,1.678,0,1,0,1.678-1.678A1.68,1.68,0,0,0,30.249,31.567Z" transform="translate(-26.532 -22.852)" fill="#a9253f"/>
    </g>
    <g id="Group_410" data-name="Group 410" transform="translate(319 672.032)">
      <path id="Path_315" data-name="Path 315" d="M28.317,33.247c0-.106,0-.211.01-.316l-1.795-.945.608-1.872,2.01.291a5.309,5.309,0,0,1,.37-.51l-.9-1.821,1.592-1.157,1.453,1.416a5.224,5.224,0,0,1,.6-.2l.344-2h1.968l.344,2a5.222,5.222,0,0,1,.6.2l1.453-1.416,1.592,1.157-.9,1.821a5.309,5.309,0,0,1,.37.51l2.01-.291.608,1.872-1.795.945c.006.1.01.21.01.316s0,.212-.01.316l1.795.945-.608,1.872-2.01-.291a5.309,5.309,0,0,1-.37.51l.9,1.821-1.592,1.157-1.453-1.416a5.224,5.224,0,0,1-.6.2l-.344,2H32.613l-.344-2a5.225,5.225,0,0,1-.6-.2l-1.453,1.416L28.622,38.42l.9-1.821a5.309,5.309,0,0,1-.37-.51l-2.01.291-.608-1.872,1.795-.945C28.321,33.458,28.317,33.353,28.317,33.247Zm3.083,0a2.2,2.2,0,1,0,2.2-2.2A2.2,2.2,0,0,0,31.4,33.247Z" transform="translate(-15.741 -26.138)" fill="#a9253f"/>
      <path id="Path_314" data-name="Path 314" d="M27.895,31.567c0-.081,0-.162.008-.242L26.532,30.6,27,29.175l1.535.222a4.054,4.054,0,0,1,.283-.39l-.686-1.391,1.216-.884,1.11,1.081a3.99,3.99,0,0,1,.459-.151l.262-1.526h1.5l.262,1.526a3.99,3.99,0,0,1,.459.151l1.11-1.081,1.216.884-.686,1.391a4.053,4.053,0,0,1,.283.39l1.535-.222.464,1.429-1.371.721c0,.08.008.16.008.242s0,.162-.008.242l1.371.721-.464,1.429-1.535-.222a4.053,4.053,0,0,1-.283.39l.686,1.391-1.216.884L33.4,35.32a3.99,3.99,0,0,1-.459.151L32.679,37h-1.5l-.262-1.526a3.99,3.99,0,0,1-.459-.151L29.344,36.4l-1.216-.884.686-1.391a4.055,4.055,0,0,1-.283-.39L27,33.96l-.464-1.429,1.371-.721C27.9,31.729,27.895,31.648,27.895,31.567Zm2.354,0a1.678,1.678,0,1,0,1.678-1.678A1.68,1.68,0,0,0,30.249,31.567Z" transform="translate(-26.532 -22.852)" fill="#a9253f"/>
    </g>
  </g>
</svg>
