<svg xmlns="http://www.w3.org/2000/svg" xmlns:xlink="http://www.w3.org/1999/xlink" width="72.066" height="75.824" viewBox="0 0 72.066 75.824">
  <defs>
    <clipPath id="clip-path">
      <rect id="Rectangle_31" data-name="Rectangle 31" width="72.066" height="75.824" fill="#001D4A" stroke="#fff" stroke-width="0.5"/>
    </clipPath>
  </defs>
  <g id="Group_79" data-name="Group 79" clip-path="url(#clip-path)">
    <path id="Path_56" data-name="Path 56" d="M17.651,63.611c-.651.528-1.165.922-1.654,1.345a3.984,3.984,0,0,1-3.808.869,1.638,1.638,0,0,0-1.915.675c-2.648,2.866-5.36,5.673-8.048,8.5-.15.157-.294.32-.452.468a.925.925,0,0,1-1.437.026,1.716,1.716,0,0,1-.275-1.424,5.439,5.439,0,0,1,1.211-1.5q3.632-3.839,7.282-7.66c.294-.31.557-.648.878-1.024-1.437-2.614-.16-4.571,1.73-6.477-.73-.752-1.392-1.44-2.061-2.122-1.916-1.952-1.942-3.412-.034-5.472,1.989-2.147,4.009-4.265,6.015-6.4q7.97-8.462,15.937-16.925c2.6-2.765,5.167-5.554,7.745-8.336.214-.23.387-.5.614-.79-.346-.423-.671-.778-.949-1.167a4.215,4.215,0,0,1,.3-5.508,4.116,4.116,0,0,1,5.592-.676,30.25,30.25,0,0,1,3.062,2.659c1.152,1.056,2.273,2.147,3.524,3.333l6.5-6.83c-.95-.9-1.829-1.744-2.729-2.571a3.7,3.7,0,0,1-.978-4.8A3.242,3.242,0,0,1,58.424.572a31.5,31.5,0,0,1,3.611,3.009c2.7,2.511,5.348,5.073,8.011,7.62a12,12,0,0,1,1.235,1.292,3.373,3.373,0,0,1-.247,4.59,3.429,3.429,0,0,1-4.582.4c-1.2-.909-2.308-1.943-3.653-3.089l-6.342,6.767c1.721,1.625,3.343,3.2,5.018,4.721a5.62,5.62,0,0,1,2.158,3.331,4.211,4.211,0,0,1-2.1,4.577,4.272,4.272,0,0,1-4.886-.373c-.26-.191-.506-.4-.83-.657a6.874,6.874,0,0,0-.876.68c-3.922,4.2-7.818,8.416-11.75,12.6-4.119,4.384-8.274,8.734-12.407,13.105-1.75,1.851-3.466,3.733-5.235,5.566a8.546,8.546,0,0,1-1.875,1.532,2.753,2.753,0,0,1-3.2-.327c-.937-.723-1.837-1.494-2.829-2.305M53.744,30.762,41.428,19.218l-4.392,4.813c.337.374.57.67.842.926,1.1,1.04,2.233,2.054,3.325,3.106.546.526,1.129,1.085.679,1.969a1.479,1.479,0,0,1-2.521.441c-1.52-1.349-3.018-2.723-4.581-4.138l-1.127,1.46c.951.874,1.846,1.648,2.684,2.481.9.9.907,1.564.109,2.372-.742.75-1.261.732-2.225-.156-.907-.837-1.779-1.712-2.765-2.665l-1.326,1.508.519-.28c1.34,1.566,2.661,3.148,4.028,4.69.607.685.718,1.271.03,1.967-.785.794-1.262.907-2.1.224-.711-.582-1.347-1.257-2.012-1.895-.812-.779-1.62-1.562-2.538-2.447l-1.336,1.465c1.029,1,1.923,1.859,2.814,2.725a1.29,1.29,0,0,1,.347,1.736c-.615,1.078-1.375,1.277-2.388.447-.989-.81-1.894-1.723-2.911-2.661L23.5,38.462c1.492,1.63,2.861,3.16,4.271,4.65a1.218,1.218,0,0,1,.155,1.85c-.539.64-1.146,1.039-1.963.493a8.8,8.8,0,0,1-1.129-.92c-1.248-1.178-2.482-2.372-3.814-3.648l-1.312,1.529c1.075,1.025,2.021,1.914,2.95,2.819a1.24,1.24,0,0,1,.351,1.6c-.614,1.234-1.485,1.438-2.6.47-.93-.807-1.795-1.689-2.7-2.552L16.224,45.82c.6.654.935,1.07,1.321,1.434,1.025.966,2.077,1.9,3.106,2.864.533.5.983,1.041.591,1.847a1.438,1.438,0,0,1-2.487.52c-1.51-1.31-2.976-2.669-4.584-4.119-1.265,1.509-2.952,2.544-3.875,4.491,3.805,3.534,7.54,6.991,11.258,10.466a1.023,1.023,0,0,0,1.67-.017c.485-.511,1.011-.984,1.492-1.5,3.99-4.28,7.958-8.58,11.962-12.847,4.191-4.465,8.42-8.893,12.619-13.35,1.446-1.534,2.852-3.106,4.446-4.847m7.45-1.131a5.377,5.377,0,0,0-.772-1.18c-1.622-1.594-3.3-3.131-4.948-4.7-2.749-2.611-5.484-5.237-8.241-7.84q-1.89-1.784-3.841-3.5a2.048,2.048,0,0,0-2.669-.112,2.026,2.026,0,0,0,0,2.783,11.228,11.228,0,0,0,1.028,1.04c1.194,1.1,2.412,2.177,3.594,3.291q6.147,5.8,12.279,11.607a3.583,3.583,0,0,0,.777.577c1.306.683,2.736-.157,2.8-1.966M56.841,2.253c-.434.293-.938.455-1.075.773a1.839,1.839,0,0,0,.043,1.334,3.9,3.9,0,0,0,.969,1.078C58.432,7,60.1,8.551,61.756,10.107c1.778,1.667,3.547,3.345,5.336,5,.964.892,1.671.986,2.26.365.543-.572.383-1.371-.473-2.281-.26-.276-.545-.528-.825-.784-.84-.766-1.7-1.514-2.524-2.3-2.4-2.271-4.78-4.565-7.191-6.825a12.411,12.411,0,0,0-1.5-1.034m2.384,8.857-6.048,6.461,1.429,1.679,6.363-6.844-1.744-1.3M12.952,59.126c-.96.995-2,1.807-1.424,3.146a2.3,2.3,0,0,0,1.548,1.15c1.322.179,1.925-.87,2.568-1.948l-2.693-2.348" transform="translate(0 0)" fill="#001D4A" stroke="#fff" stroke-width="0.5"/>
  </g>
</svg>