<svg xmlns="http://www.w3.org/2000/svg" xmlns:xlink="http://www.w3.org/1999/xlink" width="224.813" height="165.592" viewBox="0 0 224.813 165.592">
  <defs>
    <clipPath id="clip-path">
      <rect id="Rectangle_114" data-name="Rectangle 114" width="224.813" height="165.592" fill="#A9253F" stroke="#fff" stroke-linecap="round" stroke-linejoin="round" stroke-width="8"/>
    </clipPath>
  </defs>
  <g id="Group_523" data-name="Group 523" clip-path="url(#clip-path)">
    <path id="Path_379" data-name="Path 379" d="M124.569,83.293c0,24.155-.048,48.309.05,72.464.015,3.893-.277,7.281-4.346,9.145-3.815,1.747-6.687-.132-9.583-2.2-18.4-13.135-36.768-26.33-55.293-39.295a14.733,14.733,0,0,0-7.773-2.35c-12.822-.237-25.651-.075-38.478-.121C2.6,120.912.087,118.5.06,111.89q-.114-28.735,0-57.471C.1,47.3,2.7,44.777,9.757,44.738c12.827-.07,25.657.114,38.479-.134a14.716,14.716,0,0,0,7.747-2.446q28.069-19.7,55.834-39.822c3.028-2.187,6.368-3.436,9.051-1.018a12.112,12.112,0,0,1,3.546,8.014c.266,24.651.155,49.307.155,73.961m-109.32-23.6v46.281c12.68,0,24.992-.108,37.3.089a14.293,14.293,0,0,1,7.462,1.987c9.631,6.539,19.009,13.449,28.493,20.206,6.806,4.847,13.636,9.66,20.664,14.637V22.526C94.312,33.126,79.879,43.107,65.83,53.6c-5.893,4.4-11.838,6.594-19.267,6.221-10.284-.515-20.614-.129-31.314-.129" fill="#A9253F" stroke="#fff" stroke-linecap="round" stroke-linejoin="round" stroke-width="8"/>
    <path id="Path_380" data-name="Path 380" d="M224.813,80.882c-.272,28.2-8.747,51.05-25.106,71.014-2.387,2.913-5.042,5.558-9.243,4.375-5.837-1.643-7.182-7.184-3.44-12.682,4.288-6.3,9.172-12.353,12.438-19.164,16.962-35.375,13.062-68.8-10.47-100.047a39.031,39.031,0,0,1-2.693-3.567c-2.183-3.734-1.457-8.034,1.618-10.306,2.871-2.122,7.682-1.533,10.337,1.547,17.623,20.444,26.4,44.218,26.559,68.83" fill="#A9253F" stroke="#fff" stroke-linecap="round" stroke-linejoin="round" stroke-width="8"/>
    <path id="Path_381" data-name="Path 381" d="M193.244,82.906a76.928,76.928,0,0,1-16.371,46.775c-3.586,4.629-8.068,5.621-11.579,2.832-3.609-2.868-3.708-7.147-.24-11.923,15.646-21.544,17.5-44.162,5.133-67.79-1.756-3.356-4.33-6.276-6.2-9.584-2.409-4.269-1.515-8.516,1.856-10.527,3.413-2.036,7.819-1.053,10.617,2.432,11.131,13.865,16.365,29.83,16.78,47.785" fill="#A9253F" stroke="#fff" stroke-linecap="round" stroke-linejoin="round" stroke-width="8"/>
    <path id="Path_382" data-name="Path 382" d="M161.743,83.254a41.1,41.1,0,0,1-7.261,23.893c-2.985,4.442-6.807,5.661-10.545,3.429-3.982-2.378-4.748-6.452-1.879-11.273,6.434-10.815,6.594-21.56.233-32.5-3.191-5.488-2.514-9.28,1.553-11.694,3.976-2.36,7.726-.946,11.066,4.125a42.478,42.478,0,0,1,6.833,24.018" fill="#A9253F" stroke="#fff" stroke-linecap="round" stroke-linejoin="round" stroke-width="8"/>
  </g>
</svg>