<svg xmlns="http://www.w3.org/2000/svg" xmlns:xlink="http://www.w3.org/1999/xlink" width="349.5" height="121.714" viewBox="0 0 349.5 121.714">
  <defs>
    <clipPath id="clip-path">
      <rect id="Rectangle_31" data-name="Rectangle 31" width="84.004" height="88.384" fill="#476A8A" stroke="#fff" stroke-linecap="round" stroke-linejoin="round" stroke-width="1.5"/>
    </clipPath>
  </defs>
  <g id="Group_188" data-name="Group 188" transform="translate(172.221 121.714) rotate(-133)">
    <g id="Group_79" data-name="Group 79" transform="translate(78.383 -84.055)" clip-path="url(#clip-path)">
      <path id="Path_56" data-name="Path 56" d="M20.575,74.148c-.759.615-1.358,1.075-1.928,1.567a4.644,4.644,0,0,1-4.438,1.012,1.91,1.91,0,0,0-2.232.787c-3.087,3.341-6.247,6.613-9.382,9.91-.174.183-.343.373-.527.545A1.079,1.079,0,0,1,.393,88a2,2,0,0,1-.32-1.66,6.341,6.341,0,0,1,1.411-1.752q4.234-4.475,8.488-8.929c.343-.361.649-.755,1.024-1.194-1.676-3.047-.187-5.328,2.017-7.55-.851-.877-1.623-1.679-2.4-2.473-2.234-2.275-2.263-3.978-.04-6.379,2.318-2.5,4.673-4.971,7.012-7.454q9.29-9.863,18.577-19.729c3.026-3.223,6.023-6.474,9.028-9.717.249-.268.451-.579.715-.921-.4-.493-.783-.907-1.107-1.361a4.913,4.913,0,0,1,.35-6.421,4.8,4.8,0,0,1,6.519-.788,35.26,35.26,0,0,1,3.57,3.1c1.343,1.231,2.649,2.5,4.107,3.886L66.917,10.7c-1.107-1.044-2.132-2.033-3.181-3-1.8-1.657-2.221-3.67-1.14-5.593A3.779,3.779,0,0,1,68.1.667a36.719,36.719,0,0,1,4.209,3.508c3.144,2.927,6.234,5.913,9.338,8.883a13.993,13.993,0,0,1,1.439,1.507,3.932,3.932,0,0,1-.288,5.35,4,4,0,0,1-5.342.466c-1.4-1.06-2.69-2.265-4.258-3.6L65.81,24.666c2.006,1.894,3.9,3.733,5.849,5.5a6.551,6.551,0,0,1,2.516,3.883,4.909,4.909,0,0,1-2.446,5.335,4.98,4.98,0,0,1-5.7-.435c-.3-.222-.59-.466-.967-.766a8.014,8.014,0,0,0-1.021.792c-4.571,4.891-9.113,9.811-13.7,14.69-4.8,5.11-9.644,10.181-14.462,15.276-2.04,2.157-4.041,4.352-6.1,6.488A9.962,9.962,0,0,1,27.6,77.217a3.209,3.209,0,0,1-3.727-.381c-1.092-.843-2.141-1.741-3.3-2.687m42.072-38.29L48.291,22.4l-5.12,5.61c.393.435.665.781.981,1.079,1.287,1.213,2.6,2.394,3.876,3.621.636.613,1.316,1.264.791,2.295a1.723,1.723,0,0,1-2.939.513c-1.771-1.573-3.517-3.174-5.34-4.824l-1.314,1.7c1.108,1.019,2.152,1.921,3.128,2.892,1.053,1.048,1.057,1.823.127,2.765-.864.874-1.47.853-2.594-.182-1.058-.975-2.074-2-3.223-3.106l-1.546,1.757.6-.327c1.562,1.825,3.1,3.669,4.7,5.467.707.8.837,1.482.035,2.293-.915.926-1.471,1.058-2.446.261-.829-.678-1.57-1.465-2.346-2.208-.947-.908-1.888-1.821-2.958-2.853l-1.557,1.708c1.2,1.161,2.242,2.167,3.281,3.176a1.5,1.5,0,0,1,.4,2.024c-.717,1.257-1.6,1.488-2.784.521-1.153-.944-2.207-2.008-3.394-3.1L27.4,44.834c1.739,1.9,3.334,3.683,4.979,5.421a1.419,1.419,0,0,1,.181,2.156c-.628.746-1.336,1.212-2.288.575a10.262,10.262,0,0,1-1.316-1.073c-1.455-1.373-2.893-2.765-4.445-4.253l-1.529,1.783c1.253,1.195,2.355,2.231,3.439,3.286a1.445,1.445,0,0,1,.409,1.86c-.716,1.439-1.731,1.676-3.032.548-1.084-.941-2.092-1.969-3.151-2.975l-1.73,1.248c.7.763,1.09,1.247,1.539,1.671,1.194,1.126,2.421,2.218,3.621,3.339.622.581,1.145,1.213.689,2.153a1.676,1.676,0,0,1-2.9.606c-1.76-1.527-3.47-3.112-5.343-4.8-1.475,1.759-3.441,2.965-4.517,5.235,4.436,4.119,8.789,8.149,13.123,12.2a1.192,1.192,0,0,0,1.946-.02c.565-.6,1.179-1.146,1.739-1.747,4.651-4.989,9.277-10,13.944-14.975,4.885-5.2,9.815-10.367,14.71-15.562,1.685-1.788,3.324-3.621,5.183-5.65m8.684-1.319a6.269,6.269,0,0,0-.9-1.375c-1.891-1.858-3.846-3.65-5.768-5.475-3.2-3.044-6.393-6.1-9.606-9.138q-2.2-2.08-4.477-4.083a2.387,2.387,0,0,0-3.111-.131,2.362,2.362,0,0,0,0,3.244,13.088,13.088,0,0,0,1.2,1.212c1.392,1.284,2.812,2.537,4.189,3.836q7.166,6.756,14.314,13.53a4.177,4.177,0,0,0,.906.673c1.523.8,3.189-.183,3.26-2.292M66.257,2.626c-.505.342-1.094.53-1.253.9a2.144,2.144,0,0,0,.05,1.555,4.546,4.546,0,0,0,1.129,1.256c1.927,1.821,3.867,3.629,5.8,5.443,2.073,1.944,4.135,3.9,6.22,5.829,1.123,1.04,1.947,1.149,2.635.426.633-.666.447-1.6-.551-2.659-.3-.322-.635-.615-.962-.914-.979-.893-1.979-1.765-2.942-2.675C73.588,9.14,70.814,6.466,68,3.832a14.466,14.466,0,0,0-1.747-1.206m2.779,10.325-7.05,7.531,1.666,1.957,7.417-7.978-2.033-1.51M15.1,68.92c-1.119,1.159-2.335,2.106-1.66,3.667a2.679,2.679,0,0,0,1.8,1.341c1.54.209,2.243-1.014,2.994-2.271L15.1,68.92" transform="translate(0 0)" fill="#476A8A" stroke="#fff" stroke-linecap="round" stroke-linejoin="round" stroke-width="1.5"/>
    </g>
    <g id="Group_79-2" data-name="Group 79" transform="translate(0 0)" clip-path="url(#clip-path)">
      <path id="Path_56-2" data-name="Path 56" d="M20.575,74.148c-.759.615-1.358,1.075-1.928,1.567a4.644,4.644,0,0,1-4.438,1.012,1.91,1.91,0,0,0-2.232.787c-3.087,3.341-6.247,6.613-9.382,9.91-.174.183-.343.373-.527.545A1.079,1.079,0,0,1,.393,88a2,2,0,0,1-.32-1.66,6.341,6.341,0,0,1,1.411-1.752q4.234-4.475,8.488-8.929c.343-.361.649-.755,1.024-1.194-1.676-3.047-.187-5.328,2.017-7.55-.851-.877-1.623-1.679-2.4-2.473-2.234-2.275-2.263-3.978-.04-6.379,2.318-2.5,4.673-4.971,7.012-7.454q9.29-9.863,18.577-19.729c3.026-3.223,6.023-6.474,9.028-9.717.249-.268.451-.579.715-.921-.4-.493-.783-.907-1.107-1.361a4.913,4.913,0,0,1,.35-6.421,4.8,4.8,0,0,1,6.519-.788,35.26,35.26,0,0,1,3.57,3.1c1.343,1.231,2.649,2.5,4.107,3.886L66.917,10.7c-1.107-1.044-2.132-2.033-3.181-3-1.8-1.657-2.221-3.67-1.14-5.593A3.779,3.779,0,0,1,68.1.667a36.719,36.719,0,0,1,4.209,3.508c3.144,2.927,6.234,5.913,9.338,8.883a13.993,13.993,0,0,1,1.439,1.507,3.932,3.932,0,0,1-.288,5.35,4,4,0,0,1-5.342.466c-1.4-1.06-2.69-2.265-4.258-3.6L65.81,24.666c2.006,1.894,3.9,3.733,5.849,5.5a6.551,6.551,0,0,1,2.516,3.883,4.909,4.909,0,0,1-2.446,5.335,4.98,4.98,0,0,1-5.7-.435c-.3-.222-.59-.466-.967-.766a8.014,8.014,0,0,0-1.021.792c-4.571,4.891-9.113,9.811-13.7,14.69-4.8,5.11-9.644,10.181-14.462,15.276-2.04,2.157-4.041,4.352-6.1,6.488A9.962,9.962,0,0,1,27.6,77.217a3.209,3.209,0,0,1-3.727-.381c-1.092-.843-2.141-1.741-3.3-2.687m42.072-38.29L48.291,22.4l-5.12,5.61c.393.435.665.781.981,1.079,1.287,1.213,2.6,2.394,3.876,3.621.636.613,1.316,1.264.791,2.295a1.723,1.723,0,0,1-2.939.513c-1.771-1.573-3.517-3.174-5.34-4.824l-1.314,1.7c1.108,1.019,2.152,1.921,3.128,2.892,1.053,1.048,1.057,1.823.127,2.765-.864.874-1.47.853-2.594-.182-1.058-.975-2.074-2-3.223-3.106l-1.546,1.757.6-.327c1.562,1.825,3.1,3.669,4.7,5.467.707.8.837,1.482.035,2.293-.915.926-1.471,1.058-2.446.261-.829-.678-1.57-1.465-2.346-2.208-.947-.908-1.888-1.821-2.958-2.853l-1.557,1.708c1.2,1.161,2.242,2.167,3.281,3.176a1.5,1.5,0,0,1,.4,2.024c-.717,1.257-1.6,1.488-2.784.521-1.153-.944-2.207-2.008-3.394-3.1L27.4,44.834c1.739,1.9,3.334,3.683,4.979,5.421a1.419,1.419,0,0,1,.181,2.156c-.628.746-1.336,1.212-2.288.575a10.262,10.262,0,0,1-1.316-1.073c-1.455-1.373-2.893-2.765-4.445-4.253l-1.529,1.783c1.253,1.195,2.355,2.231,3.439,3.286a1.445,1.445,0,0,1,.409,1.86c-.716,1.439-1.731,1.676-3.032.548-1.084-.941-2.092-1.969-3.151-2.975l-1.73,1.248c.7.763,1.09,1.247,1.539,1.671,1.194,1.126,2.421,2.218,3.621,3.339.622.581,1.145,1.213.689,2.153a1.676,1.676,0,0,1-2.9.606c-1.76-1.527-3.47-3.112-5.343-4.8-1.475,1.759-3.441,2.965-4.517,5.235,4.436,4.119,8.789,8.149,13.123,12.2a1.192,1.192,0,0,0,1.946-.02c.565-.6,1.179-1.146,1.739-1.747,4.651-4.989,9.277-10,13.944-14.975,4.885-5.2,9.815-10.367,14.71-15.562,1.685-1.788,3.324-3.621,5.183-5.65m8.684-1.319a6.269,6.269,0,0,0-.9-1.375c-1.891-1.858-3.846-3.65-5.768-5.475-3.2-3.044-6.393-6.1-9.606-9.138q-2.2-2.08-4.477-4.083a2.387,2.387,0,0,0-3.111-.131,2.362,2.362,0,0,0,0,3.244,13.088,13.088,0,0,0,1.2,1.212c1.392,1.284,2.812,2.537,4.189,3.836q7.166,6.756,14.314,13.53a4.177,4.177,0,0,0,.906.673c1.523.8,3.189-.183,3.26-2.292M66.257,2.626c-.505.342-1.094.53-1.253.9a2.144,2.144,0,0,0,.05,1.555,4.546,4.546,0,0,0,1.129,1.256c1.927,1.821,3.867,3.629,5.8,5.443,2.073,1.944,4.135,3.9,6.22,5.829,1.123,1.04,1.947,1.149,2.635.426.633-.666.447-1.6-.551-2.659-.3-.322-.635-.615-.962-.914-.979-.893-1.979-1.765-2.942-2.675C73.588,9.14,70.814,6.466,68,3.832a14.466,14.466,0,0,0-1.747-1.206m2.779,10.325-7.05,7.531,1.666,1.957,7.417-7.978-2.033-1.51M15.1,68.92c-1.119,1.159-2.335,2.106-1.66,3.667a2.679,2.679,0,0,0,1.8,1.341c1.54.209,2.243-1.014,2.994-2.271L15.1,68.92" transform="translate(0 0)" fill="#476A8A" stroke="#fff" stroke-linecap="round" stroke-linejoin="round" stroke-width="1.5"/>
    </g>
    <g id="Group_79-3" data-name="Group 79" transform="translate(-76.819 82.379)" clip-path="url(#clip-path)">
      <path id="Path_56-3" data-name="Path 56" d="M20.575,74.148c-.759.615-1.358,1.075-1.928,1.567a4.644,4.644,0,0,1-4.438,1.012,1.91,1.91,0,0,0-2.232.787c-3.087,3.341-6.247,6.613-9.382,9.91-.174.183-.343.373-.527.545A1.079,1.079,0,0,1,.393,88a2,2,0,0,1-.32-1.66,6.341,6.341,0,0,1,1.411-1.752q4.234-4.475,8.488-8.929c.343-.361.649-.755,1.024-1.194-1.676-3.047-.187-5.328,2.017-7.55-.851-.877-1.623-1.679-2.4-2.473-2.234-2.275-2.263-3.978-.04-6.379,2.318-2.5,4.673-4.971,7.012-7.454q9.29-9.863,18.577-19.729c3.026-3.223,6.023-6.474,9.028-9.717.249-.268.451-.579.715-.921-.4-.493-.783-.907-1.107-1.361a4.913,4.913,0,0,1,.35-6.421,4.8,4.8,0,0,1,6.519-.788,35.26,35.26,0,0,1,3.57,3.1c1.343,1.231,2.649,2.5,4.107,3.886L66.917,10.7c-1.107-1.044-2.132-2.033-3.181-3-1.8-1.657-2.221-3.67-1.14-5.593A3.779,3.779,0,0,1,68.1.667a36.719,36.719,0,0,1,4.209,3.508c3.144,2.927,6.234,5.913,9.338,8.883a13.993,13.993,0,0,1,1.439,1.507,3.932,3.932,0,0,1-.288,5.35,4,4,0,0,1-5.342.466c-1.4-1.06-2.69-2.265-4.258-3.6L65.81,24.666c2.006,1.894,3.9,3.733,5.849,5.5a6.551,6.551,0,0,1,2.516,3.883,4.909,4.909,0,0,1-2.446,5.335,4.98,4.98,0,0,1-5.7-.435c-.3-.222-.59-.466-.967-.766a8.014,8.014,0,0,0-1.021.792c-4.571,4.891-9.113,9.811-13.7,14.69-4.8,5.11-9.644,10.181-14.462,15.276-2.04,2.157-4.041,4.352-6.1,6.488A9.962,9.962,0,0,1,27.6,77.217a3.209,3.209,0,0,1-3.727-.381c-1.092-.843-2.141-1.741-3.3-2.687m42.072-38.29L48.291,22.4l-5.12,5.61c.393.435.665.781.981,1.079,1.287,1.213,2.6,2.394,3.876,3.621.636.613,1.316,1.264.791,2.295a1.723,1.723,0,0,1-2.939.513c-1.771-1.573-3.517-3.174-5.34-4.824l-1.314,1.7c1.108,1.019,2.152,1.921,3.128,2.892,1.053,1.048,1.057,1.823.127,2.765-.864.874-1.47.853-2.594-.182-1.058-.975-2.074-2-3.223-3.106l-1.546,1.757.6-.327c1.562,1.825,3.1,3.669,4.7,5.467.707.8.837,1.482.035,2.293-.915.926-1.471,1.058-2.446.261-.829-.678-1.57-1.465-2.346-2.208-.947-.908-1.888-1.821-2.958-2.853l-1.557,1.708c1.2,1.161,2.242,2.167,3.281,3.176a1.5,1.5,0,0,1,.4,2.024c-.717,1.257-1.6,1.488-2.784.521-1.153-.944-2.207-2.008-3.394-3.1L27.4,44.834c1.739,1.9,3.334,3.683,4.979,5.421a1.419,1.419,0,0,1,.181,2.156c-.628.746-1.336,1.212-2.288.575a10.262,10.262,0,0,1-1.316-1.073c-1.455-1.373-2.893-2.765-4.445-4.253l-1.529,1.783c1.253,1.195,2.355,2.231,3.439,3.286a1.445,1.445,0,0,1,.409,1.86c-.716,1.439-1.731,1.676-3.032.548-1.084-.941-2.092-1.969-3.151-2.975l-1.73,1.248c.7.763,1.09,1.247,1.539,1.671,1.194,1.126,2.421,2.218,3.621,3.339.622.581,1.145,1.213.689,2.153a1.676,1.676,0,0,1-2.9.606c-1.76-1.527-3.47-3.112-5.343-4.8-1.475,1.759-3.441,2.965-4.517,5.235,4.436,4.119,8.789,8.149,13.123,12.2a1.192,1.192,0,0,0,1.946-.02c.565-.6,1.179-1.146,1.739-1.747,4.651-4.989,9.277-10,13.944-14.975,4.885-5.2,9.815-10.367,14.71-15.562,1.685-1.788,3.324-3.621,5.183-5.65m8.684-1.319a6.269,6.269,0,0,0-.9-1.375c-1.891-1.858-3.846-3.65-5.768-5.475-3.2-3.044-6.393-6.1-9.606-9.138q-2.2-2.08-4.477-4.083a2.387,2.387,0,0,0-3.111-.131,2.362,2.362,0,0,0,0,3.244,13.088,13.088,0,0,0,1.2,1.212c1.392,1.284,2.812,2.537,4.189,3.836q7.166,6.756,14.314,13.53a4.177,4.177,0,0,0,.906.673c1.523.8,3.189-.183,3.26-2.292M66.257,2.626c-.505.342-1.094.53-1.253.9a2.144,2.144,0,0,0,.05,1.555,4.546,4.546,0,0,0,1.129,1.256c1.927,1.821,3.867,3.629,5.8,5.443,2.073,1.944,4.135,3.9,6.22,5.829,1.123,1.04,1.947,1.149,2.635.426.633-.666.447-1.6-.551-2.659-.3-.322-.635-.615-.962-.914-.979-.893-1.979-1.765-2.942-2.675C73.588,9.14,70.814,6.466,68,3.832a14.466,14.466,0,0,0-1.747-1.206m2.779,10.325-7.05,7.531,1.666,1.957,7.417-7.978-2.033-1.51M15.1,68.92c-1.119,1.159-2.335,2.106-1.66,3.667a2.679,2.679,0,0,0,1.8,1.341c1.54.209,2.243-1.014,2.994-2.271L15.1,68.92" transform="translate(0 0)"
fill="#476A8A" stroke="#fff" stroke-linecap="round" stroke-linejoin="round" stroke-width="1.5"/>
    </g>
  </g>
</svg>