<svg xmlns="http://www.w3.org/2000/svg" width="102" height="40" viewBox="0 0 102 40">
  <g id="Group_185" data-name="Group 185" transform="translate(-4499 -732)">
    <g id="Polygon_3" data-name="Polygon 3" transform="translate(4567 732) rotate(90)" fill="none" stroke-linecap="round" stroke-linejoin="round">
      <path d="M20,0,40,34H0Z" stroke="none"/>
      <path d="M 20 3.944618225097656 L 3.496833801269531 32 L 36.50316619873047 32 L 20 3.944618225097656 M 20 0 L 40 34 L 0 34 L 20 0 Z" stroke="none" fill="#476a8a"/>
    </g>
    <g id="Polygon_3-2" data-name="Polygon 3" transform="translate(4601 732) rotate(90)" fill="none" stroke-linecap="round" stroke-linejoin="round">
      <path d="M20,0,40,34H0Z" stroke="none"/>
      <path d="M 20 3.944618225097656 L 3.496833801269531 32 L 36.50316619873047 32 L 20 3.944618225097656 M 20 0 L 40 34 L 0 34 L 20 0 Z" stroke="none" fill="#476a8a"/>
    </g>
    <g id="Polygon_3-3" data-name="Polygon 3" transform="translate(4533 732) rotate(90)" fill="none" stroke-linecap="round" stroke-linejoin="round">
      <path d="M20,0,40,34H0Z" stroke="none"/>
      <path d="M 20 3.944618225097656 L 3.496833801269531 32 L 36.50316619873047 32 L 20 3.944618225097656 M 20 0 L 40 34 L 0 34 L 20 0 Z" stroke="none" fill="#476a8a"/>
    </g>
  </g>
</svg>