<svg xmlns="http://www.w3.org/2000/svg" xmlns:xlink="http://www.w3.org/1999/xlink" width="76.127" height="81.423" viewBox="0 0 76.127 81.423">
  <defs>
    <clipPath id="clip-path">
      <rect id="Rectangle_38" data-name="Rectangle 38" width="17.141" height="43.886" fill="#0D2C56" stroke="#fff" stroke-width="0.2"/>
    </clipPath>
    <clipPath id="clip-path-3">
      <rect id="Rectangle_39" data-name="Rectangle 39" width="22.095" height="48.214" fill="#0D2C56" stroke="#fff" stroke-width="0.2"/>
    </clipPath>
  </defs>
  <g id="Group_136" data-name="Group 136" transform="translate(-626.252 -536.637)">
    <g id="Ellipse_14" data-name="Ellipse 14" transform="translate(628.888 543.416)" fill="none" stroke="#0D2C56" stroke-width="1.5" stroke-dasharray="3">
      <ellipse cx="33.746" cy="33.982" rx="33.746" ry="33.982" stroke="none"/>
      <ellipse cx="33.746" cy="33.982" rx="32.996" ry="33.232" fill="none"/>
    </g>
    <ellipse id="Ellipse_15" data-name="Ellipse 15" cx="10.237" cy="10.855" rx="10.237" ry="10.855" transform="translate(652.486 536.808)" fill="#fff"/>
    <path id="Path_268" data-name="Path 268" d="M12.743,0c7.038,0,12.743,7.818,12.743,17.463S19.781,34.926,12.743,34.926-.748,21.674-.748,12.029,5.705,0,12.743,0Z" transform="translate(627 580.701)" fill="#fff"/>
    <ellipse id="Ellipse_17" data-name="Ellipse 17" cx="15.507" cy="17.463" rx="15.507" ry="17.463" transform="translate(671.365 580.701)" fill="#fff"/>
    <g id="Group_134" data-name="Group 134" transform="translate(676.23 571.94)">
      <g id="Group_127" data-name="Group 127" transform="translate(0 0)" clip-path="url(#clip-path)">
        <path id="Path_151" data-name="Path 151" d="M17.138,55.211a5.542,5.542,0,0,0-1.074-3.371,5.375,5.375,0,0,0-4.007-2.371q-1.727-.085-3.463-.113a.139.139,0,0,1-.046,0q-1.734.027-3.463.113A5.375,5.375,0,0,0,1.077,51.84,5.542,5.542,0,0,0,0,55.211c.1,2.73.092,5.468,0,8.2a4.889,4.889,0,0,0,.966,3.135,4.748,4.748,0,0,0,.892.908l.015.01c.29.19.6.369.923.556.12.056.244.105.369.151.2.069.387.156.7.285v1.236c0,2.733-.01,5.466.005,8.2.008,1.495.549,2.32,1.725,2.587.046.01.092.021.141.028a.364.364,0,0,1,.051.01c.1.015.208.028.318.038.056.005.115.01.174.013l.113.008.123,0c.118,0,.233,0,.351,0h.11q.708.008,1.415.008h.349q.708,0,1.415-.008h.11c.118,0,.233,0,.351,0l.123,0c.038,0,.077,0,.113-.008.059,0,.118-.008.174-.013.11-.01.215-.023.318-.038a.3.3,0,0,0,.051-.01c.049-.008.095-.018.141-.028,1.177-.267,1.718-1.092,1.725-2.587.015-2.735.005-5.468.005-8.2V68.455c.313-.128.5-.215.7-.285.126-.046.249-.095.369-.151.326-.187.633-.367.923-.556l.015-.01a4.748,4.748,0,0,0,.892-.908,4.889,4.889,0,0,0,.966-3.135c-.092-2.73-.1-5.468,0-8.2m-5.512.884c-.064,7.56.056,15.056-.031,22.634h-.469a2.733,2.733,0,0,1-1.333,0H9.475v-.049l-.069-.01V69.6H7.735v9.075l-.069.01v.049H7.348a2.733,2.733,0,0,1-1.333,0H5.545c-.087-7.578.033-15.074-.031-22.634H3.848V66.527l-.062-.033C2.295,65.7,1.759,65.051,1.733,63.62c-.051-2.851.013-5.7.069-8.555v-.023a4.174,4.174,0,0,1,.115-.913v0a3.578,3.578,0,0,1,2.374-2.735,4.585,4.585,0,0,1,.9-.218A4.534,4.534,0,0,1,6.1,51.1c.226,0,.449.005.674.005h.115c.513,0,1.028,0,1.541,0h.272c.513,0,1.028,0,1.541,0,.038,0,.077,0,.115,0,.226,0,.449,0,.674-.005a4.534,4.534,0,0,1,.915.077,4.585,4.585,0,0,1,.9.218,3.578,3.578,0,0,1,2.374,2.735v0a4.174,4.174,0,0,1,.115.913v.023c.056,2.851.12,5.7.069,8.555-.026,1.431-.561,2.079-2.053,2.874l-.062.033V56.1Z" transform="translate(0 -36.703)" fill="#0D2C56" stroke="#fff" stroke-width="0.2"/>
        <path id="Path_152" data-name="Path 152" d="M15.018,0A5.484,5.484,0,0,0,9.524,5.656,5.545,5.545,0,1,0,15.018,0m.057,9.306a3.6,3.6,0,0,1-3.758-3.658A3.755,3.755,0,1,1,18.822,5.5a3.635,3.635,0,0,1-3.748,3.81" transform="translate(-6.376 0)" fill="#0D2C56" stroke="#fff" stroke-width="0.2"/>
      </g>
    </g>
    <g id="Group_135" data-name="Group 135" transform="translate(654.224 536.637)">
      <g id="Group_127-2" data-name="Group 127" transform="translate(0 0)" clip-path="url(#clip-path)">
        <path id="Path_151-2" data-name="Path 151" d="M17.138,55.211a5.542,5.542,0,0,0-1.074-3.371,5.375,5.375,0,0,0-4.007-2.371q-1.727-.085-3.463-.113a.139.139,0,0,1-.046,0q-1.734.027-3.463.113A5.375,5.375,0,0,0,1.077,51.84,5.542,5.542,0,0,0,0,55.211c.1,2.73.092,5.468,0,8.2a4.889,4.889,0,0,0,.966,3.135,4.748,4.748,0,0,0,.892.908l.015.01c.29.19.6.369.923.556.12.056.244.105.369.151.2.069.387.156.7.285v1.236c0,2.733-.01,5.466.005,8.2.008,1.495.549,2.32,1.725,2.587.046.01.092.021.141.028a.364.364,0,0,1,.051.01c.1.015.208.028.318.038.056.005.115.01.174.013l.113.008.123,0c.118,0,.233,0,.351,0h.11q.708.008,1.415.008h.349q.708,0,1.415-.008h.11c.118,0,.233,0,.351,0l.123,0c.038,0,.077,0,.113-.008.059,0,.118-.008.174-.013.11-.01.215-.023.318-.038a.3.3,0,0,0,.051-.01c.049-.008.095-.018.141-.028,1.177-.267,1.718-1.092,1.725-2.587.015-2.735.005-5.468.005-8.2V68.455c.313-.128.5-.215.7-.285.126-.046.249-.095.369-.151.326-.187.633-.367.923-.556l.015-.01a4.748,4.748,0,0,0,.892-.908,4.889,4.889,0,0,0,.966-3.135c-.092-2.73-.1-5.468,0-8.2m-5.512.884c-.064,7.56.056,15.056-.031,22.634h-.469a2.733,2.733,0,0,1-1.333,0H9.475v-.049l-.069-.01V69.6H7.735v9.075l-.069.01v.049H7.348a2.733,2.733,0,0,1-1.333,0H5.545c-.087-7.578.033-15.074-.031-22.634H3.848V66.527l-.062-.033C2.295,65.7,1.759,65.051,1.733,63.62c-.051-2.851.013-5.7.069-8.555v-.023a4.174,4.174,0,0,1,.115-.913v0a3.578,3.578,0,0,1,2.374-2.735,4.585,4.585,0,0,1,.9-.218A4.534,4.534,0,0,1,6.1,51.1c.226,0,.449.005.674.005h.115c.513,0,1.028,0,1.541,0h.272c.513,0,1.028,0,1.541,0,.038,0,.077,0,.115,0,.226,0,.449,0,.674-.005a4.534,4.534,0,0,1,.915.077,4.585,4.585,0,0,1,.9.218,3.578,3.578,0,0,1,2.374,2.735v0a4.174,4.174,0,0,1,.115.913v.023c.056,2.851.12,5.7.069,8.555-.026,1.431-.561,2.079-2.053,2.874l-.062.033V56.1Z" transform="translate(0 -36.703)" fill="#0D2C56" stroke="#fff" stroke-width="0.2"/>
        <path id="Path_152-2" data-name="Path 152" d="M15.018,0A5.484,5.484,0,0,0,9.524,5.656,5.545,5.545,0,1,0,15.018,0m.057,9.306a3.6,3.6,0,0,1-3.758-3.658A3.755,3.755,0,1,1,18.822,5.5a3.635,3.635,0,0,1-3.748,3.81" transform="translate(-6.376 0)" fill="#0D2C56" stroke="#fff" stroke-width="0.2"/>
      </g>
    </g>
    <g id="Group_133" data-name="Group 133" transform="translate(629.009 569.846)">
      <g id="Group_129" data-name="Group 129" transform="translate(0 0)" clip-path="url(#clip-path-3)">
        <path id="Path_153" data-name="Path 153" d="M21.181,73.837c1.122-.943,1.036-2.933.664-4.5-.431-1.815-.718-3.666-1.079-5.5L19.7,59.1l0,0v0c-.874-2.73-2.743-4.366-5.289-4.466-2.3-.09-4.612-.028-6.914.046a5.152,5.152,0,0,0-4.468,2.948,14.364,14.364,0,0,0-.736,1.687v0L1.3,64.187l-.146.718C.944,65.933.729,66.961.516,67.989L.134,69.853l-.1.723a3.878,3.878,0,0,0,.895,3.263l1.548,1.123.795.467c-.1.577-.177,1.079-.272,1.579s-.215,1-.308,1.5a2.362,2.362,0,0,0,2.169,3.094c.32.051.646.067,1.043.108,0,1.492-.023,2.9.005,4.3a2.48,2.48,0,0,0,2.761,2.776c1.454.026,2.9.01,4.358.005,2.31-.008,3.176-.859,3.187-3.14.005-1.313,0-2.625,0-3.951.305-.041.467-.069.633-.085,2.135-.213,2.874-1.213,2.487-3.353-.172-.954-.326-1.91-.49-2.858a1.729,1.729,0,0,1,.523-.354ZM10.2,86.888a3.21,3.21,0,0,1-.5.138c-1.948.126-2.01.069-2.01-1.877V81.728H10.2Zm4.143.046c-.759.041-1.495.079-2.333.126V81.666h2.333Zm4.138-13.449c-.759-3.971-1.489-7.806-2.235-11.723l-1.7.236c1.02,5.955,2.228,11.764,3.269,17.735H4.482a6.187,6.187,0,0,1,.01-1.115Q5.938,70.889,7.41,63.167c.062-.333.059-.674.1-1.151-.505-.09-.982-.172-1.63-.285-.749,3.92-1.489,7.786-2.233,11.677a3.378,3.378,0,0,1-1.2-.81,2.337,2.337,0,0,1-.518-2.146q.235-1.165.467-2.33Q3.16,64.3,3.913,60.468c.59-2.987,2.053-4.194,5.148-4.192,1.664,0,3.33.046,4.994.051a4.287,4.287,0,0,1,3.992,3.489c.4,2.125.838,4.24,1.282,6.358.3,1.454.61,2.907.9,4.363a2.3,2.3,0,0,1-1.269,2.656c-.146.1-.308.195-.482.292" transform="translate(0 -40.594)" fill="#0D2C56" stroke="#fff" stroke-width="0.2"/>
        <path id="Path_154" data-name="Path 154" d="M29.232,6.162a6.032,6.032,0,1,1-12.063-.2,6.032,6.032,0,1,1,12.063.2M23.212,10.3a4.169,4.169,0,0,0,4.249-4.125A4.234,4.234,0,0,0,23.295,1.79a4.307,4.307,0,0,0-4.357,4.221A4.278,4.278,0,0,0,23.212,10.3" transform="translate(-12.059 0)" fill="#0D2C56" stroke="#fff" stroke-width="0.2"/>
      </g>
    </g>
  </g>
</svg>